<?xml version="1.0" encoding="iso-8859-1"?>
<!-- Generator: Adobe Illustrator 19.0.0, SVG Export Plug-In . SVG Version: 6.00 Build 0)  -->
<svg xmlns="http://www.w3.org/2000/svg" xmlns:xlink="http://www.w3.org/1999/xlink" version="1.1" id="Capa_1" x="0px" y="0px" viewBox="0 0 511.999 511.999" style="enable-background:new 0 0 511.999 511.999;" xml:space="preserve" width="512px" height="512px">
<g>
	<g>
		<path d="M437.02,74.964c-10.287-10.288-21.475-19.734-33.253-28.078c-3.453-2.448-8.239-1.631-10.686,1.823    c-2.447,3.454-1.63,8.239,1.824,10.685c11.075,7.846,21.597,16.731,31.275,26.408c2.764,2.764,5.448,5.584,8.06,8.456    l-22.989,20.465c-13.984-12.877-31.159-20.844-48.755-22.546c-4.975-0.481-9.829-0.443-14.513,0.082    c-18.094-33.063-39.602-57.405-58.503-74.54c29.016,4.073,57.244,13.349,82.862,27.507c3.705,2.048,8.368,0.704,10.417-3.002    c2.047-3.705,0.703-8.368-3.002-10.417C332.138,5.494,276.053-5.001,221.838,2.259C165.826,9.761,115.043,34.901,74.98,74.964    C26.629,123.316,0,187.603,0,255.983S26.629,388.65,74.98,437.002c48.351,48.352,112.639,74.981,181.019,74.981    s132.668-26.629,181.019-74.981c48.351-48.352,74.98-112.639,74.98-181.019C512,187.603,485.371,123.316,437.02,74.964z     M444.183,105.933c32.127,40.131,50.379,89.084,52.299,140.925c-16.157-21.023-35.838-39.575-58.774-55.366    c5.106-20.934-0.473-45.44-16.073-65.487L444.183,105.933z M355.566,107.172c1.791,0,3.611,0.088,5.454,0.267    c15.262,1.476,30.248,8.869,42.198,20.819c24.269,24.269,28.178,59.847,8.716,79.31c-9.226,9.227-22.407,13.527-37.112,12.103    c-15.262-1.476-30.248-8.869-42.198-20.819c-24.269-24.269-28.178-59.847-8.716-79.31    C331.978,111.472,343.073,107.172,355.566,107.172z M85.821,85.804c37.664-37.664,85.402-61.298,138.052-68.349    c12.923-1.73,25.957-2.383,38.943-1.999c20.119,15.308,47.385,41.141,69.719,80.57c-7.296,2.842-13.884,7.093-19.467,12.677    c-7.356,7.356-12.242,16.377-14.763,26.21c-56.121-12.13-108.958-16.642-157.056-13.396c-34.851,2.353-67.229,8.758-96.551,19.061    C55.585,120.709,69.355,102.269,85.821,85.804z M255.997,496.651c-64.283,0.002-124.721-25.032-170.177-70.488    c-0.22-0.22-0.431-0.446-0.65-0.666l121.641-108.274c3.162-2.815,3.444-7.66,0.63-10.822c-2.815-3.162-7.66-3.444-10.821-0.629    L74.717,414.278C36.313,370.424,15.33,314.819,15.33,255.983c0-33.293,6.73-65.546,19.518-95.228    c87.947-36.59,190.418-26.061,261.242-10.644c0.068,0.014,0.134,0.031,0.202,0.045c-0.263,17.169,5.815,35.4,17.913,50.948    l-94.767,84.353c-3.162,2.815-3.444,7.66-0.63,10.822c1.515,1.702,3.617,2.568,5.727,2.568c1.813,0,3.633-0.64,5.094-1.94    l94.959-84.525c13.984,12.877,31.159,20.845,48.755,22.546c0.082,0.008,0.161,0.01,0.243,0.017    c7.138,56.568,14.25,180.433-45.947,250.902C304.743,492.954,280.656,496.651,255.997,496.651z M426.179,426.162    c-21.201,21.201-45.663,37.955-72.253,49.804c17.915-28.234,29.904-63.935,35.724-106.532c6.848-50.11,3.72-99.633-0.637-134.726    c13.061-1.699,24.723-7.262,33.761-16.3c3.688-3.688,6.738-7.801,9.201-12.216c26.197,18.567,47.723,40.995,64.097,66.793    C492.059,330.867,467.605,384.736,426.179,426.162z" fill="#666666"/>
	</g>
</g>
<g>
</g>
<g>
</g>
<g>
</g>
<g>
</g>
<g>
</g>
<g>
</g>
<g>
</g>
<g>
</g>
<g>
</g>
<g>
</g>
<g>
</g>
<g>
</g>
<g>
</g>
<g>
</g>
<g>
</g>
</svg>
