<?xml version="1.0" encoding="iso-8859-1"?>
<!-- Generator: Adobe Illustrator 19.0.0, SVG Export Plug-In . SVG Version: 6.00 Build 0)  -->
<svg xmlns="http://www.w3.org/2000/svg" xmlns:xlink="http://www.w3.org/1999/xlink" version="1.1" id="Capa_1" x="0px" y="0px" viewBox="0 0 512 512" style="enable-background:new 0 0 512 512;" xml:space="preserve" width="512px" height="512px">
<g>
	<g>
		<path d="M418.489,312.269c4.199,0,7.604-3.405,7.604-7.604V200.289c0-43.411-35.318-78.73-78.73-78.73H197.965    c-43.413,0-78.73,35.318-78.73,78.73v232.98c0,43.411,35.318,78.73,78.73,78.73h149.397c43.413,0,78.73-35.318,78.73-78.73    V330.014c0-4.199-3.405-7.604-7.604-7.604c-4.199,0-7.604,3.405-7.604,7.604V433.27c0,35.026-28.496,63.522-63.522,63.522H197.965    c-35.027,0-63.522-28.496-63.522-63.522v-232.98c0-35.026,28.496-63.522,63.522-63.522h149.397    c35.027,0,63.522,28.496,63.522,63.522v104.376C410.885,308.866,414.289,312.269,418.489,312.269z" fill="#666666"/>
	</g>
</g>
<g>
	<g>
		<path d="M316.08,0h-93.783c-17.61,0-31.936,14.327-31.936,31.937v0.041c0,0.005,0,0.01,0,0.015v26.24    c-0.001,0.004-0.001,0.009-0.001,0.013v37.196v13.444c0,4.199,3.405,7.604,7.604,7.604s7.604-3.405,7.604-7.604v-5.84h127.24v5.84    c0,4.199,3.405,7.604,7.604,7.604c4.199,0,7.604-3.405,7.604-7.604V95.441V71.875c0-0.005,0-0.01,0-0.015V45.621    c0-0.005,0-0.01,0-0.015V31.937C348.016,14.327,333.69,0,316.08,0z M205.566,51.285V40.308l43.655,4.206    c0.248,0.023,0.494,0.035,0.738,0.035c3.871,0,7.181-2.943,7.56-6.875c0.403-4.18-2.659-7.896-6.839-8.298l-43.67-4.208    c2.607-5.858,8.472-9.96,15.286-9.96h93.783c9.224,0,16.728,7.505,16.728,16.729v5.353l-59.235-5.707    c-4.177-0.395-7.895,2.659-8.298,6.839s2.659,7.896,6.84,8.298l60.693,5.848v10.976L205.566,51.285z M332.808,87.837h-127.24    V66.562l127.24,12.26V87.837z" fill="#666666"/>
	</g>
</g>
<g>
	<g>
		<path d="M276.096,242.797c-2.159-1.093-4.709-1.093-6.869,0c-36.335,18.396-58.907,55.087-58.907,95.757    c0,1.044,0.015,2.087,0.045,3.124c0.528,18.42,7.55,33.938,20.309,44.873c11.237,9.632,26.15,14.936,41.989,14.936    c15.841,0,30.752-5.305,41.989-14.936c12.757-10.936,19.78-26.453,20.308-44.872c0.029-1.038,0.045-2.079,0.045-3.125    C335.003,297.885,312.432,261.193,276.096,242.797z M319.757,341.242c-0.401,14.019-5.589,25.693-15.003,33.763    c-8.482,7.27-19.879,11.275-32.092,11.275c-12.213,0-23.61-4.004-32.092-11.275c-9.414-8.069-14.602-19.744-15.003-33.763    c-0.025-0.892-0.039-1.788-0.039-2.688c0-33.605,17.961-64.048,47.134-80.36c29.172,16.312,47.132,46.754,47.132,80.36    C319.795,339.454,319.782,340.35,319.757,341.242z" fill="#666666"/>
	</g>
</g>
<g>
	<g>
		<path d="M161.009,115.441c-7.655-11.333-20.384-18.099-34.051-18.099c-22.635,0-41.051,18.42-41.051,41.061    c0,16.251,9.605,31,24.472,37.573c1,0.442,2.044,0.652,3.071,0.652c2.918,0,5.703-1.69,6.958-4.531    c1.699-3.843-0.039-8.334-3.879-10.031c-9.363-4.14-15.414-13.429-15.414-23.664c0-14.256,11.594-25.853,25.843-25.853    c8.608,0,16.625,4.263,21.447,11.404c2.35,3.48,7.076,4.395,10.557,2.046C162.444,123.648,163.359,118.922,161.009,115.441z" fill="#666666"/>
	</g>
</g>
<g>
</g>
<g>
</g>
<g>
</g>
<g>
</g>
<g>
</g>
<g>
</g>
<g>
</g>
<g>
</g>
<g>
</g>
<g>
</g>
<g>
</g>
<g>
</g>
<g>
</g>
<g>
</g>
<g>
</g>
</svg>
