<?xml version="1.0" encoding="iso-8859-1"?>
<!-- Generator: Adobe Illustrator 19.0.0, SVG Export Plug-In . SVG Version: 6.00 Build 0)  -->
<svg xmlns="http://www.w3.org/2000/svg" xmlns:xlink="http://www.w3.org/1999/xlink" version="1.1" id="Capa_1" x="0px" y="0px" viewBox="0 0 512.001 512.001" style="enable-background:new 0 0 512.001 512.001;" xml:space="preserve" width="512px" height="512px">
<g>
	<g>
		<path d="M157.073,40.776C139.025,14.993,115.809,0.793,91.701,0.793c-51.387,0-91.243,64.581-91.243,120.138    c0,56.181,40.932,101.888,91.243,101.888c50.312,0,91.243-45.707,91.243-101.888C182.945,93.886,173.272,63.922,157.073,40.776z     M91.701,207.61c-41.926,0-76.036-38.885-76.036-86.68c0-24.043,8.644-50.747,23.123-71.434    c15.119-21.6,33.91-33.496,52.912-33.496s37.794,11.896,52.912,33.496c14.479,20.686,23.123,47.39,23.123,71.434    C167.737,168.726,133.627,207.61,91.701,207.61z" fill="#666666"/>
	</g>
</g>
<g>
	<g>
		<path d="M124.394,291.152v-57.53c0-4.199-3.405-7.604-7.604-7.604s-7.604,3.405-7.604,7.604v46.281    c-5.351-2.371-11.264-3.7-17.484-3.7s-12.132,1.328-17.484,3.699v-46.28c0-4.199-3.405-7.604-7.604-7.604    c-4.199,0-7.604,3.405-7.604,7.604v57.53c-6.608,7.606-10.623,17.523-10.623,28.367v149.168c0,23.882,19.431,43.313,43.315,43.313    c23.885,0,43.314-19.431,43.314-43.314V319.517C135.016,308.674,131.003,298.758,124.394,291.152z M119.808,468.686    c0,15.498-12.608,28.106-28.106,28.106c-15.498,0-28.106-12.608-28.106-28.106V319.517c0-15.498,12.608-28.106,28.106-28.106    c15.498,0,28.106,12.608,28.106,28.106V468.686z" fill="#666666"/>
	</g>
</g>
<g>
	<g>
		<path d="M98.723,316.608c-2.573-6.091-11.497-6.143-14.042,0c-2.69,6.494,4.482,12.915,10.636,9.594    C98.681,324.387,100.22,320.145,98.723,316.608z" fill="#666666"/>
	</g>
</g>
<g>
	<g>
		<path d="M98.723,465.777c-2.608-6.174-11.661-6.112-14.109,0.173c-2.509,6.442,4.587,12.662,10.671,9.436    C98.67,473.59,100.223,469.323,98.723,465.777z" fill="#666666"/>
	</g>
</g>
<g>
	<g>
		<path d="M456.012,433.343c4.2,0,7.604-3.405,7.604-7.604V319.517c0-10.843-4.014-20.761-10.623-28.367v-57.529h0    c0-4.199-3.404-7.604-7.604-7.604s-7.604,3.405-7.604,7.604v46.28c-5.351-2.371-11.263-3.699-17.483-3.699    s-12.133,1.328-17.484,3.699v-46.28c0-4.199-3.404-7.604-7.604-7.604c-4.2,0-7.604,3.405-7.604,7.604v57.53    c-6.608,7.606-10.623,17.523-10.623,28.367v149.168c0,23.884,19.431,43.314,43.315,43.314c23.884,0,43.314-19.431,43.314-43.314    v-17.599c0-4.199-3.404-7.604-7.604-7.604s-7.604,3.405-7.604,7.604v17.599c0,15.498-12.608,28.106-28.106,28.106    s-28.107-12.608-28.107-28.106V319.517c0-15.498,12.609-28.106,28.107-28.106s28.106,12.608,28.106,28.106v106.221    C448.408,429.938,451.812,433.343,456.012,433.343z" fill="#666666"/>
	</g>
</g>
<g>
	<g>
		<path d="M427.752,318.027c-1.249-6.528-10.129-8.217-13.778-2.727c-1.917,2.884-1.612,6.836,0.745,9.378    c2.027,2.186,5.235,2.999,8.053,2.027C426.311,325.485,428.507,321.712,427.752,318.027z" fill="#666666"/>
	</g>
</g>
<g>
	<g>
		<path d="M427.739,467.121c-0.735-3.47-3.887-6.039-7.439-6.039c-6.992,0-10.232,9.082-4.788,13.505    C420.928,478.988,429.196,473.996,427.739,467.121z" fill="#666666"/>
	</g>
</g>
<g>
	<g>
		<path d="M487.212,0c-13.416,0-24.332,10.915-24.332,24.332v79.871c0,5.031-4.093,9.124-9.124,9.124    c-5.031,0-9.124-4.093-9.124-9.124V24.332C444.632,10.915,433.716,0,420.3,0s-24.332,10.915-24.332,24.332v79.871    c0,5.031-4.093,9.124-9.124,9.124c-5.031,0-9.124-4.093-9.124-9.124V24.332C377.721,10.915,366.805,0,353.389,0    s-24.332,10.915-24.332,24.332v96.599c0,56.181,40.932,101.888,91.242,101.888c50.312,0,91.243-45.707,91.243-101.888V24.332    C511.543,10.915,500.628,0,487.212,0z M420.3,207.61c-41.925,0-76.035-38.885-76.035-86.68V24.332    c0-5.031,4.093-9.124,9.124-9.124c5.031,0,9.124,4.093,9.124,9.124v79.871c0,13.416,10.915,24.332,24.332,24.332    s24.332-10.915,24.332-24.332V24.332c0-5.031,4.093-9.124,9.124-9.124c5.032,0,9.125,4.093,9.125,9.124v79.871    c0,13.416,10.915,24.332,24.332,24.332s24.332-10.915,24.332-24.332V24.332c0-5.031,4.093-9.124,9.124-9.124    s9.124,4.093,9.124,9.124v96.599h0C496.335,168.726,462.225,207.61,420.3,207.61z" fill="#666666"/>
	</g>
</g>
<g>
	<g>
		<path d="M244.253,316.608c-2.606-6.169-11.673-6.107-14.11,0.173c-2.54,6.545,4.78,12.775,10.835,9.344    C244.294,324.245,245.661,320.127,244.253,316.608z" fill="#666666"/>
	</g>
</g>
<g>
	<g>
		<path d="M244.253,465.777c-2.473-5.854-10.938-6.229-13.81-0.506c-1.5,2.987-0.842,6.726,1.623,8.998    c2.455,2.261,6.206,2.654,9.067,0.934C244.342,473.274,245.639,469.24,244.253,465.777z" fill="#666666"/>
	</g>
</g>
<g>
	<g>
		<path d="M278.073,7.035c-15.942-7.792-34.447-6.833-49.499,2.563c-15.052,9.396-24.039,25.601-24.039,43.346v60.03    c0,4.199,3.405,7.604,7.604,7.604s7.604-3.405,7.604-7.604V52.945c0-12.463,6.312-23.845,16.884-30.445    c10.573-6.601,23.569-7.273,34.768-1.801c12.228,5.977,20.129,18.634,20.129,32.246v167.894c0,10.082-5.517,19.309-14.4,24.079    c-13.101,7.034-21.486,20.299-22.33,35.023c-5.373-2.395-11.315-3.737-17.568-3.737c-6.22,0-12.133,1.328-17.484,3.7V138.323    c0-4.199-3.405-7.604-7.604-7.604c-4.199,0-7.604,3.405-7.604,7.604v152.828c-6.608,7.606-10.622,17.523-10.622,28.366v149.168    c0,23.884,19.431,43.314,43.314,43.314s43.314-19.431,43.314-43.314V319.517c0-10.843-4.014-20.76-10.622-28.366v-8.758    c0-10.082,5.517-19.309,14.4-24.079c13.826-7.424,22.413-21.784,22.413-37.476V52.945    C306.733,33.565,295.484,15.544,278.073,7.035z M265.333,468.686c0,15.498-12.608,28.106-28.106,28.106    s-28.106-12.608-28.106-28.106V319.517c0-15.498,12.608-28.106,28.106-28.106s28.106,12.608,28.106,28.106V468.686z" fill="#666666"/>
	</g>
</g>
<g>
</g>
<g>
</g>
<g>
</g>
<g>
</g>
<g>
</g>
<g>
</g>
<g>
</g>
<g>
</g>
<g>
</g>
<g>
</g>
<g>
</g>
<g>
</g>
<g>
</g>
<g>
</g>
<g>
</g>
</svg>
