<?xml version="1.0" encoding="iso-8859-1"?>
<!-- Generator: Adobe Illustrator 19.0.0, SVG Export Plug-In . SVG Version: 6.00 Build 0)  -->
<svg xmlns="http://www.w3.org/2000/svg" xmlns:xlink="http://www.w3.org/1999/xlink" version="1.1" id="Capa_1" x="0px" y="0px" viewBox="0 0 512.001 512.001" style="enable-background:new 0 0 512.001 512.001;" xml:space="preserve" width="512px" height="512px">
<g>
	<g>
		<path d="M373.212,137.854c-23.859-23.858-56.781-35.408-90.331-31.694c-4.174,0.463-7.182,4.222-6.72,8.395    c0.462,4.173,4.22,7.177,8.396,6.721c28.93-3.206,57.325,6.757,77.9,27.331c20.571,20.571,30.529,48.961,27.323,77.892    c-0.462,4.174,2.546,7.933,6.72,8.396c0.285,0.031,0.568,0.047,0.848,0.047c3.823,0,7.117-2.877,7.547-6.767    C408.615,194.629,397.065,161.708,373.212,137.854z" fill="#666666"/>
	</g>
</g>
<g>
	<g>
		<path d="M403.518,255.338L255.725,107.545c-1.66-1.66-3.993-2.462-6.319-2.169c-2.328,0.291-4.391,1.639-5.592,3.655    l-42.165,70.803c-1.78,2.99-1.305,6.807,1.157,9.268L321.96,308.256c1.466,1.466,3.413,2.228,5.381,2.228    c1.334,0,2.68-0.351,3.888-1.071l70.803-42.165c2.015-1.2,3.364-3.264,3.654-5.592    C405.976,259.329,405.176,256.997,403.518,255.338z M328.53,293.316L217.744,182.531l34.137-57.322l133.971,133.971    L328.53,293.316z" fill="#666666"/>
	</g>
</g>
<g>
	<g>
		<path d="M211.529,213.524c2.97-2.97,2.97-7.785,0-10.753c-2.97-2.971-7.785-2.97-10.753,0L10.813,392.731    c-14.418,14.418-14.418,37.878,0,52.296l55.221,55.221c6.984,6.985,16.27,10.83,26.148,10.83c9.877,0,19.164-3.846,26.147-10.83    l31.868-31.868c2.97-2.97,2.97-7.785,0-10.753c-2.97-2.97-7.785-2.97-10.754,0l-31.868,31.868c-8.488,8.487-22.299,8.488-30.788,0    l-55.221-55.221c-8.488-8.488-8.488-22.299,0-30.788L211.529,213.524z" fill="#666666"/>
	</g>
</g>
<g>
	<g>
		<path d="M308.291,299.532c-2.97-2.97-7.784-2.971-10.754-0.001L155.976,441.094c-2.97,2.97-2.97,7.785,0,10.753    c1.484,1.484,3.431,2.227,5.377,2.227c1.946,0,3.892-0.742,5.377-2.227l141.562-141.562    C311.261,307.316,311.261,302.501,308.291,299.532z" fill="#666666"/>
	</g>
</g>
<g>
	<g>
		<path d="M228.945,245.417c-7.887-7.887-20.721-7.887-28.608,0l-32.732,32.732c-3.821,3.821-5.925,8.901-5.925,14.304    c0,5.403,2.104,10.483,5.925,14.304c3.821,3.821,8.901,5.925,14.304,5.925s10.483-2.104,14.304-5.925l32.732-32.732    C236.832,266.138,236.832,253.304,228.945,245.417z M185.458,296.003c-1.958,1.958-5.142,1.958-7.1,0s-1.958-5.142,0-7.1    l14.461-14.461l7.1,7.1L185.458,296.003z M218.189,263.272l-7.518,7.518l-7.1-7.1l7.518-7.518    c0.979-0.979,2.265-1.468,3.551-1.468c1.286,0,2.571,0.489,3.55,1.468C220.147,258.129,220.147,261.314,218.189,263.272z" fill="#666666"/>
	</g>
</g>
<g>
	<g>
		<path d="M509.771,3.152c-2.97-2.97-7.784-2.971-10.754,0L398.957,103.21c-2.97,2.97-2.97,7.785,0,10.753    c1.485,1.484,3.432,2.228,5.378,2.228s3.892-0.742,5.378-2.228L509.771,13.905C512.74,10.935,512.74,6.12,509.771,3.152z" fill="#666666"/>
	</g>
</g>
<g>
	<g>
		<path d="M377.675,1.335c-3.97-1.36-8.297,0.756-9.657,4.731l-25.852,75.495c-1.362,3.972,0.756,8.296,4.73,9.657    c0.816,0.279,1.647,0.412,2.465,0.412c3.159,0,6.112-1.985,7.194-5.142l25.852-75.495C383.766,7.02,381.648,2.695,377.675,1.335z" fill="#666666"/>
	</g>
</g>
<g>
	<g>
		<path d="M511.588,135.247c-1.361-3.972-5.685-6.09-9.658-4.731l-75.495,25.853c-3.973,1.361-6.091,5.685-4.731,9.657    c1.081,3.157,4.033,5.143,7.194,5.143c0.817,0,1.649-0.133,2.465-0.412l75.495-25.853    C510.831,143.544,512.949,139.22,511.588,135.247z" fill="#666666"/>
	</g>
</g>
<g>
</g>
<g>
</g>
<g>
</g>
<g>
</g>
<g>
</g>
<g>
</g>
<g>
</g>
<g>
</g>
<g>
</g>
<g>
</g>
<g>
</g>
<g>
</g>
<g>
</g>
<g>
</g>
<g>
</g>
</svg>
