<?xml version="1.0" encoding="iso-8859-1"?>
<!-- Generator: Adobe Illustrator 19.0.0, SVG Export Plug-In . SVG Version: 6.00 Build 0)  -->
<svg xmlns="http://www.w3.org/2000/svg" xmlns:xlink="http://www.w3.org/1999/xlink" version="1.1" id="Capa_1" x="0px" y="0px" viewBox="0 0 512 512" style="enable-background:new 0 0 512 512;" xml:space="preserve" width="512px" height="512px">
<g>
	<g>
		<path d="M256,0C139.822,0,48.815,42.327,48.815,96.36c0,53.236,17.883,104.709,50.353,144.938    c32.242,39.943,76.706,66.322,125.201,74.276c0.417,0.068,0.83,0.101,1.24,0.101c3.658,0,6.883-2.647,7.495-6.374    c0.679-4.144-2.129-8.055-6.274-8.734c-44.802-7.347-85.938-31.789-115.829-68.819c-21.854-27.074-36.621-59.638-43.156-94.366    c32.561,32.972,103.701,55.342,188.154,55.342c84.455,0,155.594-22.371,188.155-55.343c-6.601,35.105-21.612,67.976-43.863,95.235    c-30.361,37.195-72.032,61.451-117.335,68.301c-4.153,0.628-7.01,4.503-6.382,8.655c0.571,3.768,3.812,6.468,7.509,6.468    c0.378,0,0.761-0.028,1.147-0.086c49.044-7.417,94.091-33.598,126.843-73.724c32.96-40.378,51.111-92.182,51.111-145.869    C463.186,42.327,372.179,0,256,0z M64.023,96.36c0-33.239,50.205-62.578,119.638-74.932l-110.805,98.8    C67.126,112.647,64.023,104.624,64.023,96.36z M144.42,161.906l24.695-22.02c3.135-2.795,3.41-7.602,0.614-10.736    c-2.793-3.133-7.6-3.411-10.736-0.614l-31.059,27.695c-18.356-7.047-33.592-15.536-44.578-24.991L210.818,17.587    c14.546-1.549,29.683-2.38,45.183-2.38c9.83,0,19.516,0.333,28.997,0.97l-105.743,94.29c-3.135,2.795-3.41,7.602-0.614,10.736    c1.502,1.685,3.585,2.543,5.679,2.543c1.8,0,3.608-0.636,5.057-1.928L305.7,18.093c21.363,2.515,41.364,6.597,59.234,11.92    L203.184,174.251C181.936,171.581,162.093,167.356,144.42,161.906z M256,177.514c-10.966,0-21.748-0.418-32.272-1.208    L381.571,35.553c18.461,6.853,33.912,15.14,45.248,24.403L297.19,175.541C283.873,176.828,270.086,177.514,256,177.514z     M323.959,172.047L437.685,70.641c6.66,8.122,10.292,16.78,10.292,25.721C447.978,130.296,395.651,160.165,323.959,172.047z" fill="#666666"/>
	</g>
</g>
<g>
	<g>
		<path d="M255.803,278.697c-4.219-0.163-7.734,3.099-7.901,7.295l-8.7,218.101c-0.167,4.196,3.099,7.734,7.295,7.901    c0.103,0.004,0.206,0.006,0.308,0.006c4.06,0,7.43-3.208,7.593-7.301l8.7-218.101    C263.265,282.403,259.998,278.865,255.803,278.697z" fill="#666666"/>
	</g>
</g>
<g>
	<g>
		<path d="M153.991,298.733c-3.936-1.464-8.315,0.539-9.779,4.475L84.824,462.849c-1.464,3.936,0.539,8.314,4.475,9.779    c0.874,0.326,1.769,0.48,2.65,0.48c3.086,0,5.989-1.893,7.127-4.955l59.388-159.641    C159.93,304.575,157.927,300.197,153.991,298.733z" fill="#666666"/>
	</g>
</g>
<g>
	<g>
		<path d="M424.638,463.497l-44.292-162.062c-1.107-4.051-5.287-6.44-9.34-5.331c-4.05,1.107-6.438,5.288-5.33,9.34l44.293,162.062    c0.924,3.38,3.988,5.602,7.329,5.602c0.664,0,1.338-0.087,2.009-0.271C423.359,471.729,425.746,467.548,424.638,463.497z" fill="#666666"/>
	</g>
</g>
<g>
</g>
<g>
</g>
<g>
</g>
<g>
</g>
<g>
</g>
<g>
</g>
<g>
</g>
<g>
</g>
<g>
</g>
<g>
</g>
<g>
</g>
<g>
</g>
<g>
</g>
<g>
</g>
<g>
</g>
</svg>
