<?xml version="1.0" encoding="iso-8859-1"?>
<!-- Generator: Adobe Illustrator 19.0.0, SVG Export Plug-In . SVG Version: 6.00 Build 0)  -->
<svg xmlns="http://www.w3.org/2000/svg" xmlns:xlink="http://www.w3.org/1999/xlink" version="1.1" id="Capa_1" x="0px" y="0px" viewBox="0 0 511.999 511.999" style="enable-background:new 0 0 511.999 511.999;" xml:space="preserve" width="512px" height="512px">
<g>
	<g>
		<path d="M236.382,200.027c-32.621-10.73-64.645-4.591-85.656,16.421c-9.447,9.446-16.018,21.372-19.246,34.817    c-36.71-3.102-71.634,9.182-96.735,34.283c-9.024,9.025-16.469,19.39-22.127,30.807c-1.905,3.841-0.334,8.495,3.506,10.399    c1.107,0.548,2.282,0.808,3.439,0.808c2.857,0,5.605-1.583,6.959-4.315c4.907-9.904,11.365-18.895,19.197-26.725    c23.294-23.294,56.445-33.887,90.953-29.063c4.227,0.595,8.147-2.35,8.755-6.581c1.887-13.128,7.513-24.698,16.273-33.455    c16.782-16.784,42.886-21.514,69.835-12.653c4.07,1.34,8.456-0.875,9.796-4.947C242.669,205.751,240.453,201.366,236.382,200.027z    " fill="#666666"/>
	</g>
</g>
<g>
	<g>
		<path d="M312.003,275.648c-1.342-4.073-5.729-6.289-9.797-4.949c-4.072,1.339-6.286,5.725-4.948,9.796    c8.862,26.944,4.132,53.051-12.652,69.836c-8.759,8.758-20.327,14.385-33.456,16.272c-4.232,0.608-7.174,4.522-6.581,8.755    c4.825,34.508-5.768,67.659-29.063,90.954c-20.194,20.193-47.06,30.16-74.732,30.159c-31.063-0.001-63.138-12.565-87.894-37.32    c-14.959-14.959-26.052-33.275-32.082-52.969c-5.828-19.035-6.854-38.975-2.968-57.662c0.873-4.195-1.822-8.304-6.016-9.177    c-4.203-0.877-8.305,1.821-9.177,6.017c-4.417,21.237-3.266,43.841,3.323,65.366c6.771,22.112,19.201,42.652,35.946,59.399    c27.781,27.78,63.819,41.848,98.872,41.846c31.649-0.002,62.496-11.475,85.705-34.683c25.1-25.1,37.387-60.019,34.282-96.735    c13.444-3.226,25.369-9.798,34.818-19.245C316.594,340.294,322.732,308.273,312.003,275.648z" fill="#666666"/>
	</g>
</g>
<g>
	<g>
		<path d="M236.778,332.247c-3.441-2.551-8.302-1.83-10.854,1.612c-1.002,1.35-2.119,2.645-3.321,3.847    c-13.311,13.311-34.971,13.312-48.281,0c-13.312-13.312-13.312-34.972,0-48.283c1.642-1.641,3.445-3.114,5.362-4.38    c3.576-2.361,4.561-7.175,2.2-10.751c-2.362-3.578-7.177-4.561-10.752-2.2c-2.786,1.841-5.407,3.98-7.784,6.358    c-19.362,19.362-19.362,50.868,0,70.23c9.681,9.681,22.398,14.522,35.115,14.522c12.717,0,25.434-4.841,35.117-14.523    c1.74-1.741,3.358-3.617,4.811-5.577C240.944,339.659,240.222,334.801,236.778,332.247z" fill="#666666"/>
	</g>
</g>
<g>
	<g>
		<path d="M509.726,76.442l-7.914-7.914c8.213-9.985,7.66-24.81-1.667-34.138l-22.506-22.505    c-9.327-9.327-24.153-9.878-34.137-1.666l-7.917-7.917c-3.029-3.031-7.943-3.03-10.973,0s-3.03,7.944,0.001,10.973l7.827,7.827    l-5.853,5.853l-7.827-7.827c-3.031-3.03-7.944-3.03-10.974,0c-3.03,3.03-3.03,7.944,0,10.973l7.827,7.827l-5.852,5.852    l-7.827-7.827c-3.03-3.03-7.944-3.031-10.973,0c-3.031,3.03-3.031,7.943-0.001,10.973l7.827,7.827l-10.097,10.097    c-2.689,2.689-2.986,6.858-0.903,9.881L188.653,266.311c-2.39,2.299-3.054,5.862-1.654,8.868c1.4,3.006,4.551,4.793,7.853,4.441    c10.307-1.092,20.427,2.48,27.751,9.805c7.324,7.325,10.898,17.44,9.806,27.752c-0.35,3.297,1.435,6.452,4.441,7.852    c1.049,0.488,2.167,0.725,3.274,0.725c2.065,0,4.097-0.825,5.594-2.38l125.319-130.26c2.97-3.088,2.875-8.001-0.212-10.971    c-3.088-2.97-8.001-2.876-10.971,0.212L246.347,300.334c-2.25-8.167-6.593-15.707-12.769-21.883    c-6.177-6.177-13.715-10.519-21.882-12.77L398.665,85.803l27.562,27.562l-45.075,46.852c-2.97,3.088-2.875,8.001,0.212,10.971    c3.088,2.971,8,2.876,10.972-0.212l44.959-46.732c1.32,0.909,2.856,1.369,4.394,1.369c1.985,0,3.972-0.757,5.488-2.273    l10.096-10.096l7.825,7.825c1.516,1.515,3.502,2.273,5.488,2.273c1.985,0,3.972-0.757,5.488-2.273c3.03-3.03,3.03-7.944,0-10.973    l-7.825-7.825l5.852-5.852l7.826,7.825c1.515,1.515,3.501,2.272,5.487,2.272s3.972-0.757,5.488-2.273    c3.03-3.03,3.03-7.944-0.001-10.974l-7.825-7.825l5.853-5.853l7.825,7.825c1.516,1.515,3.502,2.273,5.488,2.273    c1.985,0,3.972-0.757,5.488-2.273C512.756,84.385,512.756,79.472,509.726,76.442z M489.17,59.4l-47.48,47.479L405.15,70.34    l47.48-47.48c3.869-3.867,10.165-3.87,14.034,0l22.505,22.505c1.876,1.875,2.907,4.366,2.907,7.018    C492.077,55.034,491.045,57.526,489.17,59.4z" fill="#666666"/>
	</g>
</g>
<g>
	<g>
		<path d="M462.424,34.012c-3.031-3.03-7.944-3.03-10.974,0l-31.703,31.703c-3.03,3.03-3.03,7.944,0,10.973    c1.516,1.515,3.502,2.273,5.488,2.273c1.985,0,3.972-0.757,5.488-2.273l31.703-31.703    C465.455,41.956,465.455,37.043,462.424,34.012z" fill="#666666"/>
	</g>
</g>
<g>
	<g>
		<path d="M478.018,49.606c-3.031-3.03-7.944-3.03-10.974,0l-31.703,31.703c-3.03,3.03-3.03,7.944,0,10.973    c1.516,1.515,3.502,2.273,5.488,2.273c1.985,0,3.972-0.757,5.488-2.273l31.702-31.703    C481.049,57.549,481.049,52.636,478.018,49.606z" fill="#666666"/>
	</g>
</g>
<g>
	<g>
		<path d="M139.602,427.518L84.51,372.427c-3.031-3.03-7.944-3.03-10.975,0c-3.03,3.03-3.03,7.944,0,10.973l55.092,55.091    c1.516,1.515,3.502,2.273,5.488,2.273s3.972-0.757,5.488-2.273C142.633,435.461,142.633,430.548,139.602,427.518z" fill="#666666"/>
	</g>
</g>
<g>
</g>
<g>
</g>
<g>
</g>
<g>
</g>
<g>
</g>
<g>
</g>
<g>
</g>
<g>
</g>
<g>
</g>
<g>
</g>
<g>
</g>
<g>
</g>
<g>
</g>
<g>
</g>
<g>
</g>
</svg>
