<?xml version="1.0" encoding="iso-8859-1"?>
<!-- Generator: Adobe Illustrator 19.0.0, SVG Export Plug-In . SVG Version: 6.00 Build 0)  -->
<svg xmlns="http://www.w3.org/2000/svg" xmlns:xlink="http://www.w3.org/1999/xlink" version="1.1" id="Capa_1" x="0px" y="0px" viewBox="0 0 512 512" style="enable-background:new 0 0 512 512;" xml:space="preserve" width="512px" height="512px">
<g>
	<g>
		<path d="M437.725,217.48c-4.2,0-7.604,3.405-7.604,7.604v228.619c0,23.76-19.329,43.089-43.09,43.089    c-23.76,0-43.089-19.329-43.089-43.089V189.329c0-23.617-9.266-45.8-26.089-62.461c-16.614-16.453-38.545-25.481-61.846-25.481    c-0.291,0-0.584,0.001-0.876,0.004c-48.012,0.465-87.076,40.374-87.076,88.963v263.348c0,23.76-19.329,43.089-43.089,43.089    c-23.76,0-43.089-19.329-43.089-43.089v-28.388c0-4.199-3.404-7.604-7.604-7.604s-7.604,3.405-7.604,7.604v28.388    c0,32.145,26.152,58.297,58.297,58.297c29.567,0,54.045-22.131,57.785-50.693h146.495c3.74,28.563,28.219,50.693,57.786,50.693    c32.145,0,58.297-26.152,58.297-58.297V225.084C445.329,220.885,441.925,217.48,437.725,217.48z M328.734,446.099h-145.47V190.354    c0-40.284,32.306-73.37,72.015-73.756c0.242-0.002,0.484-0.003,0.725-0.003c19.265,0,37.406,7.47,51.147,21.079    c13.918,13.783,21.583,32.128,21.583,51.656V446.099z" fill="#666666"/>
	</g>
</g>
<g>
	<g>
		<path d="M255.999,0C151.602,0,66.67,84.933,66.67,189.329v210.638c0,4.199,3.404,7.604,7.604,7.604s7.604-3.405,7.604-7.604    V189.329c0-96.011,78.111-174.122,174.122-174.122s174.122,78.11,174.122,174.122v10.407c0,4.199,3.404,7.604,7.604,7.604    s7.604-3.405,7.604-7.604v-10.407C445.329,84.932,360.397,0,255.999,0z" fill="#666666"/>
	</g>
</g>
<g>
	<g>
		<path d="M313.536,314.288H198.463c-4.2,0-7.604,3.405-7.604,7.604c0,4.199,3.404,7.604,7.604,7.604h115.073    c4.2,0,7.604-3.405,7.604-7.604C321.14,317.692,317.737,314.288,313.536,314.288z" fill="#666666"/>
	</g>
</g>
<g>
	<g>
		<path d="M313.536,378.158H198.463c-4.2,0-7.604,3.405-7.604,7.604c0,4.199,3.404,7.604,7.604,7.604h115.073    c4.2,0,7.604-3.405,7.604-7.604C321.14,381.563,317.737,378.158,313.536,378.158z" fill="#666666"/>
	</g>
</g>
<g>
	<g>
		<path d="M313.536,194.714H198.463c-4.2,0-7.604,3.405-7.604,7.604c0,4.199,3.404,7.604,7.604,7.604h115.073    c4.2,0,7.604-3.405,7.604-7.604C321.14,198.119,317.737,194.714,313.536,194.714z" fill="#666666"/>
	</g>
</g>
<g>
	<g>
		<path d="M313.536,258.584H198.463c-4.2,0-7.604,3.405-7.604,7.604s3.404,7.604,7.604,7.604h115.073c4.2,0,7.604-3.405,7.604-7.604    S317.737,258.584,313.536,258.584z" fill="#666666"/>
	</g>
</g>
<g>
	<g>
		<path d="M373.378,99.625c-12.997,0-23.571,10.575-23.571,23.572c0,12.997,10.575,23.571,23.571,23.571    s23.571-10.575,23.571-23.571C396.95,110.2,386.375,99.625,373.378,99.625z M373.378,131.561c-4.612,0-8.363-3.752-8.363-8.363    c0-4.612,3.752-8.364,8.363-8.364c4.612,0,8.363,3.752,8.363,8.364C381.742,127.808,377.99,131.561,373.378,131.561z" fill="#666666"/>
	</g>
</g>
<g>
	<g>
		<path d="M138.621,99.625c-12.997,0-23.571,10.575-23.571,23.572c0,12.997,10.575,23.571,23.571,23.571    s23.571-10.575,23.571-23.571C162.192,110.2,151.617,99.625,138.621,99.625z M138.621,131.561c-4.612,0-8.363-3.752-8.363-8.363    c0-4.612,3.751-8.364,8.363-8.364s8.363,3.752,8.363,8.364C146.984,127.808,143.233,131.561,138.621,131.561z" fill="#666666"/>
	</g>
</g>
<g>
</g>
<g>
</g>
<g>
</g>
<g>
</g>
<g>
</g>
<g>
</g>
<g>
</g>
<g>
</g>
<g>
</g>
<g>
</g>
<g>
</g>
<g>
</g>
<g>
</g>
<g>
</g>
<g>
</g>
</svg>
