<?xml version="1.0" encoding="iso-8859-1"?>
<!-- Generator: Adobe Illustrator 19.0.0, SVG Export Plug-In . SVG Version: 6.00 Build 0)  -->
<svg xmlns="http://www.w3.org/2000/svg" xmlns:xlink="http://www.w3.org/1999/xlink" version="1.1" id="Capa_1" x="0px" y="0px" viewBox="0 0 512.001 512.001" style="enable-background:new 0 0 512.001 512.001;" xml:space="preserve" width="512px" height="512px">
<g>
	<g>
		<path d="M504.301,0.001c-0.203,0-0.397,0-0.6,0c-65.306,0-128.985,12.371-189.257,36.769    c-62.602,25.341-118.759,62.606-166.915,110.76C99.376,195.685,62.11,251.843,36.769,314.445    C12.296,374.904-0.075,438.781,0,504.301c0.005,4.249,3.448,7.693,7.698,7.698c0.203,0,0.397,0,0.6,0    c65.307-0.001,128.986-12.371,189.258-36.769c62.602-25.341,118.759-62.606,166.915-110.76    c32.043-32.044,59.555-68.07,81.772-107.08c2.107-3.699,0.815-8.405-2.883-10.511c-3.699-2.107-8.405-0.816-10.511,2.882    c-21.535,37.813-48.208,72.74-79.277,103.809c-46.685,46.685-101.121,82.81-161.798,107.371    c-52.77,21.362-108.228,33.21-165.12,35.306l134.647-134.648c14.033,11.314,32.076,17.17,52.547,17.17    c7.15,0,14.601-0.715,22.277-2.162c31.701-5.974,63.732-23.836,90.189-50.294c26.458-26.458,44.32-58.489,50.293-90.189    c5.588-29.646,0.257-55.887-15.009-74.823L496.225,26.676c-2.638,69.454-20.153,138.251-51.084,200.082    c-1.904,3.807-0.362,8.437,3.446,10.341c3.804,1.904,8.437,0.363,10.341-3.445C493.74,164.065,512.091,85.931,512,7.699    C511.995,3.45,508.551,0.005,504.301,0.001z M350.699,150.402c-18.937-15.266-45.177-20.596-74.823-15.008    c-31.701,5.975-63.731,23.836-90.189,50.294c-28.211,28.212-46.944,63.574-51.394,97.021c-0.561,4.219,2.405,8.095,6.623,8.657    c4.219,0.561,8.094-2.404,8.657-6.623c4.012-30.157,21.148-62.289,47.014-88.155C245.96,147.214,312.781,133.7,345.54,166.46    c32.762,32.759,19.247,99.58-30.127,148.954c-24.287,24.288-53.46,40.64-82.144,46.046c-27.612,5.203-51.341-0.45-66.81-15.919    c-8.782-8.781-14.39-20.119-16.668-33.698c-0.706-4.198-4.684-7.034-8.877-6.325c-4.198,0.704-7.03,4.678-6.325,8.877    c2.354,14.031,7.672,26.201,15.818,36.296L15.753,485.348c2.095-56.892,13.944-112.352,35.305-165.121    c24.561-60.675,60.687-115.113,107.372-161.799c46.685-46.685,101.121-82.81,161.798-107.371    c52.77-21.361,108.228-33.209,165.119-35.305L350.699,150.402z" fill="#666666"/>
	</g>
</g>
<g>
	<g>
		<path d="M333.415,275.984l-97.397-97.396c-3.011-3.01-7.89-3.01-10.9,0c-3.01,3.01-3.01,7.89,0,10.899l97.396,97.396    c1.505,1.504,3.478,2.258,5.45,2.258s3.945-0.752,5.45-2.258C336.424,283.873,336.424,278.993,333.415,275.984z" fill="#666666"/>
	</g>
</g>
<g>
	<g>
		<path d="M286.884,322.513l-97.396-97.395c-3.011-3.01-7.89-3.01-10.9,0c-3.01,3.01-3.01,7.89,0,10.899l97.395,97.395    c1.505,1.504,3.479,2.258,5.45,2.258c1.972,0,3.945-0.752,5.45-2.258C289.894,330.402,289.894,325.521,286.884,322.513z" fill="#666666"/>
	</g>
</g>
<g>
</g>
<g>
</g>
<g>
</g>
<g>
</g>
<g>
</g>
<g>
</g>
<g>
</g>
<g>
</g>
<g>
</g>
<g>
</g>
<g>
</g>
<g>
</g>
<g>
</g>
<g>
</g>
<g>
</g>
</svg>
