<?xml version="1.0" encoding="iso-8859-1"?>
<!-- Generator: Adobe Illustrator 19.0.0, SVG Export Plug-In . SVG Version: 6.00 Build 0)  -->
<svg xmlns="http://www.w3.org/2000/svg" xmlns:xlink="http://www.w3.org/1999/xlink" version="1.1" id="Capa_1" x="0px" y="0px" viewBox="0 0 511.999 511.999" style="enable-background:new 0 0 511.999 511.999;" xml:space="preserve" width="512px" height="512px">
<g>
	<g>
		<path d="M509.771,18.558c2.97-2.97,2.97-7.784,0-10.753c-2.971-2.97-7.784-2.97-10.754,0l-19.791,19.791H263.044l-17.509-17.51    c-2.97-2.97-7.784-2.97-10.753,0c-2.97,2.97-2.97,7.784,0,10.753l16.66,16.66l-76.59,294.474l-17.842,17.842    c-2.97,2.97-2.97,7.784,0,10.753c1.484,1.484,3.431,2.227,5.377,2.227c1.946,0,3.892-0.742,5.376-2.227l17.842-17.842    l138.786-36.096c4.065-1.056,6.502-5.208,5.445-9.273c-1.056-4.064-5.206-6.504-9.273-5.445l-113.722,29.577l164.295-164.295    l96.472,96.472l-116.393,30.273c-4.065,1.056-6.502,5.208-5.445,9.273c1.056,4.064,5.205,6.504,9.273,5.445l125.035-32.52    l16.66,16.66c1.485,1.484,3.432,2.227,5.377,2.227c1.946,0,3.892-0.742,5.378-2.227c2.97-2.97,2.97-7.784,0-10.753l-17.51-17.51    V38.349L509.771,18.558z M196.087,310.735l67.822-260.768l96.473,96.473L196.087,310.735z M371.135,135.687l-92.884-92.884    h185.767L371.135,135.687z M474.773,239.324l-92.884-92.884l92.884-92.883V239.324z" fill="#666666"/>
	</g>
</g>
<g>
	<g>
		<path d="M180.961,470.615c-1.413-30.293-39.167-61.598-79.139-94.741c-33.444-27.731-68.027-56.405-68.979-76.837    c-0.224-4.82,1.551-8.946,5.589-12.983c3.264-3.265,5.661-3.421,7.184-3.253c12.034,1.319,29.171,28.23,42.941,49.852    c16.663,26.166,31.052,48.763,46.95,50.505c3.944,0.431,9.829-0.233,15.457-5.861c2.97-2.97,2.97-7.784,0-10.753    c-2.97-2.97-7.784-2.97-10.753,0c-1.65,1.651-2.558,1.55-3.047,1.497c-8.645-0.948-24.329-25.575-35.779-43.556    c-17.91-28.123-34.825-54.688-54.112-56.802c-4.92-0.538-12.32,0.344-19.595,7.618c-7.079,7.079-10.453,15.304-10.027,24.445    c1.264,27.143,36.819,56.624,74.463,87.837c34.008,28.198,72.554,60.159,73.653,83.74c0.287,6.154-2.104,11.676-7.308,16.879    c-3.145,3.145-5.041,3.041-5.664,3.003c-6.341-0.356-16.274-12.81-25.038-23.798c-15.701-19.685-35.24-44.184-62.965-44.799    c-20.156-0.445-40.749,11.681-62.917,37.077c-2.762,3.164-2.435,7.967,0.728,10.73c3.163,2.761,7.967,2.436,10.73-0.728    c18.755-21.487,35.966-32.206,51.123-31.874c20.611,0.457,36.974,20.975,51.413,39.077c12.309,15.434,22.94,28.763,36.075,29.5    c0.377,0.021,0.752,0.031,1.126,0.031c5.761,0,11.187-2.508,16.145-7.465C177.499,490.673,181.45,481.137,180.961,470.615z" fill="#666666"/>
	</g>
</g>
<g>
</g>
<g>
</g>
<g>
</g>
<g>
</g>
<g>
</g>
<g>
</g>
<g>
</g>
<g>
</g>
<g>
</g>
<g>
</g>
<g>
</g>
<g>
</g>
<g>
</g>
<g>
</g>
<g>
</g>
</svg>
