<?xml version="1.0" encoding="iso-8859-1"?>
<!-- Generator: Adobe Illustrator 19.0.0, SVG Export Plug-In . SVG Version: 6.00 Build 0)  -->
<svg xmlns="http://www.w3.org/2000/svg" xmlns:xlink="http://www.w3.org/1999/xlink" version="1.1" id="Capa_1" x="0px" y="0px" viewBox="0 0 511.999 511.999" style="enable-background:new 0 0 511.999 511.999;" xml:space="preserve" width="512px" height="512px">
<g>
	<g>
		<path d="M216.495,365.281c-7.622,0.047-16.55,1.234-24.975,9.671c-9.974,9.968-9.787,20.444-9.636,28.861    c0.13,7.222,0.223,12.441-5.183,17.851c-5.412,5.413-10.627,5.319-17.854,5.187c-8.417-0.151-18.89-0.341-28.856,9.631    c-9.973,9.972-9.786,20.446-9.635,28.862c0.13,7.221,0.223,12.438-5.183,17.848l-3.735,3.735    c-6.379,6.378-14.859,9.891-23.878,9.891s-17.499-3.513-23.878-9.891c-6.378-6.379-9.891-14.86-9.891-23.883    c0-9.023,3.513-17.505,9.891-23.883l109.573-109.573c2.964-2.964,2.964-7.77,0-10.735c-2.964-2.965-7.77-2.965-10.735,0    L52.946,428.425c-9.247,9.246-14.339,21.54-14.339,34.618s5.093,25.372,14.339,34.618c9.246,9.247,21.539,14.339,34.613,14.339    c13.075,0,25.367-5.092,34.615-14.34l3.737-3.737c9.963-9.97,9.776-20.44,9.625-28.853c-0.13-7.223-0.224-12.442,5.192-17.857    c5.406-5.41,10.618-5.316,17.844-5.185c8.416,0.154,18.892,0.342,28.866-9.632c9.963-9.97,9.776-20.442,9.625-28.857    c-0.13-7.223-0.223-12.441,5.195-17.855c4.335-4.342,8.381-5.185,14.33-5.222c4.192-0.025,7.57-3.445,7.544-7.637    C224.107,368.633,220.712,365.22,216.495,365.281z" fill="#666666"/>
	</g>
</g>
<g>
	<g>
		<path d="M307.918,150.452c-2.963-2.965-7.77-2.965-10.735,0l-86.412,86.412c-2.964,2.964-2.964,7.77,0,10.735    c1.482,1.483,3.425,2.224,5.367,2.224s3.886-0.742,5.367-2.224l86.412-86.412C310.882,158.222,310.882,153.417,307.918,150.452z" fill="#666666"/>
	</g>
</g>
<g>
	<g>
		<path d="M457.687,4.444c-1.031-2.265-3.108-3.879-5.557-4.323c-2.448-0.443-4.958,0.342-6.718,2.102l-131.91,131.91    c-2.965,2.965-2.965,7.77,0,10.735c2.963,2.964,7.77,2.964,10.735,0L448.121,20.983c10.045,26.793,12.655,55.598,7.524,83.967    c-5.791,32.023-21.016,61.111-44.025,84.122L287.299,313.393c-2.965,2.965-2.965,7.77,0,10.735    c1.482,1.483,3.425,2.224,5.367,2.224c1.943,0,3.886-0.742,5.368-2.224l124.321-124.319c25.208-25.208,41.886-57.075,48.23-92.155    C476.929,72.573,472.469,36.885,457.687,4.444z" fill="#666666"/>
	</g>
</g>
<g>
	<g>
		<path d="M296.653,348.164L186.734,238.245c-5.418-5.419-12.622-8.403-20.285-8.403s-14.866,2.984-20.285,8.403    c-11.185,11.185-11.185,29.385,0,40.57l109.919,109.919c5.418,5.419,12.622,8.403,20.285,8.403s14.867-2.984,20.285-8.403    c5.419-5.418,8.403-12.622,8.403-20.285S302.072,353.581,296.653,348.164z M285.919,377.998c-2.552,2.551-5.943,3.955-9.55,3.955    c-3.608,0-6.999-1.405-9.55-3.955l-109.92-109.919c-5.266-5.266-5.266-13.834,0-19.1c2.552-2.551,5.943-3.955,9.55-3.955    c3.607,0,6.999,1.405,9.549,3.955l109.921,109.919c2.551,2.551,3.955,5.942,3.955,9.549    C289.875,372.056,288.471,375.447,285.919,377.998z" fill="#666666"/>
	</g>
</g>
<g>
	<g>
		<path d="M303.87,186.639c-2.964-2.965-7.77-2.965-10.735,0l-36.436,36.436c-2.965,2.964-2.965,7.77,0,10.735    c1.482,1.483,3.425,2.224,5.367,2.224c1.943,0,3.885-0.741,5.367-2.224l36.436-36.436    C306.835,194.409,306.835,189.603,303.87,186.639z" fill="#666666"/>
	</g>
</g>
<g>
</g>
<g>
</g>
<g>
</g>
<g>
</g>
<g>
</g>
<g>
</g>
<g>
</g>
<g>
</g>
<g>
</g>
<g>
</g>
<g>
</g>
<g>
</g>
<g>
</g>
<g>
</g>
<g>
</g>
</svg>
