<?xml version="1.0" encoding="iso-8859-1"?>
<!-- Generator: Adobe Illustrator 19.0.0, SVG Export Plug-In . SVG Version: 6.00 Build 0)  -->
<svg xmlns="http://www.w3.org/2000/svg" xmlns:xlink="http://www.w3.org/1999/xlink" version="1.1" id="Capa_1" x="0px" y="0px" viewBox="0 0 512 512" style="enable-background:new 0 0 512 512;" xml:space="preserve" width="512px" height="512px">
<g>
	<g>
		<path d="M371.584,444.236c-0.711-4.139-4.641-6.916-8.781-6.207c-4.14,0.711-6.918,4.642-6.207,8.781    c0.563,3.275,0.848,6.637,0.848,9.993v39.99H154.557v-39.99c0-32.303,26.28-58.583,58.583-58.583h85.72    c20.518,0,39.808,10.959,50.34,28.599c2.152,3.605,6.819,4.783,10.427,2.631c3.606-2.153,4.783-6.821,2.631-10.427    c-13.262-22.213-37.555-36.011-63.398-36.011h-85.72c-40.688,0-73.791,33.102-73.791,73.791v47.594    c0,4.199,3.405,7.604,7.604,7.604h218.093c4.199,0,7.604-3.405,7.604-7.604v-47.594    C372.652,452.586,372.293,448.358,371.584,444.236z" fill="#666666"/>
	</g>
</g>
<g>
	<g>
		<path d="M349.686,356.724c-4.656-4.64-10.833-7.196-17.393-7.196H179.707c-13.568,0-24.606,11.043-24.606,24.617    c0,5.19,1.6,10.155,4.626,14.358c1.486,2.064,3.814,3.161,6.177,3.161c1.539,0,3.092-0.465,4.437-1.434    c3.408-2.454,4.182-7.206,1.728-10.614c-1.152-1.6-1.76-3.492-1.76-5.472c0-5.188,4.216-9.409,9.398-9.409h152.586    c2.507,0,4.872,0.98,6.639,2.742c1.779,1.785,2.76,4.153,2.76,6.667c0,1.984-0.608,3.88-1.757,5.483    c-2.448,3.412-1.668,8.162,1.745,10.61c3.411,2.449,8.163,1.666,10.611-1.746c3.015-4.202,4.609-9.164,4.609-14.348    C356.899,367.578,354.343,361.398,349.686,356.724z" fill="#666666"/>
	</g>
</g>
<g>
	<g>
		<path d="M350.238,183.461c-4.149-0.616-8.025,2.241-8.646,6.394c-0.682,4.561-4.681,8-9.3,8H179.706c-4.619,0-8.617-3.439-9.299-8    c-0.622-4.153-4.487-7.012-8.646-6.394c-4.153,0.623-7.016,4.493-6.394,8.646c1.789,11.946,12.253,20.955,24.34,20.955h152.586    c12.087,0,22.552-9.009,24.341-20.955C357.254,187.953,354.392,184.082,350.238,183.461z" fill="#666666"/>
	</g>
</g>
<g>
	<g>
		<path d="M331.019,112.778c-18.31-13.659-42.017-21.712-67.415-23.059V76.82c0-4.199-3.405-7.604-7.604-7.604    s-7.604,3.405-7.604,7.604v12.898c-25.397,1.347-49.103,9.401-67.415,23.059c-20.795,15.512-32.248,36.346-32.248,58.664    c0.001,4.199,3.406,7.604,7.605,7.604h199.324c4.199,0,7.604-3.405,7.604-7.604C363.266,149.124,351.814,128.29,331.019,112.778z     M164.537,163.838c5.223-33.232,44.251-59.136,91.463-59.136c47.213,0,86.24,25.904,91.464,59.136H164.537z" fill="#666666"/>
	</g>
</g>
<g>
	<g>
		<path d="M310.617,0H212.13c-26.236,0-47.58,21.345-47.58,47.58v56.888c0,4.199,3.405,7.604,7.604,7.604s7.604-3.405,7.604-7.604    V47.58c0-17.85,14.523-32.373,32.373-32.373h98.486c17.85,0,32.373,14.523,32.373,32.373v66.976c0,4.199,3.405,7.604,7.604,7.604    s7.604-3.405,7.604-7.604V47.58C358.197,21.345,336.852,0,310.617,0z" fill="#666666"/>
	</g>
</g>
<g>
	<g>
		<path d="M180.164,221.295c-4.199,0-7.604,3.405-7.604,7.604v104.794c0,4.199,3.405,7.604,7.604,7.604s7.604-3.405,7.604-7.604    V228.899C187.768,224.7,184.364,221.295,180.164,221.295z" fill="#666666"/>
	</g>
</g>
<g>
	<g>
		<path d="M331.837,221.295c-4.199,0-7.604,3.405-7.604,7.604v104.794c0,4.199,3.405,7.604,7.604,7.604s7.604-3.405,7.604-7.604    V228.899C339.441,224.7,336.036,221.295,331.837,221.295z" fill="#666666"/>
	</g>
</g>
<g>
	<g>
		<path d="M215.812,221.295c-4.199,0-7.604,3.405-7.604,7.604v104.794c0,4.199,3.405,7.604,7.604,7.604s7.604-3.405,7.604-7.604    V228.899C223.416,224.7,220.011,221.295,215.812,221.295z" fill="#666666"/>
	</g>
</g>
<g>
	<g>
		<path d="M296.189,221.295c-4.199,0-7.604,3.405-7.604,7.604v104.794c0,4.199,3.405,7.604,7.604,7.604s7.604-3.405,7.604-7.604    V228.899C303.793,224.7,300.389,221.295,296.189,221.295z" fill="#666666"/>
	</g>
</g>
<g>
</g>
<g>
</g>
<g>
</g>
<g>
</g>
<g>
</g>
<g>
</g>
<g>
</g>
<g>
</g>
<g>
</g>
<g>
</g>
<g>
</g>
<g>
</g>
<g>
</g>
<g>
</g>
<g>
</g>
</svg>
