<?xml version="1.0" encoding="iso-8859-1"?>
<!-- Generator: Adobe Illustrator 19.0.0, SVG Export Plug-In . SVG Version: 6.00 Build 0)  -->
<svg xmlns="http://www.w3.org/2000/svg" xmlns:xlink="http://www.w3.org/1999/xlink" version="1.1" id="Capa_1" x="0px" y="0px" viewBox="0 0 511.999 511.999" style="enable-background:new 0 0 511.999 511.999;" xml:space="preserve" width="512px" height="512px">
<g>
	<g>
		<path d="M437.021,74.983C388.67,26.633,324.385,0.005,256.007,0.005S123.343,26.634,74.994,74.984    c-34.57,34.57-58.4,77.958-68.913,125.474c-10.233,46.248-7.511,94.321,7.87,139.023c1.367,3.971,5.693,6.085,9.664,4.715    c3.971-1.367,6.082-5.693,4.715-9.664c-14.469-42.052-17.028-87.278-7.401-130.788c9.34-42.216,29.869-80.967,59.529-112.54    l76.245,76.245c-21.816,24.402-33.75,55.558-33.75,88.551s11.935,64.148,33.75,88.551l-76.241,76.241    c-16.816-17.891-30.705-38.04-41.32-60.007c-1.827-3.781-6.373-5.365-10.155-3.538c-3.781,1.827-5.365,6.374-3.538,10.155    c12.452,25.769,29.121,49.19,49.543,69.613c48.351,48.351,112.636,74.979,181.013,74.979s132.664-26.628,181.013-74.979    c48.35-48.351,74.979-112.636,74.979-181.013C512,187.62,485.371,123.334,437.021,74.983z M138.16,255.997    c0-31.477,12.258-61.071,34.517-83.33c22.974-22.974,53.152-34.461,83.33-34.461c30.179,0,60.356,11.488,83.33,34.461    c22.259,22.259,34.516,51.852,34.516,83.33c0,31.479-12.258,61.072-34.516,83.33c-45.948,45.948-120.712,45.949-166.66,0    C150.419,317.068,138.16,287.474,138.16,255.997z M256.008,496.783c-61.776,0-119.99-23.117-164.792-65.24l76.242-76.242    c25.15,22.454,56.849,33.689,88.549,33.689c31.701,0,63.399-11.234,88.55-33.689l76.242,76.242    C375.997,473.665,317.783,496.783,256.008,496.783z M431.551,420.788l-76.24-76.241c21.816-24.402,33.749-55.557,33.749-88.551    s-11.934-64.148-33.749-88.551l33.174-33.174c2.969-2.969,2.969-7.784,0-10.753c-2.969-2.969-7.784-2.969-10.753,0l-33.175,33.176    c-50.301-44.91-126.798-44.91-177.099,0L91.216,80.453c44.802-42.123,103.017-65.24,164.791-65.24    c61.775,0,119.989,23.117,164.791,65.24l-23.804,23.804c-2.97,2.969-2.97,7.784,0,10.753c1.484,1.484,3.431,2.227,5.376,2.227    s3.892-0.742,5.376-2.227l23.804-23.804c42.124,44.802,65.241,103.017,65.241,164.791    C496.792,317.771,473.675,375.986,431.551,420.788z" fill="#666666"/>
	</g>
</g>
<g>
	<g>
		<path d="M346.234,197.603c-3.23-1.532-6.014-3.744-8.96-6.087c-6.61-5.253-14.836-11.791-30.248-11.791    c-15.406,0-23.63,6.536-30.238,11.788c-5.967,4.743-10.682,8.489-20.789,8.489s-14.82-3.746-20.788-8.489    c-6.608-5.252-14.832-11.788-30.239-11.788c-15.416,0-23.642,6.54-30.251,11.795c-2.944,2.342-5.725,4.552-8.951,6.083    c-3.794,1.801-5.409,6.336-3.608,10.13c1.803,3.795,6.335,5.412,10.131,3.609c4.802-2.28,8.57-5.275,11.893-7.918    c5.966-4.745,10.68-8.491,20.786-8.491c10.099,0,14.811,3.745,20.776,8.486c6.61,5.253,14.835,11.791,30.25,11.791    c15.414,0,23.641-6.538,30.25-11.791c5.965-4.741,10.678-8.486,20.776-8.486c10.105,0,14.818,3.746,20.786,8.489    c3.327,2.644,7.098,5.641,11.906,7.921c3.795,1.799,8.329,0.182,10.128-3.612C351.646,203.937,350.029,199.403,346.234,197.603z" fill="#666666"/>
	</g>
</g>
<g>
	<g>
		<path d="M356.81,259.074c-9.253-0.3-13.79-3.905-19.531-8.47c-6.61-5.254-14.836-11.791-30.252-11.791    c-15.406,0-23.63,6.536-30.238,11.788c-5.967,4.743-10.682,8.489-20.789,8.489s-14.82-3.746-20.788-8.489    c-6.608-5.252-14.832-11.788-30.239-11.788c-15.413,0-23.639,6.538-30.25,11.791c-5.74,4.562-10.273,8.164-19.516,8.47    c-4.197,0.139-7.487,3.653-7.349,7.85c0.138,4.196,3.612,7.465,7.85,7.349c14.268-0.47,22.146-6.732,28.477-11.763    c5.967-4.744,10.682-8.49,20.788-8.49c10.099,0,14.811,3.745,20.776,8.486c6.61,5.253,14.835,11.791,30.25,11.791    s23.641-6.538,30.25-11.791c5.965-4.741,10.678-8.486,20.776-8.486c10.108,0,14.822,3.746,20.79,8.49    c6.334,5.034,14.217,11.299,28.5,11.763c4.212,0.134,7.71-3.155,7.847-7.352S361.007,259.211,356.81,259.074z" fill="#666666"/>
	</g>
</g>
<g>
	<g>
		<path d="M340.307,312.046c-1.031-0.776-2.034-1.572-3.037-2.369c-6.608-5.248-14.832-11.779-30.244-11.779    c-15.406,0-23.63,6.536-30.238,11.788c-5.967,4.743-10.682,8.489-20.789,8.489s-14.82-3.746-20.788-8.489    c-6.608-5.252-14.832-11.788-30.239-11.788c-15.402,0-23.625,6.53-30.232,11.778c-1.004,0.797-2.006,1.595-3.038,2.37    c-3.357,2.523-4.033,7.289-1.51,10.646c2.524,3.358,7.292,4.034,10.648,1.51c1.14-0.857,2.25-1.737,3.359-2.618    c5.965-4.737,10.677-8.479,20.774-8.479c10.099,0,14.811,3.745,20.776,8.486c6.61,5.253,14.835,11.791,30.25,11.791    s23.641-6.538,30.25-11.791c5.965-4.741,10.678-8.486,20.776-8.486c10.107,0,14.82,3.742,20.786,8.48    c1.109,0.881,2.218,1.761,3.358,2.617c3.357,2.523,8.123,1.847,10.646-1.51S343.664,314.569,340.307,312.046z" fill="#666666"/>
	</g>
</g>
<g>
</g>
<g>
</g>
<g>
</g>
<g>
</g>
<g>
</g>
<g>
</g>
<g>
</g>
<g>
</g>
<g>
</g>
<g>
</g>
<g>
</g>
<g>
</g>
<g>
</g>
<g>
</g>
<g>
</g>
</svg>
