<?xml version="1.0" encoding="iso-8859-1"?>
<!-- Generator: Adobe Illustrator 19.0.0, SVG Export Plug-In . SVG Version: 6.00 Build 0)  -->
<svg xmlns="http://www.w3.org/2000/svg" xmlns:xlink="http://www.w3.org/1999/xlink" version="1.1" id="Capa_1" x="0px" y="0px" viewBox="0 0 512 512" style="enable-background:new 0 0 512 512;" xml:space="preserve" width="512px" height="512px">
<g>
	<g>
		<path d="M255.995,336.112c-4.2,0-7.604,3.405-7.604,7.604v24.335c0,4.199,3.404,7.604,7.604,7.604c4.2,0,7.604-3.405,7.604-7.604    v-24.335C263.599,339.516,260.196,336.112,255.995,336.112z" fill="#666666"/>
	</g>
</g>
<g>
	<g>
		<path d="M483.343,208.317c-32.68,0-59.268-26.583-59.268-59.258V87.973c0-4.199-3.404-7.604-7.604-7.604s-7.604,3.405-7.604,7.604    v61.086c0,38.494,29.364,70.26,66.872,74.081v43.815H300.442h-88.886H36.263v-43.815c37.498-3.82,66.852-35.586,66.852-74.081    V15.208h40.463c2.29,33.733,19.715,64.932,47.589,84.565c7.695,5.43,16.055,9.877,24.853,13.22    c19.317,7.329,32.328,26.435,32.375,47.527v87.034c0,4.199,3.404,7.604,7.604,7.604s7.604-3.405,7.604-7.604v-87.034    c0-21.276,12.945-40.022,32.98-47.76c20.993-8.111,38.925-22.188,51.858-40.712c11.783-16.877,18.622-36.389,19.981-56.84h40.448    v47.417c0,4.199,3.404,7.604,7.604,7.604s7.604-3.405,7.604-7.604V7.604c0-4.199-3.404-7.604-7.604-7.604h-55.403    c-4.2,0-7.604,3.405-7.604,7.604c0,20.072-6.05,39.346-17.495,55.739c-11.194,16.032-26.71,28.216-44.869,35.231    c-15.569,6.013-27.825,17.177-35.143,31.109c-7.313-13.964-19.447-25.181-34.541-30.907c-7.602-2.888-14.829-6.733-21.487-11.431    c-25.923-18.261-41.401-48.07-41.401-79.74c0-4.199-3.404-7.604-7.604-7.604H95.51c-4.2,0-7.604,3.405-7.604,7.604v141.455    c0,32.675-26.578,59.258-59.248,59.258c-4.2,0-7.604,3.405-7.604,7.604v58.638v47.761v67.122v47.761v67.195    c0,4.199,3.404,7.604,7.604,7.604h227.337h227.348c4.2,0,7.604-3.405,7.604-7.604V215.921    C490.947,211.721,487.544,208.317,483.343,208.317z M308.046,282.162h167.688v32.553H308.046V282.162z M219.16,282.162h73.678    v32.553H219.16V282.162z M36.263,282.162h167.689v32.553H36.263V282.162z M475.739,496.792h-212.14v-32.591    c0-4.199-3.404-7.604-7.604-7.604c-4.2,0-7.604,3.405-7.604,7.604v32.591H36.263v-51.987h175.293h88.886h175.297V496.792z     M219.16,429.598v-32.553h73.678v32.553H219.16z M308.046,429.598v-32.553h167.688v32.553H308.046z M475.739,381.837H300.442    h-88.886h-71.837c-4.2,0-7.604,3.405-7.604,7.604s3.404,7.604,7.604,7.604h64.233v32.553H36.263v-32.553h78.108    c4.2,0,7.604-3.405,7.604-7.604s-3.404-7.604-7.604-7.604H36.263v-51.914h175.293h88.886h175.297V381.837z" fill="#666666"/>
	</g>
</g>
<g>
	<g>
		<path d="M351.406,145.383c-26.958,0-48.89,21.931-48.89,48.889c0,26.958,21.932,48.889,48.89,48.889    c26.958,0,48.889-21.932,48.889-48.889S378.363,145.383,351.406,145.383z M351.405,227.954c-18.573,0-33.682-15.109-33.682-33.681    s15.11-33.681,33.682-33.681c18.573,0,33.681,15.11,33.681,33.681C385.086,212.845,369.978,227.954,351.405,227.954z" fill="#666666"/>
	</g>
</g>
<g>
	<g>
		<path d="M345.748,23.827c-1.164-4.035-5.381-6.362-9.414-5.198c-52.563,15.166-108.125,15.166-160.688,0    c-4.034-1.164-8.25,1.163-9.414,5.198c-1.164,4.035,1.163,8.25,5.198,9.414c27.659,7.981,56.11,11.972,84.56,11.972    c28.45,0,56.9-3.991,84.559-11.972C344.584,32.076,346.912,27.862,345.748,23.827z" fill="#666666"/>
	</g>
</g>
<g>
</g>
<g>
</g>
<g>
</g>
<g>
</g>
<g>
</g>
<g>
</g>
<g>
</g>
<g>
</g>
<g>
</g>
<g>
</g>
<g>
</g>
<g>
</g>
<g>
</g>
<g>
</g>
<g>
</g>
</svg>
