<?xml version="1.0" encoding="iso-8859-1"?>
<!-- Generator: Adobe Illustrator 19.0.0, SVG Export Plug-In . SVG Version: 6.00 Build 0)  -->
<svg xmlns="http://www.w3.org/2000/svg" xmlns:xlink="http://www.w3.org/1999/xlink" version="1.1" id="Capa_1" x="0px" y="0px" viewBox="0 0 512 512" style="enable-background:new 0 0 512 512;" xml:space="preserve" width="512px" height="512px">
<g>
	<g>
		<path d="M287.037,112.343c-2.295-2.295-5.797-2.878-8.713-1.451l-62.835,30.765c-1.569,0.719-2.879,1.964-3.666,3.57    l-30.852,63.012c-1.427,2.915-0.844,6.416,1.451,8.712c1.458,1.458,3.402,2.225,5.374,2.225c1.132,0,2.275-0.253,3.339-0.774    l63.013-30.852c1.579-0.773,2.807-2.051,3.53-3.586l30.808-62.909C289.915,118.14,289.333,114.639,287.037,112.343z     M245.127,175.052l-40.76,19.956l19.956-40.758l40.766-19.96L245.127,175.052z" fill="#666666"/>
	</g>
</g>
<g>
	<g>
		<path d="M269.001,73.697c0.135-1.241,0.21-2.491,0.21-3.751c0-19.012-15.468-34.479-34.479-34.479s-34.479,15.468-34.479,34.479    c0,1.244,0.073,2.48,0.205,3.704c-8.875,3.346-17.272,8.008-24.979,13.942c-3.324,2.56-3.945,7.329-1.385,10.654    c2.559,3.323,7.327,3.945,10.654,1.385c14.433-11.112,31.717-16.986,49.983-16.986c45.219,0,82.006,36.787,82.006,82.006    s-36.787,82.006-82.006,82.006s-82.006-36.787-82.006-82.006c0-16.434,4.841-32.287,14-45.846    c2.348-3.476,1.434-8.198-2.043-10.547c-3.476-2.349-8.198-1.434-10.547,2.043c-10.862,16.079-16.604,34.873-16.604,54.35v43.436    c0,53.597,43.603,97.2,97.199,97.2c53.596,0,97.199-43.603,97.199-97.199v-43.436C331.929,123.114,305.736,87.585,269.001,73.697z     M234.73,67.452c-6.545,0.001-12.981,0.648-19.253,1.9c0.318-10.357,8.821-18.691,19.255-18.691    c10.44,0,18.948,8.344,19.256,18.71C247.761,68.114,241.322,67.452,234.73,67.452z M234.73,290.093    c-41.976,0-76.666-31.709-81.427-72.427c17.365,26.58,47.377,44.184,81.427,44.184s64.063-17.604,81.427-44.184    C311.396,258.385,276.706,290.093,234.73,290.093z" fill="#666666"/>
	</g>
</g>
<g>
	<g>
		<path d="M241.934,162.271c-0.939-2.818-3.491-4.888-6.459-5.178c-3.368-0.328-6.61,1.677-7.831,4.828    c-1.258,3.252-0.059,7.12,2.864,9.045c2.715,1.787,6.322,1.664,8.892-0.329C241.903,168.698,242.934,165.273,241.934,162.271z" fill="#666666"/>
	</g>
</g>
<g>
	<g>
		<path d="M241.332,90.953c-1.581-2.822-4.916-4.34-8.087-3.701c-3.133,0.632-5.556,3.189-6.026,6.345    c-0.501,3.371,1.426,6.836,4.607,8.109c2.952,1.245,6.487,0.407,8.598-1.985C242.557,97.304,242.904,93.758,241.332,90.953z" fill="#666666"/>
	</g>
</g>
<g>
	<g>
		<path d="M241.043,230.393c-1.625-2.469-4.705-3.785-7.614-3.265c-3.251,0.582-5.84,3.254-6.234,6.55    c-0.353,2.948,1.07,5.922,3.631,7.446c2.795,1.662,6.398,1.342,8.866-0.767C242.579,237.891,243.12,233.542,241.043,230.393z" fill="#666666"/>
	</g>
</g>
<g>
	<g>
		<path d="M308.097,157.873c-2.991-1.5-6.71-0.84-8.989,1.622c-2.366,2.552-2.642,6.483-0.734,9.375    c3.658,5.567,12.477,3.72,13.755-2.735C312.785,162.818,311.121,159.39,308.097,157.873z" fill="#666666"/>
	</g>
</g>
<g>
	<g>
		<path d="M166.261,157.202c-6.707-1.314-11.631,6.527-7.576,11.987c4.075,5.487,12.964,2.931,13.647-3.794    C172.724,161.532,170.018,158.001,166.261,157.202z" fill="#666666"/>
	</g>
</g>
<g>
	<g>
		<path d="M121.045,143.977H85.057c-4.196,0-7.597,3.401-7.597,7.597c0,4.195,3.4,7.597,7.597,7.597h35.988    c4.196,0,7.597-3.401,7.597-7.597C128.641,147.378,125.241,143.977,121.045,143.977z" fill="#666666"/>
	</g>
</g>
<g>
	<g>
		<path d="M426.938,143.977h-75.967c-4.196,0-7.597,3.401-7.597,7.597c0,4.195,3.4,7.597,7.597,7.597h75.967    c4.196,0,7.597-3.401,7.597-7.597C434.535,147.378,431.135,143.977,426.938,143.977z" fill="#666666"/>
	</g>
</g>
<g>
	<g>
		<path d="M352.014,461.339H60.766c-25.128,0-45.569-20.443-45.569-45.57c0-25.133,20.442-45.58,45.569-45.58    c4.196,0,7.597-3.401,7.597-7.597V45.22c0-4.195-3.4-7.597-7.597-7.597c-33.451,0-60.671,27.177-60.758,60.614    C0.007,98.29,0,98.342,0,98.395v317.371c0,0.052,0.007,0.102,0.008,0.154c0.082,33.436,27.305,60.612,60.758,60.612h291.247    c4.196,0,7.597-3.401,7.597-7.597C359.61,464.741,356.21,461.339,352.014,461.339z M15.193,98.474    c0-0.026,0.004-0.052,0.004-0.078c0-22.546,16.447-41.32,37.972-44.947v302.018c-15.057,1.887-28.415,9.308-37.976,20.155V98.474z    " fill="#666666"/>
	</g>
</g>
<g>
	<g>
		<path d="M451.226,37.623c-4.196,0-7.597,3.401-7.597,7.597v317.373c0,4.195,3.4,7.597,7.597,7.597    c25.133,0,45.58,20.447,45.58,45.58c0,25.128-20.447,45.57-45.58,45.57h-73.888c-4.196,0-7.597,3.401-7.597,7.597    c0,4.195,3.4,7.597,7.597,7.597h73.888c33.511,0,60.774-27.259,60.774-60.763V98.396C512,64.886,484.737,37.623,451.226,37.623z     M496.807,375.621c-9.564-10.845-22.924-18.266-37.983-20.154V53.449c21.53,3.627,37.983,22.402,37.983,44.947V375.621z" fill="#666666"/>
	</g>
</g>
<g>
	<g>
		<path d="M416.613,264.694l-17.12-17.12l17.12-17.12c2.964-2.967,2.964-7.777-0.002-10.743c-2.968-2.967-7.777-2.968-10.744,0    l-17.119,17.119l-17.119-17.119c-2.968-2.967-7.777-2.967-10.744,0c-2.967,2.967-2.967,7.777,0,10.743l17.12,17.12l-17.12,17.12    c-2.967,2.967-2.967,7.777,0,10.743c1.484,1.484,3.428,2.225,5.372,2.225c1.944,0,3.888-0.741,5.372-2.225l17.119-17.119    l17.119,17.119c1.484,1.483,3.429,2.225,5.372,2.225c1.944,0,3.888-0.741,5.372-2.225    C419.58,272.47,419.58,267.66,416.613,264.694z" fill="#666666"/>
	</g>
</g>
<g>
	<g>
		<path d="M293.553,422.605c-5.439-1.251-11.386-3.166-18.178-5.856c-3.902-1.545-8.315,0.366-9.859,4.266    c-1.544,3.901,0.366,8.315,4.267,9.859c7.512,2.974,14.173,5.112,20.366,6.536c0.572,0.132,1.146,0.194,1.71,0.194    c3.46,0,6.588-2.38,7.397-5.896C300.195,427.622,297.643,423.545,293.553,422.605z" fill="#666666"/>
	</g>
</g>
<g>
	<g>
		<path d="M388.448,290.642c-4.196,0-7.597,3.401-7.597,7.597c0,5.139-0.532,11.969-1.498,19.233    c-0.553,4.159,2.37,7.979,6.528,8.533c0.34,0.045,0.678,0.067,1.012,0.067c3.75,0,7.012-2.777,7.521-6.596    c1.068-8.021,1.631-15.365,1.631-21.236C396.045,294.044,392.645,290.642,388.448,290.642z" fill="#666666"/>
	</g>
</g>
<g>
	<g>
		<path d="M342.94,419.316c-2.259-3.536-6.957-4.574-10.492-2.315c-5.023,3.206-10.401,5.387-15.986,6.482    c-4.116,0.807-6.801,4.799-5.992,8.917c0.71,3.623,3.888,6.136,7.447,6.136c0.485,0,0.976-0.047,1.47-0.144    c7.458-1.463,14.604-4.35,21.236-8.584C344.16,427.549,345.198,422.853,342.94,419.316z" fill="#666666"/>
	</g>
</g>
<g>
	<g>
		<path d="M383.8,337.008c-4.074-0.992-8.183,1.512-9.174,5.589c-1.583,6.521-3.412,12.862-5.436,18.846    c-1.344,3.975,0.788,8.286,4.763,9.631c0.806,0.272,1.627,0.402,2.434,0.402c3.168,0,6.124-1.997,7.196-5.165    c2.167-6.404,4.119-13.177,5.808-20.128C390.381,342.105,387.878,337.997,383.8,337.008z" fill="#666666"/>
	</g>
</g>
<g>
	<g>
		<path d="M125.003,392.171c-2.972-2.965-7.782-2.961-10.745,0.009c-4.82,4.831-9.34,10.695-13.432,17.434    c-2.178,3.587-1.036,8.258,2.55,10.437c1.232,0.749,2.592,1.104,3.936,1.104c2.566,0,5.071-1.301,6.5-3.655    c3.465-5.705,7.233-10.613,11.201-14.587C127.977,399.944,127.973,395.134,125.003,392.171z" fill="#666666"/>
	</g>
</g>
<g>
	<g>
		<path d="M369.699,381.421c-3.726-1.924-8.31-0.464-10.235,3.265c-3.094,5.992-6.46,11.404-10.006,16.086    c-2.532,3.345-1.875,8.109,1.471,10.642c1.371,1.039,2.982,1.541,4.579,1.541c2.298,0,4.568-1.038,6.062-3.011    c4.069-5.372,7.902-11.525,11.393-18.287C374.888,387.929,373.427,383.346,369.699,381.421z" fill="#666666"/>
	</g>
</g>
<g>
	<g>
		<path d="M209.459,385.921c-7.192-3.063-13.639-5.465-19.711-7.343c-4.007-1.241-8.263,1.003-9.504,5.011    c-1.241,4.008,1.003,8.263,5.011,9.503c5.573,1.725,11.543,3.951,18.253,6.809c0.97,0.413,1.979,0.609,2.972,0.609    c2.955,0,5.763-1.733,6.993-4.623C215.117,392.026,213.32,387.564,209.459,385.921z" fill="#666666"/>
	</g>
</g>
<g>
	<g>
		<path d="M161.943,373.469c-7.969-0.272-15.609,0.732-22.573,2.989c-3.991,1.292-6.179,5.577-4.885,9.568    c1.041,3.213,4.02,5.257,7.225,5.257c0.777,0,1.565-0.12,2.343-0.372c4.764-1.543,9.773-2.293,15.317-2.293    c0.685,0,1.371,0.012,2.061,0.035c4.161,0.135,7.706-3.142,7.849-7.335C169.422,377.124,166.137,373.611,161.943,373.469z" fill="#666666"/>
	</g>
</g>
<g>
	<g>
		<path d="M251.873,406.17c-3.631-1.767-7.286-3.578-10.956-5.397c-2.391-1.185-4.791-2.374-7.195-3.556    c-3.765-1.853-8.318-0.301-10.169,3.464s-0.301,8.318,3.465,10.169c2.388,1.175,4.774,2.357,7.153,3.536    c3.703,1.836,7.393,3.664,11.058,5.446c1.07,0.521,2.202,0.767,3.316,0.767c2.817,0,5.522-1.572,6.837-4.275    C257.218,412.551,255.647,408.005,251.873,406.17z" fill="#666666"/>
	</g>
</g>
<g>
	<g>
		<path d="M335.973,328.808l-23.59-23.59c-2.967-2.966-7.777-2.966-10.744,0l-23.59,23.59c-2.967,2.967-2.967,7.777,0,10.743    c2.968,2.967,7.777,2.967,10.744,0l18.218-18.219l18.218,18.219c1.484,1.483,3.429,2.225,5.372,2.225s3.888-0.741,5.372-2.225    C338.94,336.584,338.94,331.774,335.973,328.808z" fill="#666666"/>
	</g>
</g>
<g>
	<g>
		<path d="M335.974,361.516l-23.59-23.59c-2.968-2.967-7.777-2.967-10.744,0l-23.59,23.59c-2.967,2.967-2.967,7.777,0,10.743    c2.968,2.967,7.777,2.967,10.744,0l10.621-10.622v20.144c0,4.195,3.4,7.597,7.597,7.597c4.196,0,7.597-3.401,7.597-7.597v-20.144    l10.621,10.622c1.484,1.483,3.429,2.225,5.372,2.225s3.888-0.741,5.372-2.225C338.941,369.292,338.941,364.481,335.974,361.516z" fill="#666666"/>
	</g>
</g>
<g>
	<g>
		<path d="M155.863,295.383l-23.59-23.59c-1.425-1.425-3.357-2.225-5.372-2.225c-2.016,0-3.945,0.801-5.371,2.225l-23.589,23.59    c-2.967,2.967-2.967,7.777,0.001,10.743c1.483,1.484,3.428,2.225,5.371,2.225s3.888-0.741,5.372-2.225l18.217-18.218    l18.218,18.218c2.968,2.967,7.777,2.967,10.744,0C158.83,303.159,158.83,298.349,155.863,295.383z" fill="#666666"/>
	</g>
</g>
<g>
	<g>
		<path d="M155.863,328.089l-23.59-23.59c-1.425-1.425-3.357-2.225-5.372-2.225c-2.016,0-3.946,0.8-5.372,2.225l-23.589,23.59    c-2.967,2.967-2.967,7.777,0.001,10.743c1.483,1.484,3.428,2.225,5.371,2.225s3.888-0.741,5.372-2.225l10.62-10.621v20.143    c0,4.195,3.4,7.597,7.597,7.597c4.196,0,7.598-3.4,7.598-7.596v-20.144l10.621,10.621c2.968,2.967,7.777,2.967,10.744,0    C158.83,335.865,158.83,331.055,155.863,328.089z" fill="#666666"/>
	</g>
</g>
<g>
</g>
<g>
</g>
<g>
</g>
<g>
</g>
<g>
</g>
<g>
</g>
<g>
</g>
<g>
</g>
<g>
</g>
<g>
</g>
<g>
</g>
<g>
</g>
<g>
</g>
<g>
</g>
<g>
</g>
</svg>
