<?xml version="1.0" encoding="iso-8859-1"?>
<!-- Generator: Adobe Illustrator 19.0.0, SVG Export Plug-In . SVG Version: 6.00 Build 0)  -->
<svg xmlns="http://www.w3.org/2000/svg" xmlns:xlink="http://www.w3.org/1999/xlink" version="1.1" id="Capa_1" x="0px" y="0px" viewBox="0 0 512.773 512.773" style="enable-background:new 0 0 512.773 512.773;" xml:space="preserve" width="512px" height="512px">
<g>
	<g>
		<g>
			<path d="M324.223,209.573c-14.4-8-30.4-12-46.4-12c-34.4,0-66.4,18.4-83.2,48.8c-12,22.4-15.2,48-8,72     c7.2,24,23.2,44.8,44.8,56.8c14.4,8,30.4,12,46.4,12c34.4,0,66.4-18.4,83.2-48.8c12-22.4,15.2-48,8-72     S345.822,222.373,324.223,209.573z M313.022,300.773l-23.2-12.8l31.2-56.8C329.022,243.173,326.622,271.173,313.022,300.773z      M276.223,279.973l-23.2-13.6c18.4-28,40.8-42.4,54.4-43.2L276.223,279.973z M277.822,214.373c1.6,0,2.4,0,4,0     c-15.2,8.8-30.4,24-43.2,43.2l-23.2-12.8C230.622,225.573,253.022,214.373,277.822,214.373z M202.622,314.373     c-5.6-18.4-3.2-38.4,4.8-55.2l23.2,12.8c-12,23.2-17.6,46.4-16.8,65.6C209.022,330.373,205.022,322.373,202.622,314.373z      M245.022,279.973l23.2,13.6l-34.4,61.6C226.622,341.573,229.022,311.173,245.022,279.973z M282.622,301.573l23.2,13.6     c-18.4,30.4-42.4,47.2-57.6,48L282.622,301.573z M277.822,371.173c-1.6,0-2.4,0-4,0c16.8-9.6,32.8-26.4,46.4-48l23.2,12.8     C329.022,357.573,304.223,371.173,277.822,371.173z M350.622,321.573l-23.2-12.8c10.4-21.6,15.2-43.2,14.4-60.8     c4.8,7.2,8.8,14.4,11.2,23.2C357.822,287.973,357.022,305.573,350.622,321.573z" fill="#666666"/>
			<path d="M241.822,497.573l-192.8-108l148.8-256.8c2.4-4,0.8-8.8-3.2-11.2c-4-2.4-8.8-0.8-11.2,3.2l-156.8,271.2l207.2,116     c1.6,0.8,2.4,0.8,4,0.8c3.2,0,5.6-1.6,7.2-4C247.422,504.773,245.822,499.973,241.822,497.573z" fill="#666666"/>
			<path d="M200.223,111.973c1.6,0.8,2.4,0.8,4,0.8c3.2,0,5.6-1.6,7.2-4l9.6-16c2.4-4,0.8-8.8-3.2-11.2c-4-2.4-8.8-0.8-11.2,3.2     l-9.6,16C195.423,104.773,196.223,109.573,200.223,111.973z" fill="#666666"/>
			<path d="M485.022,356.773c-2.4-4-7.2-5.6-11.2-3.2l-124,68.8l10.4-18.4c0,0,0.8,0,0.8-0.8l119.2-68.8c4-2.4,4.8-7.2,3.2-11.2     l-39.2-68l7.2-10.4c2.4-4,1.6-8.8-2.4-11.2c-4-2.4-8.8-1.6-11.2,2.4l-15.2,24c-2.4,4-1.6,8.8,2.4,11.2c1.6,1.6,3.2,1.6,4.8,1.6     c1.6,0,4-0.8,5.6-2.4l31.2,53.6l-89.6,52l48-83.2c2.4-4,0.8-8.8-3.2-11.2s-8.8-0.8-11.2,3.2l-120,208.8l-200.8-115.2l175.2-305.6     l200.8,116l-13.6,24c-2.4,4-0.8,8.8,3.2,11.2c4,2.4,8.8,0.8,11.2-3.2l17.6-31.2c0.8-1.6,1.6-4,0.8-6.4c-0.8-2.4-1.6-4-4-4.8     l-120.8-69.6v-0.8l-60-104c-2.4-4-7.2-4.8-11.2-3.2l-214.4,124.8c-1.6,0.8-3.2,3.2-4,4.8c-0.8,2.4,0,4,0.8,6.4l40.8,68.8     c1.6,2.4,4,4,7.2,4c1.6,0,2.4,0,4-0.8c4-2.4,4.8-7.2,3.2-11.2l-36.8-61.6l200.8-116l42.4,73.6l-66.4-38.4c-1.6-0.8-4-1.6-6.4-0.8     c-2.4,0.8-4,1.6-4.8,4l-184,318.4c-0.8,1.6-1.6,4-0.8,6.4c0.8,2.4,1.6,4,4,4.8l215.2,124c1.6,0.8,2.4,0.8,4,0.8     c2.4,0,5.6-1.6,7.2-4l34.4-60c0,0,1.6,0,2.4-0.8l144-80C485.822,365.573,487.423,360.773,485.022,356.773z" fill="#666666"/>
		</g>
	</g>
</g>
<g>
</g>
<g>
</g>
<g>
</g>
<g>
</g>
<g>
</g>
<g>
</g>
<g>
</g>
<g>
</g>
<g>
</g>
<g>
</g>
<g>
</g>
<g>
</g>
<g>
</g>
<g>
</g>
<g>
</g>
</svg>
