<?xml version="1.0" encoding="iso-8859-1"?>
<!-- Generator: Adobe Illustrator 19.0.0, SVG Export Plug-In . SVG Version: 6.00 Build 0)  -->
<svg xmlns="http://www.w3.org/2000/svg" xmlns:xlink="http://www.w3.org/1999/xlink" version="1.1" id="Capa_1" x="0px" y="0px" viewBox="0 0 512 512" style="enable-background:new 0 0 512 512;" xml:space="preserve" width="512px" height="512px">
<g>
	<g>
		<path d="M77.332,292.258c-4.2,0-7.604,3.405-7.604,7.604v88.954H41.569v-88.954c0-4.199-3.404-7.604-7.604-7.604    c-4.2,0-7.604,3.405-7.604,7.604v96.558c0,4.199,3.404,7.604,7.604,7.604h43.367c4.2,0,7.604-3.405,7.604-7.604v-96.558    C84.936,295.662,81.533,292.258,77.332,292.258z" fill="#666666"/>
	</g>
</g>
<g>
	<g>
		<path d="M396.927,107.976h-41.563c-4.2,0-7.604,3.405-7.604,7.604s3.404,7.604,7.604,7.604h33.959v49.679H122.677v-49.679h207.338    c4.2,0,7.604-3.405,7.604-7.604s-3.404-7.604-7.604-7.604H115.073c-4.2,0-7.604,3.405-7.604,7.604v64.887    c0,4.199,3.404,7.604,7.604,7.604h281.854c4.2,0,7.604-3.405,7.604-7.604V115.58C404.531,111.381,401.127,107.976,396.927,107.976    z" fill="#666666"/>
	</g>
</g>
<g>
	<g>
		<path d="M103.694,227.885H7.604c-4.2,0-7.604,3.405-7.604,7.604v44.095c0,4.199,3.404,7.604,7.604,7.604h96.09    c4.2,0,7.604-3.404,7.604-7.604v-44.095C111.298,231.289,107.894,227.885,103.694,227.885z M96.09,271.979H15.208v-28.887H96.09    V271.979z" fill="#666666"/>
	</g>
</g>
<g>
	<g>
		<path d="M158.853,196.337c-4.072-0.998-8.192,1.505-9.19,5.583l-36.081,147.793c-0.996,4.08,1.504,8.195,5.584,9.191    c0.605,0.148,1.212,0.219,1.809,0.219c3.424,0,6.532-2.329,7.381-5.802l36.081-147.793    C165.433,201.448,162.934,197.333,158.853,196.337z" fill="#666666"/>
	</g>
</g>
<g>
	<g>
		<path d="M211.575,196.337c-4.073-0.998-8.193,1.505-9.19,5.583l-45.628,186.894H119.69l3.476-14.233    c0.996-4.08-1.504-8.195-5.584-9.191c-4.075-0.996-8.194,1.505-9.19,5.583l-5.771,23.64c-0.554,2.268-0.034,4.664,1.407,6.5    c1.442,1.836,3.647,2.908,5.98,2.908h52.721c3.505,0,6.556-2.396,7.387-5.8l47.043-192.695    C218.155,201.448,215.654,197.333,211.575,196.337z" fill="#666666"/>
	</g>
</g>
<g>
	<g>
		<path d="M504.396,227.885h-96.09c-4.2,0-7.604,3.405-7.604,7.604v44.095c0,4.199,3.404,7.604,7.604,7.604h96.09    c4.2,0,7.604-3.405,7.604-7.604v-44.095C512,231.288,508.596,227.885,504.396,227.885z M496.792,271.979H415.91v-28.887h80.882    V271.979z" fill="#666666"/>
	</g>
</g>
<g>
	<g>
		<path d="M409.376,394.615l-47.043-192.694c-0.996-4.08-5.116-6.579-9.19-5.583c-4.08,0.996-6.58,5.111-5.584,9.191l44.747,183.287    H355.24l-45.628-186.894c-0.996-4.08-5.116-6.579-9.19-5.583c-4.08,0.996-6.58,5.111-5.584,9.191l47.043,192.695    c0.831,3.405,3.882,5.8,7.387,5.8h52.721c2.334,0,4.539-1.072,5.98-2.908C409.41,399.279,409.93,396.883,409.376,394.615z" fill="#666666"/>
	</g>
</g>
<g>
	<g>
		<path d="M478.035,292.258c-4.2,0-7.604,3.405-7.604,7.604v88.954h-28.16v-88.954c0-4.199-3.404-7.604-7.604-7.604    c-4.2,0-7.604,3.405-7.604,7.604v96.558c0,4.199,3.404,7.604,7.604,7.604h43.368c4.2,0,7.604-3.405,7.604-7.604v-96.558    C485.639,295.662,482.235,292.258,478.035,292.258z" fill="#666666"/>
	</g>
</g>
<g>
	<g>
		<path d="M295.364,280.605h-78.733c-4.2,0-7.604,3.405-7.604,7.604c0,4.199,3.404,7.604,7.604,7.604h78.733    c4.2,0,7.604-3.405,7.604-7.604C302.968,284.01,299.565,280.605,295.364,280.605z" fill="#666666"/>
	</g>
</g>
<g>
	<g>
		<path d="M300.613,317.104h-89.23c-4.2,0-7.604,3.405-7.604,7.604c0,4.199,3.404,7.604,7.604,7.604h89.23    c4.2,0,7.604-3.405,7.604-7.604C308.217,320.509,304.813,317.104,300.613,317.104z" fill="#666666"/>
	</g>
</g>
<g>
</g>
<g>
</g>
<g>
</g>
<g>
</g>
<g>
</g>
<g>
</g>
<g>
</g>
<g>
</g>
<g>
</g>
<g>
</g>
<g>
</g>
<g>
</g>
<g>
</g>
<g>
</g>
<g>
</g>
</svg>
