<?xml version="1.0" encoding="iso-8859-1"?>
<!-- Generator: Adobe Illustrator 19.0.0, SVG Export Plug-In . SVG Version: 6.00 Build 0)  -->
<svg xmlns="http://www.w3.org/2000/svg" xmlns:xlink="http://www.w3.org/1999/xlink" version="1.1" id="Capa_1" x="0px" y="0px" viewBox="0 0 512 512" style="enable-background:new 0 0 512 512;" xml:space="preserve" width="512px" height="512px">
<g>
	<g>
		<path d="M444.586,193.471c-2.029-3.691-6.665-5.038-10.358-3.009c-3.691,2.029-5.038,6.667-3.009,10.357    c16.089,29.266,24.593,62.502,24.593,96.118c0,110.176-89.635,199.81-199.81,199.81S56.19,407.112,56.19,296.936    s89.635-199.81,199.811-199.81c61.824,0,119.18,27.944,157.364,76.667c2.598,3.316,7.394,3.897,10.707,1.299    c3.316-2.598,3.897-7.392,1.299-10.708c-39.52-50.427-98.128-80.158-161.744-82.365v-6.255    c17.458-3.545,30.638-19.011,30.638-37.499C294.266,17.166,277.1,0,256.001,0c-21.099,0-38.265,17.166-38.265,38.265    c0,18.488,13.18,33.954,30.638,37.499v6.257C133.307,86.054,40.936,180.904,40.936,296.936C40.936,415.522,137.413,512,256,512    s215.064-96.478,215.064-215.064C471.065,260.76,461.909,224.981,444.586,193.471z M232.99,38.265    c0-12.688,10.322-23.011,23.011-23.011c12.689,0,23.011,10.323,23.011,23.011s-10.322,23.011-23.011,23.011    C243.312,61.276,232.99,50.953,232.99,38.265z" fill="#666666"/>
	</g>
</g>
<g>
	<g>
		<path d="M256.001,131.483c-91.231,0-165.454,74.222-165.454,165.454S164.77,462.39,256.001,462.39s165.453-74.222,165.453-165.454    C421.454,205.704,347.232,131.483,256.001,131.483z M256.001,447.135c-82.82,0-150.2-67.379-150.2-150.2s67.379-150.2,150.2-150.2    c82.819,0,150.199,67.379,150.199,150.2C406.2,379.757,338.82,447.135,256.001,447.135z" fill="#666666"/>
	</g>
</g>
<g>
	<g>
		<path d="M353.241,199.694c-2.304-2.304-5.821-2.889-8.747-1.456l-123.317,60.379c-1.521,0.744-2.752,1.975-3.496,3.496    l-20.896,42.676c-1.852,3.783-0.287,8.351,3.496,10.204c3.782,1.852,8.351,0.288,10.204-3.496l16.201-33.089l7.257,7.257    c-4.748,9.31-3.244,21.013,4.534,28.792c4.831,4.83,11.176,7.246,17.522,7.246c3.873,0,7.742-0.911,11.271-2.711l7.257,7.257    l-93.736,45.896l18.499-37.782c1.852-3.783,0.287-8.352-3.496-10.204c-3.785-1.853-8.352-0.288-10.204,3.496l-28.288,57.775    c-1.433,2.928-0.847,6.442,1.457,8.747c1.463,1.463,3.416,2.234,5.396,2.234c1.137,0,2.284-0.254,3.352-0.777l123.317-60.379    c1.521-0.744,2.752-1.975,3.496-3.496l60.379-123.317C356.131,205.513,355.546,201.999,353.241,199.694z M262.736,303.672    c-3.714,3.714-9.757,3.715-13.47,0c-3.714-3.714-3.714-9.757,0-13.471c1.857-1.857,4.295-2.785,6.735-2.785    c2.439,0,4.879,0.928,6.735,2.785C266.45,293.914,266.45,299.958,262.736,303.672z M285.315,315.464l-7.257-7.257    c4.748-9.31,3.244-21.013-4.534-28.792c-4.681-4.68-10.903-7.258-17.522-7.258c-3.989,0-7.831,0.943-11.282,2.711l-7.245-7.245    l93.736-45.896L285.315,315.464z" fill="#666666"/>
	</g>
</g>
<g>
	<g>
		<path d="M256.001,155.348c-4.213,0-7.627,3.415-7.627,7.627v24.406c0,4.213,3.414,7.627,7.627,7.627    c4.213,0,7.627-3.415,7.627-7.627v-24.406C263.628,158.763,260.214,155.348,256.001,155.348z" fill="#666666"/>
	</g>
</g>
<g>
	<g>
		<path d="M256.001,398.864c-4.213,0-7.627,3.415-7.627,7.627v24.406c0,4.212,3.414,7.627,7.627,7.627    c4.213,0,7.627-3.415,7.627-7.627v-24.406C263.628,402.278,260.213,398.864,256.001,398.864z" fill="#666666"/>
	</g>
</g>
<g>
	<g>
		<path d="M389.96,289.309h-24.406c-4.212,0-7.627,3.415-7.627,7.627s3.414,7.627,7.627,7.627h24.406    c4.213,0,7.627-3.415,7.627-7.627S394.174,289.309,389.96,289.309z" fill="#666666"/>
	</g>
</g>
<g>
	<g>
		<path d="M146.446,289.309H122.04c-4.213,0-7.627,3.415-7.627,7.627s3.414,7.627,7.627,7.627h24.406    c4.213,0,7.627-3.415,7.627-7.627S150.659,289.309,146.446,289.309z" fill="#666666"/>
	</g>
</g>
<g>
</g>
<g>
</g>
<g>
</g>
<g>
</g>
<g>
</g>
<g>
</g>
<g>
</g>
<g>
</g>
<g>
</g>
<g>
</g>
<g>
</g>
<g>
</g>
<g>
</g>
<g>
</g>
<g>
</g>
</svg>
