<?xml version="1.0" ?><svg height="512px" version="1.1" viewBox="0 0 512 512" width="512px" xmlns="http://www.w3.org/2000/svg" xmlns:xlink="http://www.w3.org/1999/xlink"><title/><desc/><defs><polygon id="path-1" points="398.639221 243.673012 0 243.673012 0 3.9115611 398.639221 3.9115611 398.639221 243.673012"/></defs><g fill="none" fill-rule="evenodd" id="SVG" stroke="none" stroke-width="1"><g id="Bun"><g id="10" transform="translate(0.000000, 92.000000)"><path d="M498.308843,137.995508 C498.308843,211.355009 423.944303,202.304297 332.206357,202.304297 C240.47533,202.304297 166.110789,211.355009 166.110789,137.995508 C166.110789,64.636007 240.47533,10.4431291 332.206357,10.4431291 C423.944303,10.4431291 498.308843,64.636007 498.308843,137.995508" fill="#CB9963" id="Fill-1"/><path d="M423.59213,30.7466607 C443.781535,51.7303881 455.730508,78.0192251 455.730508,107.392266 C455.730508,180.751767 381.365968,171.701055 289.634941,171.701055 C243.36813,171.701055 201.543265,173.991582 171.425211,166.862405 C189.960995,208.718467 254.915805,202.299423 332.207049,202.299423 C423.944995,202.299423 498.309535,211.350135 498.309535,137.997597 C498.309535,91.6440275 468.599697,52.9626773 423.59213,30.7466607" fill="#010202" id="Fill-3" opacity="0.3"/><path d="M476.027849,173.617021 C456.523416,193.027317 411.640389,192.581744 359.66547,192.038701 C350.733146,191.955156 341.558659,191.857687 332.2112,191.857687 C322.856822,191.857687 313.689254,191.955156 304.75693,192.038701 C252.78893,192.609592 207.885146,193.034279 188.394551,173.617021 C180.382443,165.638471 176.487092,153.983939 176.487092,137.998989 C176.487092,84.4118125 222.034335,40.3209215 286.228065,25.8954791 C289.2032,26.4802944 295.66547,27.8518253 304.002768,30.1632379 C279.02547,44.3867797 257.355416,65.767346 257.839741,97.0758471 C257.929686,102.784758 262.551524,107.351886 268.218119,107.351886 L268.377254,107.351886 C274.106119,107.268341 278.686443,102.513236 278.596497,96.748629 C278.160605,68.7262326 305.497254,50.6317709 331.899849,39.6873716 C358.482335,50.7083539 386.247957,68.8933227 385.825903,96.748629 C385.735957,102.520198 390.309362,107.268341 396.038227,107.351886 L396.204281,107.351886 C401.863957,107.351886 406.492714,102.784758 406.582659,97.0758471 C407.060065,65.7116493 385.306984,44.3032347 360.274335,30.0866549 C368.653146,27.8030907 375.15693,26.4663702 378.166659,25.888517 C442.374227,40.3069973 487.935308,84.4048504 487.935308,137.998989 C487.935308,153.983939 484.039957,165.638471 476.027849,173.617021 M381.190227,5.22504559 C380.837362,5.1206143 380.477578,5.05099344 380.110876,4.98833467 C364.923849,1.75792673 348.878876,0.00348104303 332.2112,0.00348104303 C315.591957,0.00348104303 299.602335,1.74400256 284.463741,4.95352424 C284.000173,5.03010718 283.543524,5.1206143 283.100714,5.25289394 C208.777686,21.5093649 155.730335,74.0034938 155.730335,137.998989 C155.730335,159.846015 161.639092,176.353121 173.788714,188.460189 C199.437146,214.004083 248.326227,213.474964 304.964497,212.924959 C322.697686,212.750907 341.724714,212.750907 359.450984,212.924959 C367.73293,213.008504 375.848822,213.099011 383.750227,213.099011 C429.878659,213.099011 468.728389,210.272404 490.626768,188.460189 C502.783308,176.353121 508.692065,159.846015 508.692065,137.998989 C508.692065,73.9686834 455.582443,21.4467061 381.190227,5.22504559" fill="#2E2E30" id="Fill-5"/><path d="M388.259978,241.083813 C387.955546,324.531376 303.406357,313.921157 199.055222,313.545204 C94.7040865,313.16229 10.0718703,323.145921 10.3763027,239.698357 C10.6807351,156.250794 95.4928432,94.9148155 199.843978,95.2907682 C304.195114,95.6736829 388.564411,157.636249 388.259978,241.083813" fill="#CB9963" id="Fill-7"/><path d="M303.398746,118.391666 C326.369557,142.257697 339.958314,172.166819 339.958314,205.57787 C339.958314,289.025433 255.367611,278.73547 151.016476,278.73547 C98.3911784,278.73547 50.809773,281.332328 16.5472865,273.22846 C37.6361514,320.842167 111.523286,313.5459 199.448908,313.5459 C303.800043,313.5459 388.390746,323.835864 388.390746,240.3883 C388.390746,187.664422 354.591827,143.657076 303.398746,118.391666" fill="#010202" id="Fill-9" opacity="0.3"/><g id="Group-13" transform="translate(0.000000, 80.939124)"><mask fill="white" id="mask-2"><use xlink:href="#path-1"/></mask><g id="Clip-12"/><path d="M363.760086,201.59486 C341.093708,224.026702 289.748411,223.316569 230.301059,222.488081 C220.144086,222.348839 209.717276,222.202635 199.089816,222.160863 C188.462357,222.126052 178.035546,222.195673 167.878573,222.258332 C108.472735,222.648209 57.0997622,222.989351 34.5786811,200.397382 C25.2104649,190.991603 20.6924108,177.380725 20.7546811,158.791955 C20.9830054,97.0591381 73.6083027,46.4795828 147.516195,30.2718464 C151.210897,30.9819792 160.177816,32.8617424 171.580195,36.1617712 C142.160951,52.000517 115.889816,76.2842732 116.318789,112.570666 C116.387978,118.286538 120.995978,122.867591 126.655654,122.888477 L126.821708,122.888477 C132.550573,122.825819 137.144735,118.0916 137.075546,112.320031 C136.681168,79.3893636 168.992519,58.4265225 199.726357,45.9435022 C230.377168,58.6493092 262.529384,79.8488613 261.906681,112.779528 C261.795978,118.544136 266.355546,123.313165 272.084411,123.424558 L272.243546,123.424558 C277.910141,123.445444 282.552735,118.89224 282.663438,113.183329 C283.348411,76.8969368 257.257168,52.4182422 227.941708,36.3636717 C239.371762,33.1541501 248.352519,31.3440077 252.054141,30.6547612 C325.844411,47.4055402 378.109924,98.3680102 377.8816,160.107789 C377.81933,178.696559 373.197492,192.265665 363.760086,201.59486 M255.264519,10.0191381 C254.849384,9.89382051 254.420411,9.81027548 253.984519,9.74065462 C236.839438,6.02986274 218.718789,3.98300944 199.878573,3.91338858 C181.024519,3.84376772 162.876195,5.76530347 145.6896,9.3507778 C145.288303,9.42039866 144.887005,9.4969816 144.499546,9.60837498 C60.4416,27.5914433 0.260843243,86.5603123 -0.00207567568,158.722334 C-0.0851027027,183.173181 6.4256,201.643595 19.9244108,215.184852 C48.5687351,243.931306 103.940843,243.569277 168.016951,243.14459 C188.192519,243.019272 209.841816,243.095855 230.010465,243.374339 C239.427114,243.506618 248.656951,243.631936 257.630789,243.666746 C309.792519,243.854723 353.693059,240.833177 378.310573,216.500687 C391.906249,203.056898 398.548411,184.635219 398.638357,160.184372 C398.901276,88.0293124 339.170249,28.6357562 255.264519,10.0191381" fill="#2E2E30" id="Fill-11" mask="url(#mask-2)"/></g></g></g></g></svg>