<?xml version="1.0" encoding="iso-8859-1"?>
<!-- Generator: Adobe Illustrator 19.0.0, SVG Export Plug-In . SVG Version: 6.00 Build 0)  -->
<svg xmlns="http://www.w3.org/2000/svg" xmlns:xlink="http://www.w3.org/1999/xlink" version="1.1" id="Capa_1" x="0px" y="0px" viewBox="0 0 512 512" style="enable-background:new 0 0 512 512;" xml:space="preserve" width="512px" height="512px">
<g>
	<g>
		<path d="M470.02,58.097H398.96c-4.2,0-7.604,3.405-7.604,7.604c0,4.199,3.404,7.604,7.604,7.604h71.061    c14.763,0,26.772,12.01,26.772,26.772c0,14.762-12.01,26.772-26.772,26.772H41.98c-14.762,0.001-26.772-12.009-26.772-26.772    c0-14.763,12.01-26.772,26.772-26.772h331.631c4.2,0,7.604-3.405,7.604-7.604c0-4.199-3.404-7.604-7.604-7.604H41.98    C18.832,58.097,0,76.93,0,100.077c0,23.147,18.832,41.98,41.98,41.98h428.04c23.147,0,41.98-18.832,41.98-41.98    C512,76.93,493.168,58.097,470.02,58.097z" fill="#666666"/>
	</g>
</g>
<g>
	<g>
		<path d="M416.137,387.94l-95.639-95.637c-2.971-2.97-7.784-2.97-10.754,0s-2.97,7.783,0,10.753l95.635,95.636    c9.14,9.147,9.141,24.023,0.005,33.159c-9.143,9.134-24.02,9.135-33.161,0.002l-95.638-95.638c-2.971-2.97-7.784-2.97-10.754,0    c-2.97,2.97-2.97,7.783,0,10.753l95.641,95.641c7.535,7.528,17.431,11.291,27.33,11.291s19.798-3.764,27.335-11.294    C431.201,427.541,431.202,403.019,416.137,387.94z" fill="#666666"/>
	</g>
</g>
<g>
	<g>
		<path d="M246.169,217.973l-66.019-66.019c-2.971-2.97-7.784-2.97-10.754,0c-2.97,2.97-2.97,7.783,0,10.753l66.019,66.019    c1.484,1.485,3.431,2.227,5.377,2.227s3.892-0.742,5.378-2.227C249.138,225.757,249.138,220.943,246.169,217.973z" fill="#666666"/>
	</g>
</g>
<g>
	<g>
		<path d="M202.256,261.887L92.324,151.955c-2.971-2.97-7.784-2.97-10.754,0s-2.97,7.783,0,10.753l109.932,109.932    c1.484,1.484,3.431,2.227,5.377,2.227c1.946,0,3.892-0.742,5.378-2.227C205.226,269.67,205.226,264.856,202.256,261.887z" fill="#666666"/>
	</g>
</g>
<g>
	<g>
		<path d="M342.605,162.707c2.97-2.97,2.97-7.783,0-10.753c-2.971-2.969-7.784-2.971-10.754,0L95.862,387.944    c-15.063,15.077-15.062,39.599,0.005,54.666c7.535,7.528,17.43,11.292,27.33,11.292c9.898,0,19.798-3.765,27.335-11.294    l42.427-42.428c2.97-2.97,2.97-7.784-0.001-10.754c-2.969-2.97-7.783-2.97-10.754,0l-42.424,42.425    c-9.144,9.136-24.021,9.135-33.161,0.002c-9.139-9.138-9.138-24.014,0-33.159L342.605,162.707z" fill="#666666"/>
	</g>
</g>
<g>
	<g>
		<path d="M430.432,151.953c-2.972-2.97-7.785-2.97-10.756,0.001L202.48,369.149c-2.97,2.97-2.97,7.783,0,10.753    c1.485,1.485,3.431,2.227,5.378,2.227c1.946,0,3.892-0.742,5.378-2.227l217.196-217.195    C433.401,159.737,433.401,154.923,430.432,151.953z" fill="#666666"/>
	</g>
</g>
<g>
	<g>
		<path d="M266.385,274.483c-1.736-2.539-4.865-3.864-7.892-3.222c-3.156,0.669-5.567,3.316-5.977,6.51    c-0.862,6.72,7.307,11.099,12.453,6.73C267.887,282.025,268.486,277.676,266.385,274.483z" fill="#666666"/>
	</g>
</g>
<g>
</g>
<g>
</g>
<g>
</g>
<g>
</g>
<g>
</g>
<g>
</g>
<g>
</g>
<g>
</g>
<g>
</g>
<g>
</g>
<g>
</g>
<g>
</g>
<g>
</g>
<g>
</g>
<g>
</g>
</svg>
