<?xml version="1.0" encoding="iso-8859-1"?>
<!-- Generator: Adobe Illustrator 19.0.0, SVG Export Plug-In . SVG Version: 6.00 Build 0)  -->
<svg xmlns="http://www.w3.org/2000/svg" xmlns:xlink="http://www.w3.org/1999/xlink" version="1.1" id="Capa_1" x="0px" y="0px" viewBox="0 0 512 512" style="enable-background:new 0 0 512 512;" xml:space="preserve" width="512px" height="512px">
<g>
	<g>
		<path d="M323.565,185.197c-2.298-2.297-5.803-2.88-8.721-1.453l-62.895,30.795c-1.57,0.718-2.881,1.964-3.669,3.572    l-30.881,63.072c-1.429,2.918-0.845,6.422,1.453,8.72c1.46,1.46,3.407,2.228,5.38,2.228c1.133,0,2.277-0.253,3.342-0.775    l63.073-30.881c1.581-0.774,2.809-2.053,3.533-3.589l30.838-62.969C326.446,190.999,325.863,187.495,323.565,185.197z     M281.616,247.964l-40.799,19.975l19.975-40.797l40.805-19.979L281.616,247.964z" fill="#666666"/>
	</g>
</g>
<g>
	<g>
		<path d="M112.03,0h-3.411c-22.437,0-40.69,18.254-40.69,40.691v106.085c0,4.198,3.404,7.603,7.604,7.603    c4.2,0,7.604-3.405,7.604-7.604V40.691c0-14.052,11.431-25.483,25.482-25.483h3.411c4.2,0,7.604-3.405,7.604-7.604    S116.23,0,112.03,0z" fill="#666666"/>
	</g>
</g>
<g>
	<g>
		<path d="M436.467,0H211.39c-4.2,0-7.604,3.405-7.604,7.604s3.404,7.604,7.604,7.604h217.473v415.41H108.619    c-9.64,0-18.503,3.377-25.482,9V172.124c0-4.199-3.404-7.604-7.604-7.604c-4.2,0-7.604,3.405-7.604,7.604V471.31    c0,22.437,18.254,40.69,40.69,40.69h280.197c4.2,0,7.604-3.405,7.604-7.604s-3.404-7.604-7.604-7.604H108.619    c-14.051,0-25.482-11.431-25.482-25.482c0-14.051,11.431-25.483,25.482-25.483h320.244v50.966h-14.7    c-4.2,0-7.604,3.405-7.604,7.604s3.404,7.604,7.604,7.604h22.304c4.2,0,7.604-3.405,7.604-7.604v-66.174V7.604    C444.071,3.405,440.668,0,436.467,0z" fill="#666666"/>
	</g>
</g>
<g>
	<g>
		<path d="M191.114,0H132.31c-4.2,0-7.604,3.405-7.604,7.604v124.978c-0.001,2.946,1.7,5.627,4.367,6.881    c2.662,1.253,5.813,0.856,8.086-1.023l24.554-20.32l24.554,20.32c1.391,1.151,3.112,1.746,4.849,1.746    c1.099,0,2.204-0.237,3.235-0.723c2.666-1.254,4.368-3.935,4.368-6.881V7.604C198.718,3.405,195.314,0,191.114,0z     M183.509,116.419l-16.95-14.028c-1.407-1.164-3.128-1.746-4.848-1.746s-3.442,0.582-4.848,1.746l-16.95,14.028V15.208h43.596    V116.419z" fill="#666666"/>
	</g>
</g>
<g>
	<g>
		<path d="M293.368,142.81c2.274-3.836,3.585-8.31,3.585-13.084c0-14.195-11.549-25.744-25.744-25.744    c-14.195,0-25.744,11.549-25.744,25.744c0,4.774,1.311,9.246,3.585,13.084c-43.006,10.055-75.133,48.717-75.133,94.744    c0,53.647,43.645,97.292,97.292,97.292c53.648,0,97.292-43.645,97.292-97.292C368.501,191.529,336.374,152.866,293.368,142.81z     M271.209,119.191c5.808,0,10.536,4.727,10.536,10.536c0,5.809-4.727,10.536-10.536,10.536c-5.809,0-10.536-4.727-10.536-10.536    C260.673,123.917,265.4,119.191,271.209,119.191z M271.209,319.638c-45.262,0-82.084-36.822-82.084-82.084    c0-45.262,36.822-82.084,82.084-82.084c45.262,0,82.084,36.823,82.084,82.084S316.471,319.638,271.209,319.638z" fill="#666666"/>
	</g>
</g>
<g>
	<g>
		<path d="M278.17,234.501c-1.414-3.221-4.997-5.088-8.45-4.397c-3.182,0.595-5.65,3.318-6.054,6.507    c-0.39,3.086,1.219,6.184,3.96,7.646c2.925,1.56,6.613,1.017,8.957-1.327C278.776,240.738,279.416,237.338,278.17,234.501z" fill="#666666"/>
	</g>
</g>
<g>
	<g>
		<path d="M266.919,161.254c-2.92,1.986-4.112,5.919-2.736,9.186c1.34,3.165,4.715,5.135,8.141,4.608    c3.215-0.495,5.806-3.005,6.371-6.214C279.84,162.337,272.35,157.56,266.919,161.254z" fill="#666666"/>
	</g>
</g>
<g>
	<g>
		<path d="M278.226,304.673c-1.054-2.7-3.768-4.53-6.634-4.685c-3.382-0.182-6.535,2.003-7.602,5.207    c-1,3.005,0.043,6.431,2.539,8.375c2.587,2.015,6.259,2.119,8.966,0.283C278.428,311.864,279.603,307.945,278.226,304.673z" fill="#666666"/>
	</g>
</g>
<g>
	<g>
		<path d="M346.057,231.675c-2.514-2.055-6.143-2.272-8.889-0.543c-3.095,1.948-4.346,5.961-2.956,9.335    c1.183,2.797,3.959,4.692,7.016,4.694c3.044,0.002,5.859-1.889,7.027-4.694C349.523,237.42,348.613,233.765,346.057,231.675z" fill="#666666"/>
	</g>
</g>
<g>
	<g>
		<path d="M206.864,232.502c-2.218-2.488-5.915-3.242-8.931-1.819c-3.096,1.461-4.907,4.986-4.201,8.354    c0.573,3.063,3.105,5.459,6.148,6.005c3.052,0.549,6.238-0.926,7.828-3.579C209.392,238.652,209.045,234.947,206.864,232.502z" fill="#666666"/>
	</g>
</g>
<g>
	<g>
		<path d="M344.714,359.18h-147.01c-4.2,0-7.604,3.405-7.604,7.604s3.404,7.604,7.604,7.604h147.01c4.2,0,7.604-3.405,7.604-7.604    S348.914,359.18,344.714,359.18z" fill="#666666"/>
	</g>
</g>
<g>
	<g>
		<path d="M344.714,384.76h-147.01c-4.2,0-7.604,3.405-7.604,7.604s3.404,7.604,7.604,7.604h147.01c4.2,0,7.604-3.405,7.604-7.604    S348.914,384.76,344.714,384.76z" fill="#666666"/>
	</g>
</g>
<g>
</g>
<g>
</g>
<g>
</g>
<g>
</g>
<g>
</g>
<g>
</g>
<g>
</g>
<g>
</g>
<g>
</g>
<g>
</g>
<g>
</g>
<g>
</g>
<g>
</g>
<g>
</g>
<g>
</g>
</svg>
