<?xml version="1.0" encoding="iso-8859-1"?>
<!-- Generator: Adobe Illustrator 19.0.0, SVG Export Plug-In . SVG Version: 6.00 Build 0)  -->
<svg xmlns="http://www.w3.org/2000/svg" xmlns:xlink="http://www.w3.org/1999/xlink" version="1.1" id="Layer_1" x="0px" y="0px" viewBox="0 0 512 512" style="enable-background:new 0 0 512 512;" xml:space="preserve" width="512px" height="512px">
<g>
	<g>
		<g>
			<path d="M272.171,465.519c-2.108-4.216-7.228-5.931-11.452-3.814c-4.215,2.108-5.931,7.228-3.823,11.443l17.067,34.133     c1.502,2.995,4.514,4.719,7.646,4.719c1.28,0,2.586-0.29,3.806-0.896c4.215-2.116,5.931-7.236,3.823-11.452L272.171,465.519z" fill="#666666"/>
			<path d="M306.304,465.519c-2.108-4.216-7.219-5.931-11.452-3.814c-4.216,2.108-5.931,7.228-3.823,11.443l17.067,34.133     c1.502,2.995,4.514,4.719,7.646,4.719c1.28,0,2.586-0.29,3.806-0.896c4.216-2.116,5.931-7.236,3.823-11.452L306.304,465.519z" fill="#666666"/>
			<path d="M375.467,477.867H358.4c-3.234,0-6.187,1.826-7.637,4.719l-0.896,1.801l-9.429-18.867     c-2.116-4.216-7.236-5.931-11.452-3.814c-4.216,2.108-5.931,7.228-3.823,11.443l17.067,34.133     c1.451,2.893,4.403,4.719,7.637,4.719c3.234,0,6.187-1.826,7.637-4.719l6.17-12.348h11.793c4.71,0,8.533-3.823,8.533-8.533     S380.177,477.867,375.467,477.867z" fill="#666666"/>
			<path d="M238.037,465.519c-2.116-4.216-7.228-5.931-11.452-3.814c-4.216,2.108-5.931,7.228-3.814,11.443l17.058,34.133     c1.502,2.995,4.514,4.719,7.646,4.719c1.28,0,2.586-0.29,3.806-0.896c4.215-2.116,5.931-7.236,3.823-11.452L238.037,465.519z" fill="#666666"/>
			<path d="M8.533,324.267c4.71,0,8.533-3.823,8.533-8.533V17.476c56.414,5.632,66.79,67.251,68.105,101.99H42.667     c-4.71,0-8.533,3.823-8.533,8.533v85.333c0,4.71,3.823,8.533,8.533,8.533H51.2c12.809,0,22.144-16.674,24.704-21.786     l8.627-17.289c0.282-0.597,0.563-1.075,0.802-1.451V281.6c0,4.71,3.823,8.533,8.533,8.533c4.71,0,8.533-3.823,8.533-8.533V179.2     c0-7.595-5.129-14.037-12.467-15.659c-6.374-1.408-15.667,0.896-20.77,11.836l-8.525,17.058     c-2.825,5.615-7.689,11.75-9.438,12.365v-68.267h42.667c4.71,0,8.533-3.823,8.533-8.533C102.4,9.233,30.558,0,8.533,0     C3.823,0,0,3.823,0,8.533v307.2C0,320.444,3.823,324.267,8.533,324.267z" fill="#666666"/>
			<path d="M503.467,0c-72.969,0-128,55.031-128,128v153.6c0,4.71,3.823,8.533,8.533,8.533s8.533-3.823,8.533-8.533V128     c0-60.365,43.452-106.556,102.4-110.643v298.377c0,4.71,3.823,8.533,8.533,8.533s8.533-3.823,8.533-8.533V8.533     C512,3.823,508.177,0,503.467,0z" fill="#666666"/>
			<path d="M477.867,213.333v-51.2c0-4.71-3.823-8.533-8.533-8.533s-8.533,3.823-8.533,8.533v51.2c0,4.71,3.823,8.533,8.533,8.533     S477.867,218.044,477.867,213.333z" fill="#666666"/>
			<path d="M264.533,341.333c-4.71,0-8.533,3.823-8.533,8.533v17.067h-17.067c-4.71,0-8.533,3.823-8.533,8.533     s3.823,8.533,8.533,8.533H256v17.067c0,4.71,3.823,8.533,8.533,8.533c4.71,0,8.533-3.823,8.533-8.533V384h17.067     c4.71,0,8.533-3.823,8.533-8.533s-3.823-8.533-8.533-8.533h-17.067v-17.067C273.067,345.156,269.244,341.333,264.533,341.333z" fill="#666666"/>
			<path d="M418.133,307.2H93.867C42.112,307.2,0,349.312,0,401.067c0,51.755,42.112,93.867,93.867,93.867h105.66l6.17,12.348     c1.502,2.995,4.514,4.719,7.646,4.719c1.28,0,2.586-0.29,3.806-0.896c4.215-2.116,5.931-7.236,3.823-11.452l-17.067-34.133     c-2.108-4.216-7.228-5.931-11.452-3.814c-4.215,2.108-5.931,7.228-3.814,11.443l2.355,4.719H93.867     c-42.342,0-76.8-34.458-76.8-76.8c0-42.342,34.458-76.8,76.8-76.8h324.267c42.342,0,76.8,34.458,76.8,76.8     c0,40.013-30.754,72.977-69.862,76.493l-6.963-34.816c-0.512-8.951-7.962-16.077-17.041-16.077H110.933     c-9.079,0-16.529,7.125-17.041,16.085l-1.502,7.578c-0.93,4.617,2.074,9.105,6.699,10.035c4.617,0.888,9.105-2.082,10.035-6.707     l1.647-8.26c0.111-0.546,0.162-1.109,0.162-1.664h290.133c0,0.563,0.051,1.118,0.171,1.673l8.533,42.667     c0.794,3.994,4.292,6.861,8.363,6.861c51.755,0,93.867-42.112,93.867-93.867C512,349.312,469.888,307.2,418.133,307.2z" fill="#666666"/>
		</g>
	</g>
</g>
<g>
</g>
<g>
</g>
<g>
</g>
<g>
</g>
<g>
</g>
<g>
</g>
<g>
</g>
<g>
</g>
<g>
</g>
<g>
</g>
<g>
</g>
<g>
</g>
<g>
</g>
<g>
</g>
<g>
</g>
</svg>
