<?xml version="1.0" encoding="iso-8859-1"?>
<!-- Generator: Adobe Illustrator 19.0.0, SVG Export Plug-In . SVG Version: 6.00 Build 0)  -->
<svg xmlns="http://www.w3.org/2000/svg" xmlns:xlink="http://www.w3.org/1999/xlink" version="1.1" id="Capa_1" x="0px" y="0px" viewBox="0 0 512 512" style="enable-background:new 0 0 512 512;" xml:space="preserve" width="512px" height="512px">
<g>
	<g>
		<path d="M510.992,441.776L316.164,104.324l19.687-34.098c2.077-3.597,0.844-8.197-2.753-10.273    c-3.598-2.078-8.197-0.844-10.274,2.753L307.48,89.282l-15.345-26.577c-2.077-3.598-6.677-4.829-10.274-2.753    c-3.597,2.077-4.829,6.677-2.753,10.273l15.345,26.577h-76.907l15.345-26.577c2.077-3.597,0.844-8.197-2.753-10.273    c-3.598-2.078-8.197-0.845-10.274,2.753l-15.345,26.577l-15.346-26.577c-2.077-3.598-6.677-4.829-10.274-2.753    s-4.829,6.677-2.753,10.273l19.687,34.098L1.008,441.776c-1.344,2.326-1.344,5.194,0,7.521c1.344,2.326,3.826,3.76,6.513,3.76    h413.115c4.154,0,7.521-3.367,7.521-7.521c0-4.154-3.367-7.521-7.521-7.521h-39.229l-66.406-182.854v-122.77l176.451,305.623    h-45.744c-4.154,0-7.521,3.367-7.521,7.521c0,4.154,3.367,7.521,7.521,7.521h58.771c2.687,0,5.169-1.434,6.513-3.76    C512.336,446.969,512.336,444.102,510.992,441.776z M299.959,438.014H123.508l36.983-64.057c2.077-3.597,0.844-8.197-2.753-10.273    c-3.598-2.078-8.197-0.844-10.274,2.753l-41.325,71.578H20.547l188.315-326.171h85.592L163.801,338.142    c-2.077,3.597-0.844,8.197,2.753,10.274s8.196,0.843,10.274-2.753l123.132-213.271V438.014z M365.405,438.015h-50.404V299.225    L365.405,438.015z" fill="#666666"/>
	</g>
</g>
<g>
</g>
<g>
</g>
<g>
</g>
<g>
</g>
<g>
</g>
<g>
</g>
<g>
</g>
<g>
</g>
<g>
</g>
<g>
</g>
<g>
</g>
<g>
</g>
<g>
</g>
<g>
</g>
<g>
</g>
</svg>
