<?xml version="1.0" encoding="iso-8859-1"?>
<!-- Generator: Adobe Illustrator 19.0.0, SVG Export Plug-In . SVG Version: 6.00 Build 0)  -->
<svg xmlns="http://www.w3.org/2000/svg" xmlns:xlink="http://www.w3.org/1999/xlink" version="1.1" id="Layer_1" x="0px" y="0px" viewBox="0 0 512.148 512.148" style="enable-background:new 0 0 512.148 512.148;" xml:space="preserve" width="512px" height="512px">
<g>
	<g>
		<g>
			<path d="M403.674,173.221l-17.071,17.071c-3.337,3.337-3.337,8.732,0,12.069c1.664,1.664,3.85,2.501,6.035,2.501     c2.185,0,4.37-0.836,6.035-2.501l17.071-17.071c3.337-3.337,3.337-8.732,0-12.069S407.011,169.883,403.674,173.221z" fill="#666666"/>
			<path d="M412.209,227.969c1.664,1.664,3.85,2.501,6.035,2.501c2.185,0,4.37-0.836,6.035-2.501l17.071-17.071     c3.337-3.337,3.337-8.732,0-12.069s-8.732-3.337-12.07,0l-17.071,17.071C408.872,219.237,408.872,224.631,412.209,227.969z" fill="#666666"/>
			<path d="M304.813,19.544c-3.201-3.201-8.869-3.201-12.069,0l-34.322,34.322c-3.329,3.337-3.329,8.741,0,12.069     c3.337,3.337,8.741,3.337,12.069,0l28.287-28.287l175.716,175.716l-53.715,53.715c-6.035,6.035-11.711,6.035-19.572,6.035     h-68.286c-9.176,0-20.605,0-31.642,11.037L100.827,484.603c-6.888,6.888-13.495,10.414-19.624,10.473     c-6.24,0.162-12.675-3.354-19.461-10.14l-34.407-34.407c-6.829-6.829-10.277-13.392-10.268-19.521s3.491-12.71,10.337-19.555     l200.589-200.589c11.037-11.037,11.037-22.466,11.037-31.642v-68.286c0-4.686,0-8.587,1.272-12.257l154.872,154.863     c3.337,3.337,8.732,3.337,12.069,0s3.337-8.732,0-12.07L245.063,79.294c-3.337-3.337-8.741-3.337-12.069,0     c-11.037,11.037-11.037,22.457-11.037,31.642v68.286c0,7.853,0,13.538-6.035,19.572L15.333,399.383     c-20.409,20.409-20.435,42.858-0.068,63.215l34.407,34.416c10.047,10.047,20.597,15.134,31.36,15.134h0.333     c10.764-0.102,21.365-5.309,31.531-15.475L313.349,296.22c6.035-6.035,11.711-6.035,19.572-6.035h68.286     c9.176,0,20.605,0,31.642-11.037l59.75-59.75c3.337-3.329,3.337-8.732,0-12.07L304.813,19.544z" fill="#666666"/>
			<path d="M426.78,93.898c2.185,0,4.37-0.836,6.035-2.501l51.214-51.214c3.337-3.337,3.337-8.732,0-12.07s-8.732-3.337-12.069,0     l-51.214,51.214c-3.337,3.337-3.337,8.732,0,12.069C422.41,93.062,424.595,93.898,426.78,93.898z" fill="#666666"/>
			<path d="M380.286,50.323c1.221,0.606,2.527,0.896,3.807,0.896c3.133,0,6.146-1.724,7.639-4.72l17.071-34.143     c2.117-4.217,0.401-9.347-3.815-11.455c-4.225-2.108-9.33-0.393-11.455,3.824L376.47,38.869     C374.354,43.085,376.069,48.207,380.286,50.323z" fill="#666666"/>
			<path d="M378.067,147.613l-17.071,17.071c-3.337,3.337-3.337,8.732,0,12.069c1.664,1.664,3.85,2.501,6.035,2.501     s4.37-0.836,6.035-2.501l17.071-17.071c3.337-3.337,3.337-8.732,0-12.069S381.404,144.276,378.067,147.613z" fill="#666666"/>
			<path d="M352.459,122.006l-17.071,17.071c-3.337,3.337-3.337,8.732,0,12.069c1.664,1.664,3.85,2.501,6.035,2.501     c2.185,0,4.37-0.836,6.035-2.501l17.071-17.071c3.337-3.337,3.337-8.732,0-12.069S355.797,118.669,352.459,122.006z" fill="#666666"/>
			<path d="M169.676,306.258l-25.607,25.599c-4.831,4.84-7.503,11.276-7.503,18.113s2.672,13.273,7.503,18.104     c4.831,4.84,11.267,7.503,18.104,7.503s13.273-2.663,18.104-7.503l25.607-25.599c4.831-4.84,7.503-11.276,7.503-18.113     s-2.672-13.273-7.503-18.104C196.213,296.579,179.347,296.579,169.676,306.258z M168.208,356.004     c-3.235,3.227-8.834,3.227-12.07-0.009c-1.622-1.605-2.501-3.747-2.501-6.026c0-2.279,0.879-4.422,2.501-6.035l2.501-2.501     l12.07,12.069L168.208,356.004z M196.316,324.362c0,2.279-0.879,4.422-2.501,6.035l-11.037,11.037l-12.069-12.07l11.037-11.037     c1.613-1.613,3.756-2.501,6.035-2.501c2.279,0,4.421,0.888,6.035,2.51C195.437,319.941,196.316,322.083,196.316,324.362z" fill="#666666"/>
			<path d="M511.232,107.154c-2.1-4.217-7.23-5.932-11.446-3.824l-34.143,17.071c-4.217,2.108-5.932,7.238-3.815,11.455     c1.494,2.996,4.507,4.72,7.639,4.72c1.28,0,2.586-0.29,3.807-0.905l34.143-17.071     C511.633,116.492,513.349,111.371,511.232,107.154z" fill="#666666"/>
			<path d="M237.424,220.363c-3.329,3.337-3.329,8.741,0,12.069l42.679,42.679c1.673,1.673,3.858,2.501,6.035,2.501     c2.185,0,4.37-0.828,6.043-2.501c3.329-3.329,3.329-8.732,0-12.069l-42.687-42.679     C246.164,217.034,240.761,217.034,237.424,220.363z" fill="#666666"/>
			<path d="M326.852,96.399l-17.071,17.071c-3.337,3.337-3.337,8.732,0,12.069c1.664,1.664,3.85,2.501,6.035,2.501     c2.185,0,4.37-0.836,6.035-2.501l17.071-17.071c3.337-3.337,3.337-8.732,0-12.07S330.19,93.062,326.852,96.399z" fill="#666666"/>
			<path d="M301.245,70.792l-17.071,17.071c-3.337,3.337-3.337,8.732,0,12.07c1.664,1.664,3.85,2.501,6.035,2.501     c2.185,0,4.37-0.836,6.035-2.501l17.071-17.071c3.337-3.337,3.337-8.732,0-12.07C309.977,67.455,304.583,67.455,301.245,70.792z" fill="#666666"/>
		</g>
	</g>
</g>
<g>
</g>
<g>
</g>
<g>
</g>
<g>
</g>
<g>
</g>
<g>
</g>
<g>
</g>
<g>
</g>
<g>
</g>
<g>
</g>
<g>
</g>
<g>
</g>
<g>
</g>
<g>
</g>
<g>
</g>
</svg>
