<?xml version="1.0" encoding="iso-8859-1"?>
<!-- Generator: Adobe Illustrator 19.0.0, SVG Export Plug-In . SVG Version: 6.00 Build 0)  -->
<svg xmlns="http://www.w3.org/2000/svg" xmlns:xlink="http://www.w3.org/1999/xlink" version="1.1" id="Capa_1" x="0px" y="0px" viewBox="0 0 512 512" style="enable-background:new 0 0 512 512;" xml:space="preserve" width="512px" height="512px">
<g>
	<g>
		<path d="M413.331,159.64h-84.086c-4.199,0-7.604,3.405-7.604,7.604s3.405,7.604,7.604,7.604h84.086    c9.71,0,17.609,7.9,17.609,17.609v172.079c0,4.199,3.405,7.604,7.604,7.604c4.199,0,7.604-3.405,7.604-7.604V192.456    C446.148,174.361,431.426,159.64,413.331,159.64z" fill="#666666"/>
	</g>
</g>
<g>
	<g>
		<path d="M438.544,382.279c-4.199,0-7.604,3.405-7.604,7.604v89.3c0,9.71-7.899,17.609-17.609,17.609h-82.566    c-4.199,0-7.604,3.405-7.604,7.604c0,4.199,3.405,7.604,7.604,7.604h82.566c18.095,0,32.817-14.722,32.817-32.817v-89.3    C446.148,385.684,442.743,382.279,438.544,382.279z" fill="#666666"/>
	</g>
</g>
<g>
	<g>
		<path d="M376.841,0c-17.696,0-32.092,14.397-32.092,32.092v109.803c0,4.199,3.405,7.604,7.604,7.604s7.604-3.405,7.604-7.604    V32.092c0-9.31,7.575-16.884,16.884-16.884c9.309,0,16.884,7.575,16.884,16.884v109.803c0,4.199,3.405,7.604,7.604,7.604    s7.604-3.405,7.604-7.604V32.092C408.934,14.397,394.537,0,376.841,0z" fill="#666666"/>
	</g>
</g>
<g>
	<g>
		<path d="M399.245,206.013h-56.312c-4.199,0-7.604,3.405-7.604,7.604c0,4.199,3.405,7.604,7.604,7.604h56.312    c4.199,0,7.604-3.405,7.604-7.604C406.849,209.417,403.445,206.013,399.245,206.013z" fill="#666666"/>
	</g>
</g>
<g>
	<g>
		<path d="M399.245,236.927h-56.312c-4.199,0-7.604,3.405-7.604,7.604c0,4.199,3.405,7.604,7.604,7.604h56.312    c4.199,0,7.604-3.405,7.604-7.604C406.849,240.332,403.445,236.927,399.245,236.927z" fill="#666666"/>
	</g>
</g>
<g>
	<g>
		<path d="M399.245,267.843h-56.312c-4.199,0-7.604,3.405-7.604,7.604s3.405,7.604,7.604,7.604h56.312    c4.199,0,7.604-3.405,7.604-7.604S403.445,267.843,399.245,267.843z" fill="#666666"/>
	</g>
</g>
<g>
	<g>
		<path d="M399.245,298.759h-56.312c-4.199,0-7.604,3.405-7.604,7.604c0,4.199,3.405,7.604,7.604,7.604h56.312    c4.199,0,7.604-3.405,7.604-7.604C406.849,302.163,403.445,298.759,399.245,298.759z" fill="#666666"/>
	</g>
</g>
<g>
	<g>
		<path d="M399.245,329.674H364.37c-4.199,0-7.604,3.405-7.604,7.604c0,4.199,3.405,7.604,7.604,7.604h34.876    c4.199,0,7.604-3.405,7.604-7.604C406.849,333.079,403.445,329.674,399.245,329.674z" fill="#666666"/>
	</g>
</g>
<g>
	<g>
		<path d="M290.005,159.64H98.669c-18.095,0-32.817,14.722-32.817,32.817v286.727c0,18.095,14.721,32.817,32.817,32.817h191.336    c18.095,0,32.817-14.722,32.817-32.817V192.456C322.822,174.361,308.1,159.64,290.005,159.64z M307.614,479.183    c0,9.71-7.899,17.609-17.609,17.609H98.669c-9.71,0-17.609-7.9-17.609-17.609V192.456c0-9.71,7.899-17.609,17.609-17.609h191.336    c9.71,0,17.609,7.9,17.609,17.609V479.183z" fill="#666666"/>
	</g>
</g>
<g>
	<g>
		<path d="M229.027,88.277c-4.199,0-7.604,3.405-7.604,7.604v46.014c0,4.199,3.405,7.604,7.604,7.604s7.604-3.405,7.604-7.604    V95.881C236.631,91.681,233.227,88.277,229.027,88.277z" fill="#666666"/>
	</g>
</g>
<g>
	<g>
		<path d="M253.516,0c-17.695,0-32.092,14.397-32.092,32.092v38.441c-0.001,4.199,3.404,7.604,7.603,7.604s7.604-3.405,7.604-7.604    V32.092c0-9.31,7.575-16.884,16.884-16.884c9.309,0,16.884,7.575,16.884,16.884v109.803c0,4.199,3.405,7.604,7.604,7.604    s7.604-3.405,7.604-7.604V32.092C285.608,14.397,271.211,0,253.516,0z" fill="#666666"/>
	</g>
</g>
<g>
	<g>
		<path d="M130.187,96.226c-17.694,0-32.089,14.4-32.089,32.099v13.574c0,4.199,3.405,7.604,7.604,7.604s7.604-3.405,7.604-7.604    v-13.574c0-9.313,7.573-16.891,16.881-16.891c9.314,0,16.891,7.578,16.891,16.891v13.574c0,4.199,3.405,7.604,7.604,7.604    c4.199,0,7.604-3.405,7.604-7.604v-13.574C162.286,110.625,147.886,96.226,130.187,96.226z" fill="#666666"/>
	</g>
</g>
<g>
	<g>
		<path d="M275.919,206.013H112.755c-4.199,0-7.604,3.405-7.604,7.604c0,4.199,3.405,7.604,7.604,7.604h163.165    c4.199,0,7.604-3.405,7.604-7.604C283.523,209.417,280.119,206.013,275.919,206.013z" fill="#666666"/>
	</g>
</g>
<g>
	<g>
		<path d="M275.919,236.927H112.755c-4.199,0-7.604,3.405-7.604,7.604c0,4.199,3.405,7.604,7.604,7.604h163.165    c4.199,0,7.604-3.405,7.604-7.604C283.523,240.332,280.119,236.927,275.919,236.927z" fill="#666666"/>
	</g>
</g>
<g>
	<g>
		<path d="M275.919,267.843H173.628c-4.199,0-7.604,3.405-7.604,7.604s3.405,7.604,7.604,7.604h102.292    c4.199,0,7.604-3.405,7.604-7.604S280.119,267.843,275.919,267.843z" fill="#666666"/>
	</g>
</g>
<g>
	<g>
		<path d="M148.28,267.843h-35.526c-4.199,0-7.604,3.405-7.604,7.604s3.405,7.604,7.604,7.604h35.526    c4.199,0,7.604-3.405,7.604-7.604S152.48,267.843,148.28,267.843z" fill="#666666"/>
	</g>
</g>
<g>
	<g>
		<path d="M275.919,298.759H112.755c-4.199,0-7.604,3.405-7.604,7.604c0,4.199,3.405,7.604,7.604,7.604h163.165    c4.199,0,7.604-3.405,7.604-7.604C283.523,302.163,280.119,298.759,275.919,298.759z" fill="#666666"/>
	</g>
</g>
<g>
	<g>
		<path d="M275.919,329.674h-34.876c-4.199,0-7.604,3.405-7.604,7.604c0,4.199,3.405,7.604,7.604,7.604h34.876    c4.199,0,7.604-3.405,7.604-7.604C283.523,333.079,280.119,329.674,275.919,329.674z" fill="#666666"/>
	</g>
</g>
<g>
</g>
<g>
</g>
<g>
</g>
<g>
</g>
<g>
</g>
<g>
</g>
<g>
</g>
<g>
</g>
<g>
</g>
<g>
</g>
<g>
</g>
<g>
</g>
<g>
</g>
<g>
</g>
<g>
</g>
</svg>
