<?xml version="1.0" encoding="UTF-8" standalone="no"?>
<!-- Generator: Adobe Illustrator 19.0.0, SVG Export Plug-In . SVG Version: 6.00 Build 0)  -->

<svg
   xmlns:dc="http://purl.org/dc/elements/1.1/"
   xmlns:cc="http://creativecommons.org/ns#"
   xmlns:rdf="http://www.w3.org/1999/02/22-rdf-syntax-ns#"
   xmlns:svg="http://www.w3.org/2000/svg"
   xmlns="http://www.w3.org/2000/svg"
   xmlns:sodipodi="http://sodipodi.sourceforge.net/DTD/sodipodi-0.dtd"
   xmlns:inkscape="http://www.inkscape.org/namespaces/inkscape"
   version="1.1"
   id="Capa_1"
   x="0px"
   y="0px"
   viewBox="0 0 294.774 294.774"
   style="enable-background:new 0 0 294.774 294.774;"
   xml:space="preserve"
   sodipodi:docname="create.svg"
   inkscape:version="0.92.3 (2405546, 2018-03-11)"><metadata
   id="metadata47"><rdf:RDF><cc:Work
       rdf:about=""><dc:format>image/svg+xml</dc:format><dc:type
         rdf:resource="http://purl.org/dc/dcmitype/StillImage" /></cc:Work></rdf:RDF></metadata><defs
   id="defs45" /><sodipodi:namedview
   pagecolor="#ffffff"
   bordercolor="#666666"
   borderopacity="1"
   objecttolerance="10"
   gridtolerance="10"
   guidetolerance="10"
   inkscape:pageopacity="0"
   inkscape:pageshadow="2"
   inkscape:window-width="1373"
   inkscape:window-height="845"
   id="namedview43"
   showgrid="false"
   inkscape:zoom="0.80061339"
   inkscape:cx="147.38699"
   inkscape:cy="147.38699"
   inkscape:window-x="67"
   inkscape:window-y="27"
   inkscape:window-maximized="1"
   inkscape:current-layer="Capa_1" />
<g
   id="g10"
   style="fill:#6fcf97;fill-opacity:1">
	<path
   d="M251.63,43.179c-11.295-11.295-23.931-20.472-37.556-27.276c-2.966-1.482-6.568-0.277-8.048,2.687   c-1.48,2.965-0.277,6.568,2.687,8.048c12.467,6.226,24.052,14.646,34.432,25.026c52.801,52.801,52.801,138.714,0,191.515   s-138.714,52.801-191.515,0s-52.801-138.714,0-191.515C77.207,26.086,111.215,12,147.386,12c3.313,0,6-2.687,6-6s-2.687-6-6-6   C108.009,0,70.989,15.334,43.144,43.179c-57.479,57.479-57.479,151.006,0,208.485c28.74,28.74,66.491,43.11,104.243,43.11   s75.503-14.37,104.243-43.11C309.109,194.185,309.109,100.658,251.63,43.179z"
   id="path2"
   style="fill:#6fcf97;fill-opacity:1" />
	<path
   d="M147.387,51.992c-3.313,0-6,2.687-6,6v178.859c0,3.314,2.687,6,6,6s6-2.686,6-6V57.992   C153.387,54.678,150.7,51.992,147.387,51.992z"
   id="path4"
   style="fill:#6fcf97;fill-opacity:1" />
	<path
   d="M171.387,153.421h65.43c3.313,0,6-2.687,6-6s-2.687-6-6-6h-65.43c-3.313,0-6,2.687-6,6S168.073,153.421,171.387,153.421z"
   id="path6"
   style="fill:#6fcf97;fill-opacity:1" />
	<path
   d="M57.957,141.421c-3.313,0-6,2.687-6,6s2.687,6,6,6h63.43c3.313,0,6-2.687,6-6s-2.687-6-6-6H57.957z"
   id="path8"
   style="fill:#6fcf97;fill-opacity:1" />
</g>
<g
   id="g12">
</g>
<g
   id="g14">
</g>
<g
   id="g16">
</g>
<g
   id="g18">
</g>
<g
   id="g20">
</g>
<g
   id="g22">
</g>
<g
   id="g24">
</g>
<g
   id="g26">
</g>
<g
   id="g28">
</g>
<g
   id="g30">
</g>
<g
   id="g32">
</g>
<g
   id="g34">
</g>
<g
   id="g36">
</g>
<g
   id="g38">
</g>
<g
   id="g40">
</g>
</svg>