<?xml version="1.0" encoding="UTF-8" standalone="no"?>
<!-- Generator: Adobe Illustrator 19.0.0, SVG Export Plug-In . SVG Version: 6.00 Build 0)  -->

<svg
   xmlns:dc="http://purl.org/dc/elements/1.1/"
   xmlns:cc="http://creativecommons.org/ns#"
   xmlns:rdf="http://www.w3.org/1999/02/22-rdf-syntax-ns#"
   xmlns:svg="http://www.w3.org/2000/svg"
   xmlns="http://www.w3.org/2000/svg"
   xmlns:sodipodi="http://sodipodi.sourceforge.net/DTD/sodipodi-0.dtd"
   xmlns:inkscape="http://www.inkscape.org/namespaces/inkscape"
   version="1.1"
   id="Capa_1"
   x="0px"
   y="0px"
   viewBox="0 0 275.836 275.836"
   style="enable-background:new 0 0 275.836 275.836;"
   xml:space="preserve"
   sodipodi:docname="edit_selected.svg"
   inkscape:version="0.92.3 (2405546, 2018-03-11)"><metadata
   id="metadata13"><rdf:RDF><cc:Work
       rdf:about=""><dc:format>image/svg+xml</dc:format><dc:type
         rdf:resource="http://purl.org/dc/dcmitype/StillImage" /></cc:Work></rdf:RDF></metadata><defs
   id="defs11" /><sodipodi:namedview
   pagecolor="#ffffff"
   bordercolor="#666666"
   borderopacity="1"
   objecttolerance="10"
   gridtolerance="10"
   guidetolerance="10"
   inkscape:pageopacity="0"
   inkscape:pageshadow="2"
   inkscape:window-width="1853"
   inkscape:window-height="1025"
   id="namedview9"
   showgrid="false"
   inkscape:zoom="0.85558086"
   inkscape:cx="-66.037007"
   inkscape:cy="137.918"
   inkscape:window-x="67"
   inkscape:window-y="27"
   inkscape:window-maximized="1"
   inkscape:current-layer="g6" />
  <g
   id="g6">
  	<path
   d="M191.344,20.922l-95.155,95.155c-0.756,0.756-1.297,1.699-1.565,2.734l-8.167,31.454c-0.534,2.059,0.061,4.246,1.565,5.751     c1.14,1.139,2.671,1.757,4.242,1.757c0.503,0,1.009-0.063,1.508-0.192l31.454-8.168c1.035-0.269,1.979-0.81,2.734-1.565     l95.153-95.153c0.002-0.002,0.004-0.003,0.005-0.004s0.003-0.004,0.004-0.005l19.156-19.156c2.344-2.343,2.344-6.142,0.001-8.484     L218.994,1.758C217.868,0.632,216.343,0,214.751,0c-1.591,0-3.117,0.632-4.242,1.758l-19.155,19.155     c-0.002,0.002-0.004,0.003-0.005,0.004S191.346,20.921,191.344,20.922z M120.631,138.208l-19.993,5.192l5.191-19.993l89.762-89.762     l14.801,14.802L120.631,138.208z M214.751,14.485l14.801,14.802l-10.675,10.675L204.076,25.16L214.751,14.485z"
   id="path2"
   style="fill:#469ae0;fill-opacity:1" />
  	<path
   d="M238.037,65.022c-3.313,0-6,2.687-6,6v192.813H43.799V34.417h111.063c3.313,0,6-2.687,6-6s-2.687-6-6-6H37.799     c-3.313,0-6,2.687-6,6v241.419c0,3.313,2.687,6,6,6h200.238c3.313,0,6-2.687,6-6V71.022     C244.037,67.709,241.351,65.022,238.037,65.022z"
   id="path4"
   style="fill:#469ae0;fill-opacity:1" />
  </g>
</svg>