<?xml version="1.0" encoding="UTF-8" standalone="no"?>
<!-- Generator: Adobe Illustrator 19.0.0, SVG Export Plug-In . SVG Version: 6.00 Build 0)  -->

<svg
   xmlns:dc="http://purl.org/dc/elements/1.1/"
   xmlns:cc="http://creativecommons.org/ns#"
   xmlns:rdf="http://www.w3.org/1999/02/22-rdf-syntax-ns#"
   xmlns:svg="http://www.w3.org/2000/svg"
   xmlns="http://www.w3.org/2000/svg"
   xmlns:sodipodi="http://sodipodi.sourceforge.net/DTD/sodipodi-0.dtd"
   xmlns:inkscape="http://www.inkscape.org/namespaces/inkscape"
   version="1.1"
   id="Capa_1"
   x="0px"
   y="0px"
   viewBox="0 0 294.843 294.843"
   style="enable-background:new 0 0 294.843 294.843;"
   xml:space="preserve"
   sodipodi:docname="pack.svg"
   inkscape:version="0.92.3 (2405546, 2018-03-11)"><metadata
   id="metadata39"><rdf:RDF><cc:Work
       rdf:about=""><dc:format>image/svg+xml</dc:format><dc:type
         rdf:resource="http://purl.org/dc/dcmitype/StillImage" /></cc:Work></rdf:RDF></metadata><defs
   id="defs37" /><sodipodi:namedview
   pagecolor="#ffffff"
   bordercolor="#666666"
   borderopacity="1"
   objecttolerance="10"
   gridtolerance="10"
   guidetolerance="10"
   inkscape:pageopacity="0"
   inkscape:pageshadow="2"
   inkscape:window-width="1373"
   inkscape:window-height="845"
   id="namedview35"
   showgrid="false"
   inkscape:zoom="0.80042602"
   inkscape:cx="147.42149"
   inkscape:cy="147.42149"
   inkscape:window-x="67"
   inkscape:window-y="27"
   inkscape:window-maximized="1"
   inkscape:current-layer="Capa_1" />
<path
   d="M288.843,91.044h-76.088H88.088v-3.987c0-32.356,26.324-58.68,58.68-58.68h1.307c20.758,0,40.177,11.143,50.679,29.078  c1.674,2.86,5.348,3.82,8.209,2.146c2.859-1.674,3.82-5.35,2.146-8.209c-12.646-21.599-36.033-35.016-61.034-35.016h-1.307  c-38.973,0-70.68,31.707-70.68,70.68v3.987H6c-3.313,0-6,2.687-6,6v175.421c0,3.313,2.687,6,6,6h282.843c3.313,0,6-2.687,6-6V97.044  C294.843,93.731,292.156,91.044,288.843,91.044z M282.843,266.465H12V103.044h70.088h130.667h70.088V266.465z"
   id="path2"
   style="fill:#469ae0;fill-opacity:1" />
<g
   id="g4">
</g>
<g
   id="g6">
</g>
<g
   id="g8">
</g>
<g
   id="g10">
</g>
<g
   id="g12">
</g>
<g
   id="g14">
</g>
<g
   id="g16">
</g>
<g
   id="g18">
</g>
<g
   id="g20">
</g>
<g
   id="g22">
</g>
<g
   id="g24">
</g>
<g
   id="g26">
</g>
<g
   id="g28">
</g>
<g
   id="g30">
</g>
<g
   id="g32">
</g>
</svg>