<svg height="512pt" viewBox="-30 0 512 512" width="512pt" xmlns="http://www.w3.org/2000/svg"><path d="m106.304688 393.980469v-12.148438l-88.878907-.070312c-9.625 0-17.425781 7.800781-17.425781 17.425781v95.316406c0 9.625 7.800781 17.425782 17.425781 17.425782l88.878907.070312c-2.914063-39.335938-2.871094-78.910156 0-118.019531zm0 0" fill="#3d6f44"/><path d="m344.949219 381.832031v12.140625c2.871093 39.109375 2.914062 78.691406 0 118.027344l88.878906-.070312c9.625 0 17.425781-7.800782 17.425781-17.425782v-95.316406c0-9.625-7.800781-17.425781-17.425781-17.425781zm0 0" fill="#3d6f44"/><path d="m365.65625 291.699219-1.183594-14.003907h-277.691406l-1.183594 14.003907c-16.375 73.667969-21.894531 143.117187-16.175781 220.300781h312.410156c5.71875-77.183594.199219-146.632812-16.175781-220.300781zm0 0" fill="#61b872"/><path d="m365.65625 133.71875-1.183594-12.226562h-277.691406l-1.183594 12.226562c-12.695312 38.085938-18.863281 77.960938-18.335937 117.941406.042969 2.890625.113281 5.789063.226562 8.679688.140625 3.730468.519531 9.058594.902344 13.925781.539063 6.847656 6.257813 12.105469 13.128906 12.105469h288.300781c6.8125 0 12.617188-5.179688 13.136719-11.972656.355469-4.6875.636719-9.375.808594-14.058594 1.613281-42.878906-4.496094-85.773438-18.109375-126.621094zm0 0" fill="#3d6f44"/><path d="m130.167969 242.984375v52.066406l17.359375 26.035157 17.355468-26.035157v-52.066406zm0 0" fill="#e7eced"/><path d="m286.371094 242.984375v52.066406l17.359375 26.035157 17.355469-26.035157v-52.066406zm0 0" fill="#e7eced"/><path d="m190.917969 199.59375 34.710937-34.714844 34.714844 34.714844-34.714844 34.710938zm0 0" fill="#ebba16"/><path d="m289.75 442.578125h-128.246094c-15.574218 0-29.675781-6.234375-40.011718-16.308594v85.714844h208.269531v-85.714844c-10.335938 10.074219-24.4375 16.308594-40.011719 16.308594zm0 0" fill="#29512c"/><path d="m164.882812 156.203125h-34.714843v-115.511719c0-3.296875 2.683593-5.980468 5.980469-5.980468h22.746093c3.304688 0 5.988281 2.683593 5.988281 5.980468zm0 0" fill="#e7eced"/><path d="m321.085938 156.203125h-34.714844v-115.511719c0-3.296875 2.683594-5.980468 5.980468-5.980468h22.746094c3.304688 0 5.988282 2.683593 5.988282 5.980468zm0 0" fill="#e7eced"/><g fill="#afb6bb"><path d="m182.238281 251.660156h-69.425781c-4.789062 0-8.675781-3.886718-8.675781-8.675781 0-4.792969 3.886719-8.679687 8.675781-8.679687h69.425781c4.789063 0 8.675781 3.886718 8.675781 8.679687 0 4.789063-3.886718 8.675781-8.675781 8.675781zm0 0"/><path d="m338.441406 251.660156h-69.425781c-4.789063 0-8.675781-3.886718-8.675781-8.675781 0-4.792969 3.886718-8.679687 8.675781-8.679687h69.425781c4.789063 0 8.675782 3.886718 8.675782 8.679687 0 4.789063-3.886719 8.675781-8.675782 8.675781zm0 0"/><path d="m269.015625 69.421875h-86.777344c-4.792969 0-8.679687-3.886719-8.679687-8.675781v-34.6875c0-14.371094 12.550781-26.058594 27.976562-26.058594h48.183594c15.429688 0 27.976562 11.6875 27.976562 26.058594v34.6875c0 4.789062-3.886718 8.675781-8.679687 8.675781zm-78.101563-17.355469h69.425782v-26.007812c0-4.796875-4.765625-8.703125-10.621094-8.703125h-48.183594c-5.855468 0-10.621094 3.90625-10.621094 8.703125zm0 0"/></g><path d="m164.882812 43.390625h121.488282v86.777344h-121.488282zm0 0" fill="#ed8a19"/><path d="m130.167969 43.390625h-36.265625c-13.519532 0-24.480469 10.960937-24.480469 24.480469v37.816406c0 13.523438 10.960937 24.480469 24.480469 24.480469h36.265625zm0 0" fill="#ed8a19"/><path d="m357.351562 43.390625h-36.265624v86.777344h36.265624c13.519532 0 24.480469-10.957031 24.480469-24.480469v-37.816406c0-13.519532-10.960937-24.480469-24.480469-24.480469zm0 0" fill="#ed8a19"/><path d="m289.75 468.59375h-128.246094c-31.679687 0-57.367187-25.6875-57.367187-57.371094v-38.085937c0-4.78125 3.878906-8.664063 8.660156-8.664063h225.652344c4.789062 0 8.667969 3.882813 8.667969 8.664063v38.085937c0 31.683594-25.683594 57.371094-57.367188 57.371094zm0 0" fill="#3d6f44"/><path d="m182.238281 399.167969h86.777344v34.714843h-86.777344zm0 0" fill="#e7eced"/></svg>