<svg height="512pt" viewBox="-51 0 512 512.001" width="512pt" xmlns="http://www.w3.org/2000/svg"><path d="m316.972656 0h-42.195312c-7.773438 0-14.132813 6.359375-14.132813 14.132812v88.011719h70.460938v-88.011719c-.003907-7.773437-6.359375-14.132812-14.132813-14.132812zm0 0" fill="#747475"/><path d="m295.378906 0h-20.601562c-7.773438 0-14.132813 6.359375-14.132813 14.132812v88.011719h20.605469v-88.011719c0-7.773437 6.359375-14.132812 14.128906-14.132812zm0 0" fill="#605f5f"/><path d="m137.78125 0h-42.199219c-7.769531 0-14.128906 6.359375-14.128906 14.132812v88.011719h70.460937v-88.011719c-.003906-7.773437-6.363281-14.132812-14.132812-14.132812zm0 0" fill="#747475"/><path d="m151.910156 102.144531v-52.617187h-25.234375c-5.519531 0-9.996093 4.476562-9.996093 9.992187v42.625zm0 0" fill="#515151"/><path d="m295.875 59.519531c0-5.515625-4.476562-9.992187-9.996094-9.992187h-25.234375v52.617187h35.230469zm0 0" fill="#515151"/><path d="m116.1875 0h-20.605469c-7.773437 0-14.128906 6.359375-14.128906 14.132812v88.011719h20.601563v-88.011719c0-7.773437 6.359374-14.132812 14.132812-14.132812zm0 0" fill="#605f5f"/><path d="m147.28125 49.527344h-20.605469c-5.519531 0-9.996093 4.476562-9.996093 9.992187v42.625h20.605468v-42.625c0-5.519531 4.476563-9.992187 9.996094-9.992187zm0 0" fill="#424141"/><path d="m260.644531 49.527344h20.605469v52.617187h-20.605469zm0 0" fill="#424141"/><path d="m231.597656 113.992188c-4.269531 0-7.726562-3.460938-7.726562-7.726563v-27.332031c0-4.125-3.359375-7.480469-7.484375-7.480469h-22.179688c-4.125 0-7.484375 3.355469-7.484375 7.480469v27.332031c0 4.265625-3.457031 7.726563-7.726562 7.726563-4.265625 0-7.726563-3.460938-7.726563-7.726563v-27.332031c0-12.648438 10.289063-22.9375 22.9375-22.9375h22.179688c12.648437 0 22.9375 10.289062 22.9375 22.9375v27.332031c0 4.265625-3.460938 7.726563-7.726563 7.726563zm0 0" fill="#e4e3e1"/><path d="m394.105469 360.480469h-29.144531v128.066406c0 7.191406-3.285157 13.648437-8.421876 17.957031h37.566407c9.105469 0 16.484375-7.378906 16.484375-16.484375v-113.050781c.003906-9.105469-7.378906-16.488281-16.484375-16.488281zm0 0" fill="#ed4d4d"/><path d="m385.566406 488.546875v-128.066406h-20.605468v128.066406c0 7.191406-3.285157 13.644531-8.421876 17.957031h20.601563c5.140625-4.3125 8.425781-10.765625 8.425781-17.957031zm0 0" fill="#d4352f"/><path d="m45.632812 488.546875v-128.066406h-29.144531c-9.105469 0-16.488281 7.382812-16.488281 16.488281v113.050781c0 9.101563 7.382812 16.484375 16.488281 16.484375h37.566407c-5.136719-4.3125-8.421876-10.765625-8.421876-17.957031zm0 0" fill="#ed4d4d"/><path d="m20.605469 490.019531v-113.050781c0-9.105469 7.382812-16.488281 16.488281-16.488281h-20.605469c-9.105469 0-16.488281 7.382812-16.488281 16.488281v113.050781c0 9.101563 7.382812 16.484375 16.488281 16.484375h20.605469c-9.105469 0-16.488281-7.382812-16.488281-16.484375zm0 0" fill="#d4352f"/><path d="m357.207031 250.230469h-303.820312c-3.503907 0-6.820313-.796875-9.8125-2.183594v240.5c0 12.898437 10.550781 23.453125 23.453125 23.453125h276.539062c12.898438 0 23.453125-10.554688 23.453125-23.453125v-240.5c-2.992187 1.386719-6.3125 2.183594-9.8125 2.183594zm0 0" fill="#ff6156"/><path d="m64.175781 488.546875v-238.316406h-10.792969c-3.5 0-6.816406-.796875-9.8125-2.183594v240.5c0 12.898437 10.554688 23.453125 23.457032 23.453125h20.601562c-12.898437 0-23.453125-10.554688-23.453125-23.453125zm0 0" fill="#ed4d4d"/><path d="m81.453125 391.886719v76.148437c0 3.6875 2.988281 6.675782 6.671875 6.675782h236.304688c3.6875 0 6.671874-2.988282 6.671874-6.675782v-76.148437zm0 0" fill="#ffcc3d"/><path d="m102.054688 468.035156v-76.148437h-20.601563v76.148437c0 3.6875 2.988281 6.675782 6.671875 6.675782h20.605469c-3.6875 0-6.675781-2.988282-6.675781-6.675782zm0 0" fill="#f4ab2b"/><path d="m324.429688 357.929688h-236.304688c-3.683594 0-6.671875 2.988281-6.671875 6.671874v29.34375h249.648437v-29.34375c0-3.683593-2.984374-6.671874-6.671874-6.671874zm0 0" fill="#f4ab2b"/><path d="m108.730469 357.929688h-20.605469c-3.683594 0-6.671875 2.988281-6.671875 6.671874v29.34375h20.601563v-29.34375c0-3.683593 2.988281-6.671874 6.675781-6.671874zm0 0" fill="#f2932c"/><path d="m357.207031 99.054688h-303.820312c-12.957031 0-23.554688 10.597656-23.554688 23.550781v107.160156c0 12.957031 10.597657 23.554687 23.554688 23.554687h303.820312c12.953125 0 23.550781-10.597656 23.550781-23.554687v-107.160156c0-12.953125-10.597656-23.550781-23.550781-23.550781zm0 0" fill="#72bdf6"/><path d="m50.4375 229.765625v-107.160156c0-12.953125 10.597656-23.550781 23.554688-23.550781h-20.605469c-12.957031 0-23.554688 10.597656-23.554688 23.550781v107.160156c0 12.957031 10.597657 23.554687 23.554688 23.554687h20.605469c-12.957032 0-23.554688-10.597656-23.554688-23.554687zm0 0" fill="#4b98d4"/><path d="m109.273438 256.410156h32.875c.554687 0 1.089843.058594 1.617187.148438v-45.632813c0-6.261719-5.121094-11.382812-11.382813-11.382812h-13.34375c-6.261718 0-11.382812 5.121093-11.382812 11.382812v45.632813c.527344-.089844 1.0625-.148438 1.617188-.148438zm0 0" fill="#747475"/><path d="m142.148438 282.613281h-32.875c-.554688 0-1.089844-.058593-1.617188-.148437v33.660156c0 6.261719 5.121094 11.382812 11.382812 11.382812h13.34375c6.261719 0 11.382813-5.121093 11.382813-11.382812v-33.660156c-.527344.089844-1.066406.148437-1.617187.148437zm0 0" fill="#747475"/><path d="m120.113281 210.925781c0-6.261719 5.125-11.382812 11.382813-11.382812h-12.457032c-6.261718 0-11.382812 5.121093-11.382812 11.382812v45.632813c.527344-.089844 1.066406-.148438 1.617188-.148438h10.839843zm0 0" fill="#605f5f"/><path d="m120.113281 316.125v-33.511719h-10.839843c-.554688 0-1.089844-.058593-1.617188-.148437v33.660156c0 6.261719 5.121094 11.382812 11.382812 11.382812h12.457032c-6.257813 0-11.382813-5.121093-11.382813-11.382812zm0 0" fill="#605f5f"/><path d="m142.148438 253.320312h-32.875c-5.371094 0-9.765626 4.394532-9.765626 9.765626v12.855468c0 5.367188 4.394532 9.761719 9.765626 9.761719h32.875c5.371093 0 9.765624-4.394531 9.765624-9.761719v-12.855468c0-5.371094-4.394531-9.765626-9.765624-9.765626zm0 0" fill="#e4e3e1"/><path d="m120.113281 275.941406v-12.855468c0-5.371094 4.394531-9.765626 9.765625-9.765626h-20.605468c-5.371094 0-9.765626 4.394532-9.765626 9.765626v12.855468c0 5.367188 4.394532 9.761719 9.765626 9.761719h20.605468c-5.371094 0-9.765625-4.394531-9.765625-9.761719zm0 0" fill="#d1d0cf"/><path d="m81.453125 99.054688v46.511718c0 3.6875 2.988281 6.675782 6.671875 6.675782h236.304688c3.6875 0 6.671874-2.988282 6.671874-6.675782v-46.511718zm0 0" fill="#4b98d4"/><path d="m102.054688 145.570312v-46.515624h-20.601563v46.511718c0 3.6875 2.988281 6.675782 6.671875 6.675782h20.605469c-3.6875 0-6.675781-2.988282-6.675781-6.671876zm0 0" fill="#2472b2"/><path d="m296.757812 256.558594v-45.632813c0-6.261719-5.125-11.382812-11.382812-11.382812h-13.347656c-6.261719 0-11.382813 5.121093-11.382813 11.382812v45.632813c1.359375-.230469 34.761719-.230469 36.113281 0zm0 0" fill="#747475"/><path d="m295.136719 282.613281c-35.699219 0-33.253907.0625-34.492188-.148437v33.660156c0 6.261719 5.121094 11.382812 11.382813 11.382812h13.347656c6.257812 0 11.382812-5.121093 11.382812-11.382812v-33.660156c-.527343.089844-1.066406.148437-1.621093.148437zm0 0" fill="#747475"/><path d="m273.101562 210.925781c0-6.261719 5.125-11.382812 11.386719-11.382812h-12.460937c-6.261719 0-11.382813 5.121093-11.382813 11.382812v45.632813c1.160157-.195313.542969-.148438 12.457031-.148438zm0 0" fill="#605f5f"/><path d="m273.101562 316.125v-33.511719c-11.910156 0-11.300781.046875-12.457031-.148437v33.660156c0 6.261719 5.121094 11.382812 11.382813 11.382812h12.460937c-6.261719 0-11.386719-5.121093-11.386719-11.382812zm0 0" fill="#605f5f"/><path d="m295.136719 253.320312h-32.875c-5.371094 0-9.761719 4.394532-9.761719 9.765626v12.855468c0 5.367188 4.390625 9.761719 9.761719 9.761719h32.875c5.371093 0 9.765625-4.394531 9.765625-9.761719v-12.855468c0-5.371094-4.394532-9.765626-9.765625-9.765626zm0 0" fill="#e4e3e1"/><path d="m273.101562 275.941406v-12.855468c0-5.371094 4.394532-9.765626 9.765626-9.765626h-20.605469c-5.371094 0-9.761719 4.394532-9.761719 9.765626v12.855468c0 5.367188 4.390625 9.761719 9.761719 9.761719h20.605469c-5.367188 0-9.765626-4.394531-9.765626-9.761719zm0 0" fill="#d1d0cf"/></svg>