<?xml version="1.0" encoding="iso-8859-1"?>
<!-- Generator: Adobe Illustrator 19.0.0, SVG Export Plug-In . SVG Version: 6.00 Build 0)  -->
<svg version="1.1" id="Capa_1" xmlns="http://www.w3.org/2000/svg" xmlns:xlink="http://www.w3.org/1999/xlink" x="0px" y="0px"
	 viewBox="0 0 512 512" style="enable-background:new 0 0 512 512;" xml:space="preserve">
<path style="fill:#D0C731;" d="M512,256c0,141.385-114.615,256-256,256S0,397.385,0,256S114.615,0,256,0S512,114.615,512,256z"/>
<path style="fill:#FF4343;" d="M482,140v40v100v96.323c-8.318,15.591-18.199,30.219-29.439,43.677H59.439
	C48.199,406.543,38.318,391.914,30,376.323V280V180v-40c0-33.137,26.863-60,60-60h332C455.137,80,482,106.863,482,140z"/>
<path style="fill:#F72C2C;" d="M60,338.265c0,29.66,10.135,58.528,29.102,81.331c0.112,0.135,0.224,0.27,0.337,0.404h-30
	C48.199,406.543,38.318,391.914,30,376.323V280V180v-40c0-33.137,26.863-60,60-60h30c-33.137,0-60,26.863-60,60v40v100V338.265z"/>
<path style="fill:#FBC56D;" d="M419,240L419,240c-10.493,0-19-8.507-19-19v-61h38v61C438,231.493,429.493,240,419,240z"/>
<path style="fill:#E32929;" d="M482,170H30v-20h452V170z"/>
<path style="fill:#FFF2B4;" d="M326,275v30c0,5.523-4.477,10-10,10h-35v35c0,5.523-4.477,10-10,10h-30c-5.523,0-10-4.477-10-10v-35
	h-35c-5.523,0-10-4.477-10-10v-30c0-5.523,4.477-10,10-10h35v-35c0-5.523,4.477-10,10-10h30c5.523,0,10,4.477,10,10v35h35
	C321.523,265,326,269.477,326,275z"/>
<g>
</g>
<g>
</g>
<g>
</g>
<g>
</g>
<g>
</g>
<g>
</g>
<g>
</g>
<g>
</g>
<g>
</g>
<g>
</g>
<g>
</g>
<g>
</g>
<g>
</g>
<g>
</g>
<g>
</g>
</svg>
