<?xml version="1.0" encoding="iso-8859-1"?>
<!-- Generator: Adobe Illustrator 19.0.0, SVG Export Plug-In . SVG Version: 6.00 Build 0)  -->
<svg version="1.1" id="Capa_1" xmlns="http://www.w3.org/2000/svg" xmlns:xlink="http://www.w3.org/1999/xlink" x="0px" y="0px"
	 viewBox="0 0 512 512" style="enable-background:new 0 0 512 512;" xml:space="preserve">
<path style="fill:#87E0EC;" d="M512,256c0,141.385-114.615,256-256,256S0,397.385,0,256S114.615,0,256,0S512,114.615,512,256z"/>
<path style="fill:#AFEAF2;" d="M320,455c0,8.284-6.716,15-15,15H175c-8.284,0-15-6.716-15-15s6.716-15,15-15h130
	C313.284,440,320,446.716,320,455z M510.694,230H455c-8.284,0-15,6.716-15,15s6.716,15,15,15h56.949c0.02-1.333,0.051-2.663,0.051-4
	C512,247.223,511.556,238.55,510.694,230z M35,230H1.306C0.444,238.55,0,247.223,0,256c0,1.337,0.03,2.667,0.051,4H35
	c8.284,0,15-6.716,15-15S43.284,230,35,230z M370,324.199c-8.284,0-15,6.716-15,15s6.716,15,15,15h25c5.523,0,10,4.477,10,10
	s-4.477,10-10,10h-85.625c-8.284,0-15,6.716-15,15s6.716,15,15,15h130c8.284,0,15-6.716,15-15s-6.716-15-15-15H425
	c-5.523,0-10-4.477-10-10s4.477-10,10-10h67.474c4.004-9.631,7.435-19.558,10.254-29.74c-0.886-0.163-1.795-0.26-2.728-0.26H370z
	 M185,300h130c8.284,0,15-6.716,15-15s6.716-15,15-15h36.451c8.077,0,15.027-6.207,15.407-14.275
	C397.264,247.111,390.4,240,381.875,240H252.299c-8.077,0-15.026,6.207-15.406,14.275C236.486,262.889,243.35,270,251.875,270
	h-66.451c-8.077,0-15.026,6.207-15.406,14.275C169.611,292.889,176.475,300,185,300z M175,390h70
	c8.525,0,15.389-7.111,14.983-15.725c-0.38-8.068-7.33-14.275-15.406-14.275H235c-8.284,0-15-6.716-15-15s-6.716-15-15-15H75.424
	c-8.077,0-15.026,6.207-15.406,14.275C59.611,352.889,66.475,360,75,360h70c8.284,0,15,6.716,15,15S166.716,390,175,390z M255,40
	h130c2.233,0,4.344-0.501,6.248-1.376C371.487,26.303,349.931,16.596,327.053,10H255c-8.284,0-15,6.716-15,15S246.716,40,255,40z
	 M110,145c0-8.284-6.716-15-15-15H33.12c-5.455,9.629-10.301,19.646-14.492,30H95C103.284,160,110,153.284,110,145z"/>
<path style="fill:#F15300;" d="M103.074,158.093l205-102.607c1.127-0.564,2.454-0.564,3.581,0l68.137,34.104L105,227.129
	L103.074,158.093z"/>
<path style="fill:#FF8835;" d="M491.483,145.473c3.683,1.843,3.683,7.099,0,8.942L100,350.361V9.639l175.959,93.141
	c14.644,7.751,32.798,2.164,40.549-12.479l0,0c6.228-11.765,3.839-25.792-4.933-34.874L491.483,145.473z"/>
<path style="fill:#945B44;" d="M130,10v23.12V164v314.88c-18.164-10.291-34.948-22.732-50-36.988V164V70.108V10
	c0-5.523,4.477-10,10-10h30C125.523,0,130,4.477,130,10z"/>
<path style="fill:#AC6A51;" d="M130,10v23.12V200v278.88c-10.484-5.939-20.504-12.599-30-19.909V200V53.029V10
	c0-5.523,4.477-10,10-10h10C125.523,0,130,4.477,130,10z"/>
<g>
</g>
<g>
</g>
<g>
</g>
<g>
</g>
<g>
</g>
<g>
</g>
<g>
</g>
<g>
</g>
<g>
</g>
<g>
</g>
<g>
</g>
<g>
</g>
<g>
</g>
<g>
</g>
<g>
</g>
</svg>
