<?xml version="1.0" encoding="iso-8859-1"?>
<!-- Generator: Adobe Illustrator 19.0.0, SVG Export Plug-In . SVG Version: 6.00 Build 0)  -->
<svg version="1.1" id="Capa_1" xmlns="http://www.w3.org/2000/svg" xmlns:xlink="http://www.w3.org/1999/xlink" x="0px" y="0px"
	 viewBox="0 0 512 512" style="enable-background:new 0 0 512 512;" xml:space="preserve">
<path style="fill:#FFDF8E;" d="M512,256c0,141.385-114.615,256-256,256S0,397.385,0,256S114.615,0,256,0S512,114.615,512,256z"/>
<path style="fill:#FF4343;" d="M512,300c0,64.065-114.615,116-256,116S0,364.065,0,300c0-19.469,10.598-37.814,29.304-53.925
	c3.472-2.99,8.503-3.309,12.268-0.699c10.865,7.532,23.629,14.449,37.952,20.63l27.513-111.696
	c10.865-44.111,67.318-69.009,117.198-51.69l0,0c20.389,7.079,43.267,7.343,63.882,0.735l7.934-2.543
	c50.863-16.302,106.854,10.471,115.629,55.292l21.461,109.613c14.052-6.107,26.59-12.925,37.286-20.34
	c3.766-2.611,8.796-2.292,12.268,0.699C501.402,262.186,512,280.531,512,300z"/>
<path style="fill:#F72C2C;" d="M499.38,336.045C465.92,382.461,369.611,416,256,416C114.615,416,0,364.065,0,300
	c0-19.469,10.598-37.814,29.304-53.925c1.268-1.092,2.745-1.823,4.291-2.191C26.705,254.378,23,265.492,23,277
	c0,64.065,114.615,116,256,116C372.797,393,454.796,370.138,499.38,336.045z M141.037,154.31
	c7.251-29.437,34.805-50.312,67.158-55.8c-45.308-7.703-91.446,16.37-101.158,55.8L76,280.316h34L141.037,154.31z"/>
<path style="fill:#465A61;" d="M435,300.316H75c-2.761,0-5-2.239-5-5v-30c0-2.761,2.239-5,5-5h360c2.761,0,5,2.239,5,5v30
	C440,298.078,437.761,300.316,435,300.316z"/>
<path style="fill:#A39C12;" d="M397.027,273.289L397.027,273.289c-6.192,0.869-12.379,1.232-18.515,1.128
	c-0.501-1.978-0.953-3.964-1.349-5.956c-11.244-56.557,22.032-112.453,76.554-131.228c11.565-3.983,26.257-9.564,41.073-16.553
	c1.029,5.499,1.597,8.721,1.597,8.721C511.73,197.193,465.859,263.622,397.027,273.289z"/>
<path style="fill:#D0C731;" d="M393.385,266.908L393.385,266.908c-2.78,3.688-5.822,7.109-9.081,10.259
	c-1.295-0.772-2.568-1.572-3.815-2.406c-35.411-23.666-47.224-70.238-28.555-108.519c3.96-8.12,8.718-18.709,12.806-30.096
	c3.41,2.335,5.389,3.721,5.389,3.721C413.548,167.259,424.285,225.91,393.385,266.908z"/>
<path style="fill:#BFB617;" d="M360.706,297.692c-2.554,1.051-5.476-0.167-6.527-2.721c-1.051-2.553,0.167-5.476,2.721-6.527
	c26.329-10.836,30.692-52.934,11.969-115.5c-0.792-2.645,0.71-5.439,3.357-6.223c2.646-0.792,5.432,0.711,6.224,3.356
	C399.12,239.155,392.819,284.476,360.706,297.692z"/>
<path style="fill:#968F0F;" d="M474.469,160.253c-19.665,41.943-61.299,115.862-119.187,139.686
	c-2.554,1.051-5.476-0.167-6.527-2.721c-1.051-2.553,0.167-5.476,2.721-6.527c39.995-16.46,81.524-65.55,113.938-134.682
	c1.172-2.5,4.149-3.578,6.65-2.405C474.564,154.776,475.641,157.753,474.469,160.253z"/>
<g>
</g>
<g>
</g>
<g>
</g>
<g>
</g>
<g>
</g>
<g>
</g>
<g>
</g>
<g>
</g>
<g>
</g>
<g>
</g>
<g>
</g>
<g>
</g>
<g>
</g>
<g>
</g>
<g>
</g>
</svg>
