<?xml version="1.0" encoding="iso-8859-1"?>
<!-- Generator: Adobe Illustrator 19.0.0, SVG Export Plug-In . SVG Version: 6.00 Build 0)  -->
<svg version="1.1" id="Capa_1" xmlns="http://www.w3.org/2000/svg" xmlns:xlink="http://www.w3.org/1999/xlink" x="0px" y="0px"
	 viewBox="0 0 512 512" style="enable-background:new 0 0 512 512;" xml:space="preserve">
<path style="fill:#3693BD;" d="M47.095,404C17.437,362.213,0,311.143,0,256C0,114.615,114.615,0,256,0s256,114.615,256,256
	c0,55.143-17.437,106.213-47.095,148H47.095z"/>
<path style="fill:#0582B0;" d="M472,225c0,8.284-6.716,15-15,15h-72c-8.284,0-15-6.716-15-15s6.716-15,15-15h72
	C465.284,210,472,216.716,472,225z M408,155c0,8.284,6.716,15,15,15h74.178c-3.68-10.32-7.994-20.339-12.914-30H423
	C414.716,140,408,146.716,408,155z M197,100H53.029c-7.31,9.496-13.969,19.516-19.909,30H197c8.284,0,15-6.716,15-15
	S205.284,100,197,100z M450.87,90c-20.784-24.376-46.058-44.801-74.547-60H255c-8.525,0-15.389,7.111-14.983,15.725
	c0.38,8.068,7.33,14.275,15.407,14.275H343c8.284,0,15,6.716,15,15s6.716,15,15,15H450.87z"/>
<path style="fill:#8ABBD5;" d="M8.449,321.418c36.258-3.687,67.751-23.445,87.272-52.038c1.156-1.694,3.652-1.694,4.808,0
	c21.704,31.789,58.202,52.671,99.598,52.671s77.894-20.882,99.598-52.671c1.156-1.694,3.652-1.694,4.808,0
	c21.704,31.789,58.202,52.671,99.598,52.671s77.894-20.882,99.598-52.671c1.156-1.694,3.652-1.694,4.808,0
	c0.925,1.354,1.886,2.681,2.863,3.995C502.465,406.655,391.544,512,256,512C137.228,512,37.36,431.11,8.449,321.418z"/>
<path style="fill:#EBAE56;" d="M472.906,392C427.617,464.08,347.411,512,256,512S84.383,464.08,39.094,392H472.906z"/>
<path style="fill:#D09247;" d="M260,430c0,5.523-4.477,10-10,10h-20c-5.523,0-10-4.477-10-10s4.477-10,10-10h20
	C255.523,420,260,424.477,260,430z M300,450h-10c-5.523,0-10,4.477-10,10s4.477,10,10,10h10c5.523,0,10-4.477,10-10
	S305.523,450,300,450z M150,430h-10c-5.523,0-10,4.477-10,10s4.477,10,10,10h10c5.523,0,10-4.477,10-10S155.523,430,150,430z"/>
<path style="fill:#AC6A51;" d="M317.017,256.599L63.773,509.366c-3.38,3.374-8.8,3.522-12.372,0.353
	c-3.354-2.975-6.641-6.066-9.853-9.278c-3.208-3.208-6.296-6.491-9.268-9.841c-3.174-3.577-3.02-9.006,0.365-12.384l253.232-252.755
	c3.44-3.44,9.016-3.439,12.456,0l18.683,18.683C320.456,247.583,320.456,253.16,317.017,256.599z"/>
<path style="fill:#945B44;" d="M50.184,508.621c-2.931-2.638-5.814-5.358-8.636-8.179c-3.208-3.208-6.296-6.491-9.268-9.841
	c-3.174-3.577-3.02-9.006,0.365-12.384l253.232-252.755c3.44-3.44,9.016-3.439,12.456,0l16.815,16.815
	c-3.44-3.439-9.016-3.44-12.456,0L43.552,500.929C45.694,503.531,47.909,506.093,50.184,508.621z"/>
<path style="fill:#FFF2B4;" d="M398.861,442.55l-14.235,14.235c-11.792,11.792-30.912,11.793-42.705,0
	c-9.464-9.464-11.325-23.644-5.599-34.972l-2.134-2.134c-11.328,5.726-25.508,3.865-34.972-5.599
	c-9.464-9.464-11.325-23.644-5.599-34.972l-2.134-2.134c-11.328,5.726-25.508,3.865-34.972-5.599
	c-9.464-9.464-11.325-23.644-5.599-34.972l-2.134-2.134c-11.328,5.726-25.508,3.865-34.972-5.599s-11.325-23.644-5.599-34.972
	l-2.134-2.134c-11.328,5.726-25.508,3.865-34.972-5.599s-11.325-23.644-5.599-34.972l-2.134-2.134
	c-11.328,5.726-25.508,3.865-34.972-5.599s-11.325-23.644-5.599-34.972l-2.134-2.134c-11.328,5.726-25.508,3.865-34.972-5.599
	c-11.793-11.793-11.792-30.912,0-42.705l14.235-14.235C150,93.544,227.899,84.398,288.207,121.511l64.91,39.945
	c11.358,6.989,20.916,16.547,27.905,27.905l39.945,64.91C458.079,314.578,448.933,392.477,398.861,442.55z"/>
<path style="fill:#FFE899;" d="M101.554,208.894c-5.81-1.069-11.368-3.845-15.861-8.338c-11.793-11.793-11.792-30.912,0-42.705
	l14.235-14.235C150,93.544,227.899,84.398,288.207,121.511l64.91,39.945c10.595,6.52,19.622,15.277,26.461,25.643
	c-0.746-0.492-1.499-0.975-2.261-1.444l-64.91-39.945c-60.308-37.113-138.207-27.967-188.279,22.105l-14.235,14.235
	C102.593,189.35,99.817,199.456,101.554,208.894z"/>
<path style="fill:#FF4343;" d="M443.466,326.82L215.657,99.012c19.311,0.952,38.566,5.575,56.69,13.985L429.481,270.13
	C437.89,288.254,442.513,307.509,443.466,326.82z M99.928,143.616l-5.243,5.243l298.933,298.933l5.242-5.242
	c5.459-5.459,10.43-11.249,14.91-17.31L117.238,128.707C111.177,133.186,105.387,138.158,99.928,143.616z M144.081,112.845
	l285.552,285.552c4.746-10.31,8.301-21.068,10.644-32.061L176.141,102.201C165.149,104.543,154.391,108.099,144.081,112.845z"/>
<path style="fill:#F72C2C;" d="M117.238,128.707l24.199,24.199c-6.062,4.479-11.852,9.451-17.31,14.91l-5.242,5.242l-24.199-24.199
	l5.243-5.243C105.387,138.158,111.177,133.186,117.238,128.707z M144.081,112.845l24.199,24.199
	c10.31-4.746,21.068-8.302,32.061-10.644l-24.199-24.199C165.149,104.543,154.391,108.099,144.081,112.845z M272.347,112.997
	c-18.124-8.409-37.379-13.032-56.69-13.985l24.199,24.199c19.311,0.952,38.566,5.575,56.689,13.985L272.347,112.997z"/>
<g>
</g>
<g>
</g>
<g>
</g>
<g>
</g>
<g>
</g>
<g>
</g>
<g>
</g>
<g>
</g>
<g>
</g>
<g>
</g>
<g>
</g>
<g>
</g>
<g>
</g>
<g>
</g>
<g>
</g>
</svg>
