<?xml version="1.0" encoding="iso-8859-1"?>
<!-- Generator: Adobe Illustrator 19.0.0, SVG Export Plug-In . SVG Version: 6.00 Build 0)  -->
<svg version="1.1" id="Capa_1" xmlns="http://www.w3.org/2000/svg" xmlns:xlink="http://www.w3.org/1999/xlink" x="0px" y="0px"
	 viewBox="0 0 512 512" style="enable-background:new 0 0 512 512;" xml:space="preserve">
<path style="fill:#EBAE56;" d="M512,256c0,141.385-114.615,256-256,256S0,397.385,0,256S114.615,0,256,0S512,114.615,512,256z"/>
<path style="fill:#FFDF8E;" d="M254.002,257.998L293.33,25.889c1.299-7.67,3.103-15.119,5.361-22.326
	c107.176,17.994,191.752,102.57,209.746,209.746c-7.207,2.258-14.656,4.061-22.326,5.361L254.002,257.998z"/>
<path style="fill:#0582B0;" d="M416.864,254.235l-17.678,17.678c-3.905,3.905-10.237,3.905-14.142,0l-4.066-4.066l-34.648,34.648
	c-21.843,21.843-52.51,29.465-80.524,22.896L115.283,475.913c-3.905,3.905-10.237,3.905-14.142,0l-7.071-7.071l-7.071,7.071
	c-3.905,3.905-10.237,3.905-14.142,0l-36.77-36.77c-3.905-3.905-3.905-10.237,0-14.142l7.071-7.071l-7.071-7.071
	c-3.905-3.905-3.905-10.237,0-14.142L186.63,246.174c-6.572-28.009,1.034-58.663,22.875-80.504l34.648-34.648l-4.066-4.066
	c-3.905-3.905-3.905-10.237,0-14.142l17.678-17.678c3.905-3.905,10.237-3.905,14.142,0l144.957,144.957
	C420.769,243.998,420.769,250.33,416.864,254.235z"/>
<path style="fill:#3693BD;" d="M416.864,240.093L271.907,95.136c-3.905-3.905-10.237-3.905-14.142,0l-17.678,17.678
	c-3.905,3.905-3.905,10.237,0,14.142l4.066,4.066l113.425,113.425c3.766,3.766,4.213,9.897,0.698,13.898
	c-3.852,4.385-10.536,4.547-14.597,0.486l-73.186-73.186c-3.905-3.905-10.237-3.905-14.142,0l-27.577,27.577
	c-16.188,16.188-24.555,37.223-25.134,58.433L57.3,417.931c-3.905,3.905-3.905,10.237,0,14.142l43.841,43.841
	c3.905,3.905,10.237,3.905,14.142,0l150.522-150.522c28.015,6.569,58.682-1.052,80.524-22.896l34.648-34.648l4.066,4.066
	c3.905,3.905,10.237,3.905,14.142,0l17.678-17.678C420.769,250.33,420.769,243.998,416.864,240.093z M193.064,341.563
	l-42.427,42.427c-3.905,3.905-10.237,3.905-14.142,0l-8.485-8.485c-3.905-3.905-3.905-10.237,0-14.142l42.427-42.427
	c3.905-3.905,10.237-3.905,14.142,0l8.485,8.485C196.97,331.326,196.97,337.658,193.064,341.563z"/>
<g>
</g>
<g>
</g>
<g>
</g>
<g>
</g>
<g>
</g>
<g>
</g>
<g>
</g>
<g>
</g>
<g>
</g>
<g>
</g>
<g>
</g>
<g>
</g>
<g>
</g>
<g>
</g>
<g>
</g>
</svg>
