<?xml version="1.0" encoding="iso-8859-1"?>
<!-- Generator: Adobe Illustrator 19.0.0, SVG Export Plug-In . SVG Version: 6.00 Build 0)  -->
<svg version="1.1" id="Capa_1" xmlns="http://www.w3.org/2000/svg" xmlns:xlink="http://www.w3.org/1999/xlink" x="0px" y="0px"
	 viewBox="0 0 512 512" style="enable-background:new 0 0 512 512;" xml:space="preserve">
<path style="fill:#3693BD;" d="M512,256c0,141.385-114.615,256-256,256S0,397.385,0,256S114.615,0,256,0S512,114.615,512,256z"/>
<path style="fill:#D9E7EC;" d="M346.119,27.463c-1.524,4.881-0.077,10.206,3.539,13.822l0,0c3.616,3.616,8.941,5.063,13.822,3.539
	c6.873-2.147,14.675-0.498,20.119,4.946l0,0c5.445,5.445,7.093,13.247,4.946,20.119c-1.524,4.881-0.077,10.206,3.539,13.822l0,0
	c3.616,3.616,8.941,5.063,13.822,3.539c6.873-2.147,14.675-0.498,20.119,4.946l0,0c5.445,5.445,7.093,13.247,4.946,20.119
	c-1.524,4.881-0.077,10.206,3.539,13.822l0,0c3.616,3.616,8.941,5.063,13.822,3.539c6.873-2.147,14.675-0.498,20.119,4.946l0,0
	c7.333,7.333,7.779,18.943,1.343,26.799l0.071,0.071l-1.414,1.414l-14.142,14.142L342.277,288.526L200.855,147.104
	c-7.81-7.81-7.81-20.474,0-28.284l97.891-97.334l14.142-14.142l1.414-1.414l0.071,0.071c7.856-6.437,19.465-5.99,26.799,1.343l0,0
	C346.617,12.788,348.265,20.59,346.119,27.463z"/>
<path style="fill:#C5D3DD;" d="M412.696,302.842L304.05,411.487l-151.127-160l76.071-76.071c7.729-7.729,7.729-20.261,0-27.99
	l-7.218-7.218l28.284-28.284l21.213,21.213l14.142,14.142l127.279,127.279C420.506,282.368,420.506,295.031,412.696,302.842z"/>
<path style="fill:#8D9CA8;" d="M324.307,384.159c21.479,21.479,21.479,56.303,0,77.781l-49.36,49.36
	c-6.257,0.459-12.573,0.7-18.947,0.7c-113.702,0-210.074-74.135-243.46-176.698l92.564-92.564c21.479-21.479,56.303-21.479,77.782,0
	L324.307,384.159z"/>
<path style="fill:#9FACBA;" d="M324.307,384.159c21.478,21.478,21.479,56.3,0.002,77.779l-28.571,28.571
	c-6.257,0.458-12.573,0.699-18.947,0.699c-113.702,0-210.073-74.135-243.46-176.698l71.772-71.772
	c21.479-21.479,56.303-21.479,77.782,0L324.307,384.159z"/>
<path style="fill:#C5D3DD;" d="M182.886,242.738c21.479,21.479,21.479,56.303,0,77.782l-76.435,76.435l-22.56,22.56
	c-4.589,4.589-9.79,8.189-15.337,10.817C43.505,403.41,24.189,371.09,12.54,335.303l92.564-92.564
	C126.583,221.259,161.407,221.259,182.886,242.738L182.886,242.738z"/>
<path style="fill:#D9E7EC;" d="M182.886,320.52l-76.435,76.435L91.536,411.87c-9.251-9.7-17.73-20.138-25.379-31.194
	c0.018-0.018,0.038-0.033,0.057-0.051l34.172-34.172l43.61-43.61c5.858-5.858,5.858-15.355,0-21.213s-15.355-5.858-21.213,0
	l-72.65,72.65c-6.667-12.667-12.304-25.96-16.799-39.769l71.772-71.772c21.479-21.479,56.303-21.479,77.781,0l0,0
	C204.365,264.216,204.365,299.041,182.886,320.52z"/>
<path style="fill:#9FACBA;" d="M250.061,154.349l-21.213,21.213l-28.284-28.284c-7.81-7.811-7.81-20.474,0-28.284l7.071-7.071
	c5.248-5.248,11.956-8.145,18.817-8.691c8.455-0.674,17.142,2.224,23.609,8.691l0,0
	C261.777,123.639,261.777,142.634,250.061,154.349z M143.995,281.628c-5.858-5.858-15.355-5.858-21.213,0l-21.685,21.686
	c5.858-5.858,15.355-5.857,21.213,0s5.858,15.355,0,21.213l21.686-21.686C149.853,296.984,149.853,287.486,143.995,281.628
	L143.995,281.628z"/>
<g>
</g>
<g>
</g>
<g>
</g>
<g>
</g>
<g>
</g>
<g>
</g>
<g>
</g>
<g>
</g>
<g>
</g>
<g>
</g>
<g>
</g>
<g>
</g>
<g>
</g>
<g>
</g>
<g>
</g>
</svg>
