<?xml version="1.0" encoding="iso-8859-1"?>
<!-- Generator: Adobe Illustrator 19.0.0, SVG Export Plug-In . SVG Version: 6.00 Build 0)  -->
<svg version="1.1" id="Capa_1" xmlns="http://www.w3.org/2000/svg" xmlns:xlink="http://www.w3.org/1999/xlink" x="0px" y="0px"
	 viewBox="0 0 512 512" style="enable-background:new 0 0 512 512;" xml:space="preserve">
<path style="fill:#D0C731;" d="M512,256c0,141.385-114.615,256-256,256S0,397.385,0,256S114.615,0,256,0S512,114.615,512,256z"/>
<path style="fill:#BFB617;" d="M461,409.354c-8.475,11.31-17.864,21.894-28.057,31.646H79.057
	C68.864,431.248,59.475,420.664,51,409.354V102.646c0.415-0.553,0.843-1.096,1.262-1.646h407.476
	c0.419,0.55,0.847,1.093,1.262,1.646V409.354z"/>
<path style="fill:#D9E7EC;" d="M459.738,101c0.419,0.55,0.847,1.093,1.262,1.646v306.708c-0.163,0.217-0.332,0.429-0.495,0.646
	H51.495c-0.163-0.217-0.333-0.429-0.495-0.646V102.646c0.415-0.553,0.843-1.096,1.262-1.646H459.738z"/>
<path style="fill:#C5D3DD;" d="M461,101v69h-40.498l-20-20l-20,20h-21.005l-20-20l-20,20H51v-69H461z"/>
<path style="fill:#FF4343;" d="M461,131H51V81c0-5.523,4.477-10,10-10h390c5.523,0,10,4.477,10,10V131z"/>
<path style="fill:#FF5757;" d="M461,131H80V81c0-5.523,4.477-10,10-10h361c5.523,0,10,4.477,10,10V131z"/>
<path style="fill:#FFDF8E;" d="M110,70v30c0,5.523-4.477,10-10,10H90c-5.523,0-10-4.477-10-10V70c0-5.523,4.477-10,10-10h10
	C105.523,60,110,64.477,110,70z M153.333,60h-10c-5.523,0-10,4.477-10,10v30c0,5.523,4.477,10,10,10h10c5.523,0,10-4.477,10-10V70
	C163.333,64.477,158.856,60,153.333,60z M206.667,60h-10c-5.523,0-10,4.477-10,10v30c0,5.523,4.477,10,10,10h10
	c5.523,0,10-4.477,10-10V70C216.667,64.477,212.189,60,206.667,60z M260,60h-10c-5.523,0-10,4.477-10,10v30c0,5.523,4.477,10,10,10
	h10c5.523,0,10-4.477,10-10V70C270,64.477,265.523,60,260,60z M313.333,60h-10c-5.523,0-10,4.477-10,10v30c0,5.523,4.477,10,10,10
	h10c5.523,0,10-4.477,10-10V70C323.333,64.477,318.856,60,313.333,60z M366.667,60h-10c-5.523,0-10,4.477-10,10v30
	c0,5.523,4.477,10,10,10h10c5.523,0,10-4.477,10-10V70C376.667,64.477,372.189,60,366.667,60z M420,60h-10c-5.523,0-10,4.477-10,10
	v30c0,5.523,4.477,10,10,10h10c5.523,0,10-4.477,10-10V70C430,64.477,425.523,60,420,60z"/>
<path style="fill:#FBC56D;" d="M216.667,75v25c0,5.523-4.477,10-10,10h-10c-5.523,0-10-4.477-10-10V75c0,8.284,6.716,15,15,15l0,0
	C209.951,90,216.667,83.284,216.667,75z M255,90c-8.284,0-15-6.716-15-15v25c0,5.523,4.477,10,10,10h10c5.523,0,10-4.477,10-10V75
	C270,83.284,263.284,90,255,90z M148.333,90L148.333,90c-8.284,0-15-6.716-15-15v25c0,5.523,4.477,10,10,10h10
	c5.523,0,10-4.477,10-10V75C163.333,83.284,156.618,90,148.333,90z M95,90c-8.284,0-15-6.716-15-15v25c0,5.523,4.477,10,10,10h10
	c5.523,0,10-4.477,10-10V75C110,83.284,103.284,90,95,90z M415,90c-8.284,0-15-6.716-15-15v25c0,5.523,4.477,10,10,10h10
	c5.523,0,10-4.477,10-10V75C430,83.284,423.284,90,415,90z M308.333,90L308.333,90c-8.284,0-15-6.716-15-15v25
	c0,5.523,4.477,10,10,10h10c5.523,0,10-4.477,10-10V75C323.333,83.284,316.618,90,308.333,90z M361.667,90L361.667,90
	c-8.284,0-15-6.716-15-15v25c0,5.523,4.477,10,10,10h10c5.523,0,10-4.477,10-10V75C376.667,83.284,369.951,90,361.667,90z"/>
<path style="fill:#FF9A9A;" d="M200,275v30c0,2.761-2.239,5-5,5h-40c-2.761,0-5-2.239-5-5v-30c0-2.761,2.239-5,5-5h40
	C197.761,270,200,272.239,200,275z M265,270h-40c-2.761,0-5,2.239-5,5v30c0,2.761,2.239,5,5,5h40c2.761,0,5-2.239,5-5v-30
	C270,272.239,267.761,270,265,270z M335,270h-40c-2.761,0-5,2.239-5,5v30c0,2.761,2.239,5,5,5h40c2.761,0,5-2.239,5-5v-30
	C340,272.239,337.761,270,335,270z"/>
<path style="fill:#B6C4CF;" d="M130,275v30c0,2.761-2.239,5-5,5H85c-2.761,0-5-2.239-5-5v-30c0-2.761,2.239-5,5-5h40
	C127.761,270,130,272.239,130,275z M125,210H85c-2.761,0-5,2.239-5,5v30c0,2.761,2.239,5,5,5h40c2.761,0,5-2.239,5-5v-30
	C130,212.239,127.761,210,125,210z M195,330h-40c-2.761,0-5,2.239-5,5v30c0,2.761,2.239,5,5,5h40c2.761,0,5-2.239,5-5v-30
	C200,332.239,197.761,330,195,330z M125,330H85c-2.761,0-5,2.239-5,5v30c0,2.761,2.239,5,5,5h40c2.761,0,5-2.239,5-5v-30
	C130,332.239,127.761,330,125,330z M195,210h-40c-2.761,0-5,2.239-5,5v30c0,2.761,2.239,5,5,5h40c2.761,0,5-2.239,5-5v-30
	C200,212.239,197.761,210,195,210z M265,210h-40c-2.761,0-5,2.239-5,5v30c0,2.761,2.239,5,5,5h40c2.761,0,5-2.239,5-5v-30
	C270,212.239,267.761,210,265,210z M335,210h-40c-2.761,0-5,2.239-5,5v30c0,2.761,2.239,5,5,5h40c2.761,0,5-2.239,5-5v-30
	C340,212.239,337.761,210,335,210z"/>
<path style="fill:#FF4343;" d="M500,365c0,57.99-47.01,105-105,105s-105-47.01-105-105s47.01-105,105-105S500,307.01,500,365z"/>
<path style="fill:#F72C2C;" d="M392.028,469.956C335.413,468.382,290,421.996,290,365s45.413-103.382,102.028-104.956
	C355.465,278.029,330,318.256,330,365S355.465,451.971,392.028,469.956z"/>
<path style="fill:#FFF2B4;" d="M466.25,395h-15.544l-47.046-81.486l8.163-14.139c1.035-1.794,0.421-4.087-1.373-5.123l-6.495-3.75
	c-1.794-1.036-4.087-0.421-5.123,1.373L395,298.514l-3.833-6.639c-1.036-1.794-3.329-2.408-5.123-1.373l-6.495,3.75
	c-1.794,1.035-2.408,3.329-1.373,5.123l8.163,14.139L339.294,395H323.75c-2.071,0-3.75,1.679-3.75,3.75v7.5
	c0,2.071,1.679,3.75,3.75,3.75h142.5c2.071,0,3.75-1.679,3.75-3.75v-7.5C470,396.679,468.321,395,466.25,395z M370.185,395
	L395,352.019L419.815,395H370.185z"/>
<g>
</g>
<g>
</g>
<g>
</g>
<g>
</g>
<g>
</g>
<g>
</g>
<g>
</g>
<g>
</g>
<g>
</g>
<g>
</g>
<g>
</g>
<g>
</g>
<g>
</g>
<g>
</g>
<g>
</g>
</svg>
