<?xml version="1.0" encoding="iso-8859-1"?>
<!-- Generator: Adobe Illustrator 19.0.0, SVG Export Plug-In . SVG Version: 6.00 Build 0)  -->
<svg version="1.1" id="Capa_1" xmlns="http://www.w3.org/2000/svg" xmlns:xlink="http://www.w3.org/1999/xlink" x="0px" y="0px"
	 viewBox="0 0 512 512" style="enable-background:new 0 0 512 512;" xml:space="preserve">
<path style="fill:#9AE7FD;" d="M512,256c0,141.385-114.615,256-256,256S0,397.385,0,256S114.615,0,256,0S512,114.615,512,256z"/>
<path style="fill:#64DCFC;" d="M6.6,313.998c33.679-0.072,63.363-17.086,81.029-42.961c0.943-1.382,2.979-1.382,3.922,0
	c17.704,25.931,47.476,42.965,81.244,42.965s63.54-17.034,81.244-42.965c0.943-1.382,2.979-1.382,3.922,0
	c17.704,25.931,47.476,42.965,81.244,42.965c33.767,0,63.54-17.034,81.244-42.965c0.943-1.382,2.979-1.382,3.922,0
	c17.666,25.876,47.35,42.889,81.029,42.961C479.123,427.445,377.437,512,256,512S32.877,427.445,6.6,313.998z"/>
<path style="fill:#A94B30;" d="M388.833,125v349.883c-9.601,5.839-19.625,11.048-30,15.605V125c0-8.284,6.716-15,15-15l0,0
	C382.118,110,388.833,116.716,388.833,125z"/>
<path style="fill:#FF7118;" d="M291,255v254.608c-11.445,1.565-23.125,2.392-35,2.392c-67.685,0-129.223-26.28-175-69.177V255
	c0-84.068,26.175-165.951,74.725-234.367c0.035-0.057,0.062-0.116,0.102-0.172c2.019-2.844,4.076-5.664,6.173-8.46l0,0
	c9.877-13.169,27.878-15.491,40.63-6.979c0.203,0.135,0.601,0.435,0.633,0.429C205.757,7.21,208.041,9.387,210,12l0,0
	C262.578,82.104,291,167.37,291,255z"/>
<path style="fill:#FF8835;" d="M210,12c52.578,70.104,81,155.37,81,243v254.608c-11.445,1.565-23.125,2.392-35,2.392
	c-49.974,0-96.594-14.334-136-39.094V255c0-87.63,28.422-172.896,81-243l0,0c1.356-1.808,2.872-3.401,4.5-4.8
	C207.128,8.599,208.644,10.192,210,12L210,12z M421,30h-94.333c-5.523,0-10,4.477-10,10v67.943c0,20.849,6.516,41.177,18.638,58.14
	l30.393,42.532c3.988,5.581,12.284,5.581,16.272,0l30.392-42.532C424.483,149.119,431,128.792,431,107.943V40
	C431,34.477,426.523,30,421,30z"/>
<path style="fill:#FF7118;" d="M388.833,125v74.009l-6.864,9.605c-3.988,5.581-12.284,5.581-16.272,0l-6.864-9.605V125
	c0-8.284,6.716-15,15-15l0,0C382.118,110,388.833,116.716,388.833,125z"/>
<path style="fill:#A94B30;" d="M186,450L186,450c-30.376,0-55-24.624-55-55V275c0-30.376,24.624-55,55-55l0,0
	c30.376,0,55,24.624,55,55v120C241,425.376,216.376,450,186,450z"/>
<g>
</g>
<g>
</g>
<g>
</g>
<g>
</g>
<g>
</g>
<g>
</g>
<g>
</g>
<g>
</g>
<g>
</g>
<g>
</g>
<g>
</g>
<g>
</g>
<g>
</g>
<g>
</g>
<g>
</g>
</svg>
