<?xml version="1.0" encoding="iso-8859-1"?>
<!-- Generator: Adobe Illustrator 19.0.0, SVG Export Plug-In . SVG Version: 6.00 Build 0)  -->
<svg version="1.1" id="Capa_1" xmlns="http://www.w3.org/2000/svg" xmlns:xlink="http://www.w3.org/1999/xlink" x="0px" y="0px"
	 viewBox="0 0 512 512" style="enable-background:new 0 0 512 512;" xml:space="preserve">
<path style="fill:#FFDF8E;" d="M512,256c0,141.385-114.615,256-256,256S0,397.385,0,256S114.615,0,256,0S512,114.615,512,256z"/>
<path style="fill:#8D9CA8;" d="M512,119.733L512,119.733L299.868,331.865l-46.669-46.669l165.463-165.463
	C444.437,93.958,486.225,93.958,512,119.733z"/>
<path style="fill:#9FACBA;" d="M215.522,189.326c-0.001,4.845,3.94,8.788,8.787,8.787h14.146c7.454,0,14.756,2.625,20.209,7.708
	c5.91,5.51,9.181,13.043,9.181,21.079v51.081c0,5.301-3.999,9.913-9.287,10.277c-3.043,0.21-5.82-0.94-7.785-2.904
	c-1.81-1.81-2.928-4.31-2.929-7.071V226.9c0.001-2.347-0.914-4.554-2.573-6.213c-1.66-1.66-3.867-2.574-6.214-2.574h-14.748
	c-15.875,0-28.787-12.916-28.788-28.788c0-15.873,12.915-28.787,28.788-28.787h48.284c4.846,0,8.788-3.942,8.787-8.788
	c0-2.348-0.914-4.554-2.574-6.214c-1.659-1.659-3.865-2.573-6.213-2.573l-48.272,0.056c-15.885,0-28.799-12.915-28.8-28.788
	c0.001-15.874,12.915-28.788,28.788-28.788h48.284c2.347,0,4.554-0.914,6.214-2.573c1.66-1.66,2.574-3.867,2.574-6.214
	c0.001-2.534-1.065-4.903-2.984-6.599c-1.67-1.476-3.882-2.188-6.11-2.188h-14.442c-8.033,0-15.562-3.267-21.073-9.174
	c-5.087-5.453-7.715-12.757-7.715-20.214L229.056,0l8.945,4.472c6.776,3.388,11.056,10.313,11.056,17.889v16.72
	c0,2.533,1.063,4.901,2.981,6.597c1.67,1.477,3.883,2.19,6.113,2.19h14.441c15.874,0,28.787,12.914,28.788,28.788
	c-0.001,15.874-12.915,28.788-28.788,28.788h-48.284c-4.845,0-8.788,3.941-8.788,8.788c0,2.347,0.914,4.554,2.574,6.214
	c1.66,1.66,3.867,2.574,6.214,2.574l48.272-0.055c8.949,0,17.26,4.043,22.864,11.265c2.838,3.658,4.748,7.988,5.516,12.554
	c3.038,18.056-10.866,33.756-28.368,33.757h-48.283C219.463,180.539,215.521,184.481,215.522,189.326z M442.704,143.774
	L277.241,309.237l22.627,22.627l205.466-205.466C483.612,121.006,459.683,126.795,442.704,143.774z"/>
<path style="fill:#F72C2C;" d="M292.797,254.083c23.432,23.431,23.432,61.421,0,84.853L144.989,486.744
	c-36.863-17.767-68.806-44.116-93.263-76.443l156.218-156.218C231.375,230.652,269.365,230.652,292.797,254.083L292.797,254.083z"/>
<path style="fill:#FF4343;" d="M305.397,272.596c9.526,21.939,5.338,48.403-12.6,66.34L144.989,486.744
	c-23.473-11.313-44.943-26.116-63.767-43.714l157.834-157.834C256.994,267.258,283.458,263.07,305.397,272.596z"/>
<path style="fill:#9FACBA;" d="M271.584,310.652c-9.763,9.763-25.592,9.763-35.355,0s-9.763-25.592,0-35.355s25.592-9.763,35.355,0
	C281.347,285.059,281.347,300.889,271.584,310.652z"/>
<g>
</g>
<g>
</g>
<g>
</g>
<g>
</g>
<g>
</g>
<g>
</g>
<g>
</g>
<g>
</g>
<g>
</g>
<g>
</g>
<g>
</g>
<g>
</g>
<g>
</g>
<g>
</g>
<g>
</g>
</svg>
